<mxfile host="65bd71144e">
    <diagram id="qiW6jUNb12s1ifGG9OF3" name="Page-1">
        <mxGraphModel dx="1004" dy="790" grid="1" gridSize="10" guides="1" tooltips="1" connect="1" arrows="1" fold="1" page="1" pageScale="1" pageWidth="1400" pageHeight="850" background="none" math="0" shadow="0">
            <root>
                <mxCell id="0"/>
                <mxCell id="1" parent="0"/>
                <mxCell id="4" value="" style="shape=image;verticalLabelPosition=bottom;labelBackgroundColor=default;verticalAlign=top;aspect=fixed;imageAspect=0;image=data:image/png,iVBORw0KGgoAAAANSUhEUgAAANwAAADqCAYAAADJeSsxAAAxMElEQVR4Ae2dDZBsR3XfR7xNIBi/VUm4kMs7gRiISD07EKRK3hgToCB5OFYVjmGesTGxUhYBVwCxKxILLOAJ5PBhaTd24UAIqlAxJEIjUVYKxcglHGEDu1SBAymkgAOEeJev8FHSgkDC0lP+v773zPbt6Zm5szuzOx/nvHfm9u3b3bf73P73OX26791Gw8kl4BJwCbgEXAIuAZeAS8Al4BJwCbgEXAIuAZeAS8Al4BJwCRylBM45ypv7vfMSaLbXz9nurD3EMU7xUKNROY+v6YIu75Hl57gX66GjlkDfB3jUFVu0+8fgKoH1MGSgB/RgHfDEIFX+Y5Y3lqODL5bG0YQdcEcj90YCkPAc9POQgYtqEV5prwO8R4kfWR4foSOAIs8DJf+Vjt+DFfn9tAzuVYLwbHwPB6AkdsjEQ3M6JAnEIOOWgEAPoKLBBDDAdXHJT9DxceILxI8u+eE6xqRiGrvib4m/Ld4Wf1n8OfGW+K6dztpZu3cJYNBKvgBqu8a502Ql4ICbrHxD6dahOaqXB5nT4UsNtqREJ8RPF18ifooYcAWzUMccAZazYrTfoGd4v67viO8Q/5H4EwLfDvVQOAt44p0mJ4FBD2tyd12QkocADa31AvFp8VPFPyKO6UGdACx7RoPAFbSV0gJCiHMzO0NE+fM1Hf9U/F7x7QLffTYI6CahDDNH3dwsJTbmgz3MMRe72MWZBrHOq558Dh261GiA61+IXyhejiQFwKBBwCpSjPYLkAyIsdb8vOLfLX6vgPf1GHhWbwfdaIKuk5qH6zRGCZhWo0ibLzGHUq+/SOc3KPrj4peKARtgME0GGHJaSdEHIgZVK9vuR4EXin9H/Oeq1xldeDT15ILVm7ANHoSdDi4B13AHl2EowYCWagp13scpwevFLxL/dTEEyGJtEyL5aYq3g9+jG3WAQLMsL1sE4ANgVo//q/C14ndjahro0MyKC+QazySx/6MDbv+yCzkNaJzQSemgpel4XFGvFL9avCy2Dt7HZNxWkoKAycqKymuuNJoKhDDQKf6XqZQg+EMKt+TOtvLLPbKpnx0dG9s7jc2dvTLJXIC5zL53SOv1GV26Uu24jSS62DWH47buZffQKBJwwI0irSitdT6ORFvHLMPP1/FN4icVlyqahCSBYm0WQNZaabRPrjRaTQAHoPZPAXObO40tgW5zc0vgoywDIHfuoQfLmGM6AsIPiK+StvtcrO1sfkda13hIYTRywI0mr5A6Bpt6ZnctTR3zYiW4RnxKTKfFZBuo0VorzUardbLRbh0cZLpXX9oU4jpbm40tab7truYbCrx7VeC/Ff+ugPdNAx5zPRtoHHR9RZ694IDLiiUfmQCta2qpI+Liv1J8mRj3voENbdGlWKO1VlqNdlvarNVqHEyXdYuvFdiRvdnZ3BZvlcDLgo6y0Hg2WHxR4d8W/4HA9gByUAO77Te56LrTEAk44IYIiMvxaG6djVFeQFvS5ZeJAdtPiOmkUAVoRVRhzjWl0a5rtwW0w4RZUYP4l3leZ3Ozsd7ZUjR1qwW8jyghZuZHTQ7qQD3b0eL7eLgqAQdcVR49ZzZ6px1MYMNsZNS/SGwazTRCKIcuXMBsW86PZmMV07HdCtem5QeNt97ZFPiEwP7AiweSB5TwD8SvF/DCrhXXdvWfpgOuj6wGAO0JynKN+AXiY2I6YwVoOi9JQNM/TMd2qx28jXZl2o6bAt6GgLcprQdR72KwqNQ0but3dOVtYuZ3lWUEc6z4/K4iu3DigEtkAtCIorPETgKFz1X0qvhy8bLYtBqgS6joqszPVqXRWgf0OCaFT/S0I9BtdOd33Ao93UMx8O7U1avE/7U0s7tLIzZo9eRe4AgHXPnwrXMY4DCTyg60pCRoszNidmcMAJquSi/geWy38TxOl/lI7eqQze86mt8Vi/BZ0MVyIPzfxFdKZp9FhshPncvnd4nAFx5wBjAzg9RRYjf/0ySvq8XPFscdLBEjp4X5uCqgtaTVjtYlkqnePqL25neFmdlH28Vy+b5u8w7xtQLe181CAHh2+0U3MxcacLFWU4/ojsjqKOAFM+lS8cPFcafSaUyYj9Jo8jquAbQZMh/jVgwKs4a30el0d67UmN/tqDwGKjZGd+d3WAzcx+ROeNFoIQFnD5xjArRHqAO8XPxq8WPEzFWg/vM0vI9rcvPPIdCKpu/9Mr9b6y4jEJ81NZGZyetjCrOMcEcq65Bb8l80jbdwgBsAtkvUCa4RP1mc1Wh0L9tYHNz8MzxPU1P2RWZmbknr1ZzfAcAbxGcEvC+kwLPnsa/KzGCmhQGcPdj0gct8PKHnxnra88rnRwcZ4uYv1tOwOxeVWEZA47F4DtUwM+9RsmvFvyfg7cbzO5s/L4K2m3vAATA6BA/THjJzCYV/TNFXiDEh+27H0jUR87RG8DqycL0I5mNocI0fALeBN3P4/kwbxHjx9fXiD+g5PKDnsKQHVPmuS43bzmySuQWcaTSeTAI05mm/LH6D+LHirPmoeFEBNNz8q1OwHauo0/T94iEptJ0BD+O7h1I5364UrxHoPplaHfGz6yllxiPmDnDxw0ofpID3TD2vN4qfLk47gKJi2nPzT9t2rLiW0xS2+Z2ZmX2cKrHcWUZ4j/hNAl5lGWFezcy5ApyBLQO0J+ihvlb8z8R40IbO007OsZtf7Z8o7WMZ4RuqEA6r/yjg3RtbJDxLKjsv87u5ANwAoDE3u1y8Jj5fHI+uOo0pMh8XxM0ft34S4TC/27DdKtwha2oy+DEIQp8Ss4zwoXTQ5KI9Z8KzSjMPOHsI6QPSKPkLeiiMmnghs0Dj8S+6m18imCgV28Q6muPVXkagPjeL2SZmywjd3T/2vCda6QkWPrOAM8FngPYUyQug/XwpN0ZQ85CVUXYoXptpl6/NLLKb3yQyqeM+lxHervqwTezu9Dnb859UfSdV7swBDkGbMKS2QlgPBDf/BYr/TfFviPtux4q1GpuL53U7lslo2o6YmWyKLj5wxOqd+YIrNY0HyS/qytXi/6Ln3LOMQK5Zmt91Oy8Vn2YyoGXW03DzXyq+SvwT4qz5qHhRNE9zN38hkiP65d27Ed5GoJZ3iF+rDrvFCYOtwt23EWYFdDZZpQ1TSQBt967bGssnToXB4fiJU+F9K412LGQ/R5X+T+KXio+LbWTEhIwIoO2Gt64vO3WqsSanyIkmyZ2OSgKtE83GKX04aXeXvzbCK3UKVD5EHawXnqMNoD+pMOunKMVP6/nfQ18QA7wGfcT6ik6nlkInntbaIUBGLo7xiCagPUl1fp2YB0AbDGiZ9szOW9dqx0JS+rb5AG8m8kFJfFv8ZvG/F/C+p/4AMBsKT/3XxDIdlKofLQ0AGmrpCvErxeeKbfTLaGq0WiN8FWt9Tl+bCQ2co58RtonZ8/6Mmn+VOvGtiCEelOlDxE2bqTlVgIuFZFrNRi0J85ckvzPiC8VZoGFrmJt/1t+6VlMWknbU6n1sE7tF2Vi/s7fNp3YZYWoAN0CrXSxhvkX8bDE02Hzk8wZy8/MtEafZlUDNbWL0BQiNd6+YZYTrBLxv2oCtDj5VjhVTzarn0RCCMacIk2DVInxLROELxG/V+e+LnyhGuGg26twdKNBqu8H7uBt2869fdkqTcda6nWZZAsePHw/PsbVyQn8rQX8vYXdbzZHjS46V3b2G0V9g+gZ/KOVnxafVb76n4/8U8B6kT8nhptPpcKx0O26o0SH+ADRul3HzP0rRl4px8z9GHI9iOo2Jh6B5mr5ivLrmr83Ekpm3MGZmeA0oDK4Msz1k04wwaOvqx8T8UZKPlX1sKl4DOnTAxUBL1b68Tc+VkK4RXySGABsaLaECaIv61nUijIU53TMzd9Rm+kAWePEAfb8SvV/8Bmm7L6f9jfPDdqocKuCsgdZwCSK4cgU0bMDXiU+LqRNCs5FKwZjMzV98hm4BPiUSN97DksA+lhG+o2zXiXnbPCwjqJN153YI9bCAd2iAS8GmhrMdCzf/vxa/SvwjYjMLKlqtqQtd76O2Y7mbXwJxCp93iN82r/GZh89JbP9Knf5WxKfOdui7VSYOOIBG4zJzNczHa8Vot+FACx9XbYfP0Sm9k0ugK4GwTaz7tWiG5x5K+xdm5qs16O9o0D/Uud1EAZdotWNqIJtP0WpvFF9eiqWW+ehu/lJafshKgPndmhwr9rcRaszvvqGCXqk+eaNNcbC6rM9mbzKGyIrpNobyukVYxcvGGNieogQ3i/+pGKAx8lCHBPhMiJelzU401tfczS9hOA2RAMsI9JdiGUG+gd07lWPgMsKPKsEvatkAT/gdAtsPpQzYpzvRfZkTAVwCNtbVHlRjXqC2fED8t8SAjXvjGIkIoO0W27EEtMtOtRoI0sklUFcCTW1Kb586oY3qx7Up+ruN7bB+t5xmp98x2MP/QPw0Ae929VM2RC9pXfgsm+VZHx43jR1wGbDhHHmVKv4u8d8QG9gUjKl4GfTMr59qnGmfajQdaLFwPDyiBE7o76Sf0hsJyxqvN+/aVW4G8wrwUGYAj/6IEniewPZxgc7mdQ9N4g2EsQIuBpsagMufV2iuVvDNYkYTa6SCRoVW40XQM2u/Hv6gvF3xo0vgIBLAOmqdkJmp14B27rTdKhXQUbyB7nyFAd2n1W+/EGu6cWo7ADAWSsFWeiXxQl4hZhShYcn9Cq02DX+CV3VzmnMJ4M20P7GcWUIwy+teieEFAt2HyjldWK8bl2gAwYEpBpvUWFi9V2XZMTIQbHzi4Ma11SP/e9cHFoAXMBMSwNN942o7vIjMum6zWutjOgV0rAffoP77TIHurPoz8eHlVo4HpbEAzipB5aikKvtyxf2W2EaNHs22pk8crKvxvlPEpOfHw5BAS98bvTF8BpE/qbyd3tJAh935n9WPn6T+zFLWw7DYUCxphlHPA3pHzRSnN+1GpVQ5vJGX6Pq7xUtiKhhVkgbu6sM9bX99RpJwOhoJhCUEecB3dnbLzzuAry7ZnA73eEtzOf4Gwr3WzzkexHsZgaF7w9qBuBLlnO1JynyHmLUNKbwUbE1ptdn9U7xqj9OcSWBtQ9/MDH8BKDEwG40H1FSUxs0CSTtuNn09Ph8lfGCT0kAnzUbl3iEGbJiSCZgdbJKJ05RJgGlN8bfYsb4qRH+mHz9f6LockOl47KCm5b4BZ0CjEmU1r9TxmWKbt5XRHLa14dg1WyQQD06RBABdSw48+mmi5wwf10ihXDyO+ZwVuK/ml/M2JpUXqwAAB3XLLCq/HT626n+BphCO/06nBNblV+D9ysSRgpWGAsFz+RaUjEDX/TLYflrSBccombkx6fVjnptrdEqlqFy4pmOoPCMHf1vNySUwzRLAW36dvJeZb0FjwdGvny1r7qW04SCm5b4AV9qzYb1NN/9V1eFUUY+ueanTYlGbd9ecXAKzIAH+su2qnHoZMpxcKWtuBdPSlE4m7cAoK2hgovgiNzLVqps/StcuL6+fjdMRXtW8bcUX2lKx+PkUSwAHijlRiilRqKyZlo/V2cuIkaIJltyowBsZcPHNFH6h+CIxKtecJwpuh0oXFdepk0tghiTAvt7MfM6w8rJSywUFM+oSgRVSSxyGZiaOuil5A9p1rJSDHexOkloi9URTKAGsMr5tmpBpufMVfynXpOWOGSY4r0MVoAzLYGsRZbpf1BHtBnUdJWi3k+0VvQioWaiTS2BGJYB1hpajP0dkePlVKZxzmctxbRTQWQFRmf2DFCxkYT5CmJOQnSvIOkazsRbWNMI1/3EJzKQE0BcDtNyFatRzaBhzuVHMytqAMxRTuND9BN3rudxQFM3dGg3+GL07SgrB+O9sS6CPlrNGXWoBsGH4sLh+x9qAK81JMx0Bm627Vcr2uVtFHH4ywxJAy6FAIIzLkgwzF6N48GeMouUssxXW95gg+JLehNthe4zP3Xol4zGzK4Gg5QS3aCZnzhP2DD+zbNnDEnz0bXAtwFlhpXcSyP9du1FcctsdJbE4PDwHEkCBFN06gtxeu55FUAiM/Bh7F3OhWoBLvJM/o4J+XCxNat7JwlnCtyOcXALzJoGM88T8Fs+SWXl87E6TUsPZTpKnlgKtoJpRwJ0l89bVvD1IoFAkWWWC4vlJk5JZgnaeO9bScGSMFrsvKgvClu1Sq3ehsHvNAy6BWZYAiqTwnVTMSiw86Gn84DjhOIxqA64s6LiOP12GTa2G05NhkbC84geXwJxJYKXZ4600i88UUPjuybBmjwq4R6tAvDM9pO9uOrkE5lYCzcJzkmvf3yQSx8nYTMpIXbLgnVDxGk4S6acugbmSgOGtYlQWLbyAbV51HSejarjHlVI0+zWcomzdYVJKxg9zKYGVsPRdMeMMO+epwefS6EgxcZoly5S9GEVaugvKOLNfi9PSvo3Se9AlMFcSYMpUgdte65YVBHS1yIBUK7ESnRsntAoU08n4ioddAvMqga5RaV7JR6qlMDQUT0MTFOV0f/FSOrkEFk8CNomrtvzB8vQR1ej+Z6MC7uH9i/IrLoH5lUCw4npNOfNlOODm99F7y6ZQApU16UH1G1XDLQ0qzK+5BBZUAmZaDm3+qIAbWqAncAksoAQmpuEWUJbeZJfA+CTgGm58svSSXAJDJeCAGyoiT+ASGJ8EHHDjk6WX5BIYKgEH3FAReQKXwPgk4G7+8clyrCXtqLRN/XT0s6nwDhElsf7KC5Hr+uBu71qspfLjNErAATeFTwWgbeinE4EsribRgNBp9iTggJuyZwbI1gS2WKPlqsgfAXPtlpPMdMf5HG6Kng+arQ7YqLJ//3OKHtwIVXENN4KwJp0UMzKn2WzOVnzIptBrbXs3atKV8vLHKgEH3FjFuf/CMCVzczZAtqof+Uec5kACDrgpeYh4I1PiFazrBLZCs6VX/XwWJeBzuCl4akAt53VEqznYpuABjbEKDrgxCnO/RW0LcencDe3W9m/F7FekU5vPTcoDPpqdFCkqb9QvmG11P5OxVxl8IqNot42gIvfMUj5c6vO+PXlOS8gBd4An0el0Gmtra5USOF9dXa3EDTvZbuwBxdKeHMFJwvRvXcCPsd/WSdsRZ+KcmqMD7oCPIqfhRi1yqxdvjdYI5iTZY7Bxf1+nG/UpHE56n8Mdjpz73gWgpBYlym0EBdfYZBKYkP+ph0QgU3LqgDviB5FuTA7VEdpGUHA92g2HC1u/nKZPAkvTV6X5rBHzrF49pOWAjHbCYZJZlguCQfPFzhTKTJcUyJ//jGIown+OUAIOuEMQPmbjaSEonWf1uzVg28xtO1EGwPbxyBmSW1IYxeHSrw4ePxkJuEk5GblWSmWOVhdslYyZkxRMuSWF1kgzwMxNPGpiEnDATUy0ewVj9o2LUu9luqSAyekOk3FJe/zlzK1Jibt+lAVoc++PkmeUx4EpCBhiAojpXI00OExyaYmL52+U1bOkoESjOFwowwaE9J5ccxqvBGYOcCw2xwRAWq2WTDZ9imBzs8F1Aw/puN5utwPH+QiTljxbW1vdS1YeecYFPqZcuUVoXsdJAQegbozmaN2KZQKYqemSQt0XU7kvrd7WJDAGXFNoBXi5ASJThb5vOAwCL/VOHT12z9w9iKOOqayG5elX1lHGLx3lzfdz79OnT1eysaujqT/exQ6PFIyWkHgAtL6+HkAEIIelJy1MvklR2um4zyjexdySwrD8dFoNSY0dIZVOHBPnW6XXtKPr7OUchv3coMGAMSgfL9mmPiHStwZkot6nk0yrJxkYBkE7bt10hJemoxr7rwXgAYRoqkFkYAREg8BmZRgoOZ8E6OjcjPQppXO09Hp8vpNZUhiUn/7aiTRaXNZ+w7nuDph7bOLyBqEOmXYHefTJxjWAHRMaeG1U2zku4IjCS0d037Hd1oBUp0DSAqRh4LSySLuxsRFM1nGZl1Y26iU1B+m8uQ7czZMEkj4YtGO/Be9+YIvvZ136pDrymi7YNYu387gaQcFYgvJC4cjpTU2yFDhWVpAFCXqzBVMybSvKcMaUW2jqkjV41o82V8O8hGw+l7YrBhtzv1h7Acj4elzOqBuS0/um5zlzkM5Wd9Cmb8IxhZb36bCpZiMZJqM5YdbLHo2GDJ25LJjoK/TDcsS6JY5u2gwISWsSJYiClFXeJootgmj7fooxfTkXoLUzdekpdAojlqawTiNXCeBcd911QRNZZgCCdsJ8zFE8p7PrxOXMTUA4bsAFs8tuXB7rOjxIjjWZWpR0RICUUpizRZGa+oQOG2tDnCXMVuN+jFa0jxpxL76jEl+nyLAEsedzIqpnILC4ftotZOqTL2eCxtrX8s7KcS7W4QADoEuJ+FiD2XXSmgPF4jiiJcmTmo+YluOmzUy3HMVEokZprXIL3miUGNwAEu2QSis4LRK0su3Mms690JIpJVmKy73J9EHbqnbLDQ65OWlWu9U1A9LKTsH5zAMO8OTAZrLNXTt58mQPqOL0ZpZaHMdxgo7+aB05vscgh0ecjnBuD+bJwpquJEX5xP0/mJGVFMVJDjg4JeJBAG0Tl2XFpHnTNLSV9/ViWlPBKW7SOW3OBA3aLb1hXPCUh2cecGijVCPFMs9dy4FwWJ74+oHD6ntp56IPjdKP0gVvgJF2YOrJOpsR5acmoV3LHSkz9tSDmai4kCXcM1PxvbsKbJGmJBN1aEvFptkSTDY2yBdVLNQn18gozbQHZx5w0y7gXP3G4TBJAYuJ2NOBFRd32FxdhsUVTpG9VLnyUsUa1w0thWaMic/+UVcAFBPJLGnQbsnccFY9k3EbHXCxNA4pHM+p7JY5wNi19IiWSbVB2nnTPJyHTp67MCBu2L7MvmWWyAneUUOR7gNoTGumYA5AjfNF9aJ9s7juFjUhBB1wqUQO4fygDpPsGwI1TC36ctT3a7U0NzikGXvArpsAnqDdUi0V2bQpmIPJavmSis6DdkNuDjikcIgUOn3Smbj9SA6TBDb9tEyIT4CYzsGGNX0zUqUAizKHkTUvnYPF2o0yQv2SAsmbasV50W602QGHFA6T1KPiOQ63Dh2vZh3okBEGQi4wleCqW1rs/g+duXtleCD1EjJXixRUt4DUNOQCoNmMtBttZO4WU6h3HKEw+dI537xoN5rqgEse+KRPcw6TQYBJ64OGGgWw9PFqN696/ig/BRZxgJodJoDUqN1jOxZXUtOQ2A2BLc7bOtkLVupVrZsAR74o4zxpN+TigEMKh0i5OVGu4/WrEn0x7pCkSxRHJStlY65yZA2O9a+4k6NN+PxDPC8EgMRxNOIeuPJzRHlxmWkaQLPKqJKhPhjuppwn7Uajlrot88ChSOCgDpPcgjdfWR5EdFot9VeACZbYP4kmgrZXMOVWuqZghLXgvjdXfpG6+huWBahCnClKwv37DQqD9mICRgaJeSIH3CE+Tfpjqp24/SgOkzQ/nbKP4um2jC4baxI0F/sa47kSwNtIV9PJJ2bTMqDpS7oG6HJ4Gwaa3F5Mu88goFqaWTs64A7zialHjjL/SqtGh2YOGBMdPQZTfC0XBmx1vyCGVqrzt+kGYXEYaMgL07aYhgE1TjtL4aVZquys13UcDpNUw6Vf8RomIyw05nG8QYADJu3o5A/zNaVjkzNgqEMB9ElhxA1brA4WIzdJ8g4Dap06TWOapWms1KA6pbv/6+yLTPPk9lfG90zL7Ldfk/hRyj6owwRtti5vX0y8LDoKkXpVNqjeiQhOEfp5US9CKw02QFPkaKWWcy1GA8uoYACsnfepJJfZkBw0d5k2xI3Yrj7FT1300tTVaEiFbrzxxiEpqpcBTwqgaoreM17RgYfRqGUf1GGCxlgNqmRYzepdR5MFCkc7qZc3TYVGyn0oKU2XO8dsHS7tXM7Zi/NlgUN6ZuiP1Bzk1qM4TA6pqn6bCUrAATdB4cZFhwVrUBcROuVgeiUqzIMzIQEH3CE9prA/MLkX05Q5naokLfVTk4ADziQxwSPrXWxZSgkPo2u4VCrzfe6Am/DzBWzhQzyZ+8zbLopMEz0qkcBScu6nB5AAi8rFl4tXtMCt/Yk6Jy5Hbbn3u17CXAKPm0sJOODG+FiZpxV7E/ugrLwXQOu3mXeM1fGiplACblKO6aEAscxWxJ7SWUa7Tohz7dYjmoWIcMCN6THn3P5p0SwO3+hgS8WyUOduUo7xcQcXv1RdbFCi0dBmOEgAnNNiS8ABN6bnD6jiv709pmK9mDmTgJuUc/ZAvTnTLQEH3HQ/H6/dnEnAATdnD9SbM90ScMBN9/Px2s2ZBBxwc/ZAvTlHIoEH697VAVdXUp7OJdBfAsf6X6peGRVw91Wz+5lLwCUgCUxMw93v4nUJLKIEwmaGeEdDIYRzSln8VV2ZjKrhfli3YE/nEpgrCfSCjeYZfmorIstQVzb3xAnTbyzG1zzsEpgvCWQRZxpuYoD7Vk6I2arkEnqcS2BGJbCnXPhYYaCHyiNK6Ltl+Gx57Huoq+GsoK+VJVXzaau8g66vjP3CHEiAb3duV7+bbZi4W82DG1J3BkJOs1QFTjZJpaC/KJOYKg2n4fNvuW/A9SnPo10CsyaBndxXfItGfEOHr9dtTy3ARYV9SeHEXm0G5O+p3Ci1B10CcyKB7VKhdA3KvXZ9baez9sBKe31pL6p/aFTAfU9F/Z+yuIr63Nl2yPUXs1+ZFwlkevnnrG3bnbUKJiw+PtYGXLO9fo6QfK8yf6YswGzYcLpZ5/sC8Z097BKYEQnsSLsVH4eqVPhYefbJ8ngWjFRSZE5qA07QTW9QQXOmQpnbeZRLYPYkgPG2HeZwPQblA2rNFi3CYTI2DZcUBKLZyhLZrJrHyU252e+bcNTIySUwoxLo7KR/la/rjcTayy6V9WtqLQ2HqhSCARkEor8QQmVcgfttfbWqp2JlMj+4BGZXAlu9isSwcLumWffJYVILR0igVkI0HEzB3ED5PhGLzyaSHVXMVwdiyXh41iXQ2dzMmZNm3QVzUm18WGIF9m12LcCRO5kQdnpLxKzcbmxuu5brlY3HzKoEzBlYWHGhFea7+KLO/oQYrL8EHyFh7qc24EAwE8OykI/q+HkxjhSLC5c68V9qDzH+4xKYTQlsylzDapO6ifeYmHf+g7L2drH6zAKs08ragLPCWODTje7W+R+WcVYBnTb1Lf1Nd56UgvHDbEug08FaswlTty2GmRsspq52I71ltrwDj6WWswnje5WYdTm0XIU2ttysrAjET2ZOAmi3Ps4SGXqNW/UT/BhYfXXnbwhhJMAZkjlKy31W+T9IISIDoYLScppoMtl0cgnMqgTQbsVm5Wj2toeX9wIyrL1RwIYsRgKcFa5JGyiH3i5mDter5fQXCN1jiYicZk0CzNts7hbVnX5Ov/+U+CbidVLbWUJ6aCTAkQHQoUZLLfdRRb2feFFXyzWZZMpj2dnMODOLtP7rEphKCeyoVhsd+m3P3M18FW+Tdcdm5YAdU0J1GzMy4Cg4uclbFfV9cVfLFVVtNtblsfTdJ0jMaVYksL7Rya27oUzo3x+WsumgbFA6+2lTFySjZLa53PETp1gI/5qOj1T+fyimYhGI2X2y0zh1otk4fvz4KLfwtC6BQ5cA87aN227TfZvpvenTAOzX1N//suz3D+3eRdrRKAJH/Yym4SKUX6vcd4oBcI9pubbe8flcffF6yiOQAJbYmvwOGbBZf14X2D6KKWlTqv1Uc1+AsxsBPCqgitytuCvEFQ23HRKyNretxvh8LojDf6ZOAiwBXCFTMjNvoz+jRD4lvkaMoySYkqZ0iBuFKGxfhDotbdmGVCyL4f9bx7+mwp4hrgCv0ViWhrtTvNs41Tqxr/t5JpfAJCTAu24vkQW2vYt6aKa3QCHdI/4V9e8vlMrloeUTp87ZjzlJ4fsGHJm5KTcH9RwV9afii8QXintAd5eDTmJxmhYJALbTgC3/rhuajD69KrD9ocCGUgnLAPvVbrT7QCYlBUBUQLVjMfwBnf5z8efEgBnQRdQMC+Knpb7VVieXwJFJgDnbALDRjwHb76pPvxOw6eTAYKOxBwYcYCvX5M6WKvebKveXxV8RZ0HHTpS19Q2BzlEnGTkdsgTYBcWg30ezoSSWxO8X/yZVA2wH0WqUYXQgk9IKsfmcRoOw3UXHr2o+x96u54tZMqiYl03N6e6UzfzHt+00jq80GieaTSvKjy6BiUqARe0z1+POXy65cjs0G2AjwYvUj3+AMjGlMg7QjQVwVJk5HKxKoumwd1mv+IQu/Zz4R8Vd0O3qhAbvajX/tq27gjPlRPOE1urCBf9xCYxdApiQV2xc3+hssXqVHeANbB9WgtPqv98tLbZgwY0DbDRqbIAzB0p5fKj0XH5Jxzt0n38iPlfcBZ3ComKUwZnyx3feFQDn2q6QjP+ORwLMWq6/rdNYu157e2VVse2wGPC75eMcYdsWmu0W8QsFtntKsIUvcY0LbCp7fICjMMAGJZpuR6D7I0U/S/wYcQI6xpvl4JZF221p6WCludxourqTqJwOIgHmaldcf5OsKLRaMbgnYKMvAjgUzzvFLxHY7i19EmPVbCo70Ng0nBXIEcBFmo6F8W8KdKws/m3x3xFbQ4PTxkxMhMJ63Zbmdrv6awXNZTczJSunESUQFrI1T7u+c1tjd3c3p9UokT5I/8eUfLX66OvUbx+k745zzqayKzQRwCWaznaj3CvQ3aS73y9+uphFchotJ1BgHUptp+PmXaWZKTSe0F5MJ5fAMAng9cYhcjXmowbuYq6Gr6BC9DnTap9XGBPyBkxIOuIkwUYtuMfECNVM4dYItfKYGserDU9T9O+LnyxGAFAG/NvhQnOl2biu3W60Wivh3H9cAqkENrTxeD3shaTP9B2g6Wv0MwD3HvGa+uPd6o9hnc36KUddmwhNFHBW49i1qpaYJxOf5Jr4VeJlMY1k8toXeO1Wq7HWbjVWVhx4kpOTJBBeFpWrn/26NYCGzNiUsaqOHxwO9EeFw2cSrJ+SaFKU6dzjvxUmpmk7jSjBxFQj71f4jtKhAoIuFD9MzCjEQACXBB6XG3gzr9f8jgvNZV75set+XDQJME/bkPnIutqO5ml9wEZfYiCnn98jfpv4MvW7z6rfBROS/mg+B5sKKc3EKOrUE7tHpWAbRTjGo4vU+i8o4TVidjcjpD7aTle0fteSmdlun2yg9ZwWRwLM0/A+8jnGzDdHTBAADQJohPEdXCVwfSHtd9Yfdf1Q6NABR6toJEds5XKyal92fpSiXyZ+jfg88QDgYUI0BLxWY3WtpaObmUEgc/zDPK2zudVvSxYtt/6CpUQf+5T4SgHt9qMGmuoR6EgAZze30SUVhkAIet4ofrGYBUlGKROigjEVi5kn5VDx+V0sl/kJs0sEsPHNUyh8M6e3eXEf+Zou/xvxfxDY7rdBnSyH4RjhPv3oUOZw/W5uNjM2tNnSpW29q/NbFP7vyvtE8ePEDA4IlWN3oAiL5ooodqto/W5XD4RPOijOabYl0HXz8wW43Vpu/h+oxf9O/GL1nz9Rvzpb9qdgQR3mXK2f5Lsdt1+Cw4qPzUzTeBJaeANBdfg18W+JHy8GdFBmsCjMTF9GKAQ0q7/ajaU5Gm5+9kpAzeLQ+0tfsH5wq8Jn1Gc+af1HnfvQvI+9VcvHTA3grHoIy9S+DPKuy1ZmwblKc6WYOd6yOAs8Hk0xmW4Eh0pbywg+v5NQZoRwiGxIo/V5dcZaEQMN1XdG/AEAZn2GhNaPOHI+DWSjwzTUJdShj5nJwuQPNHrdLhPhg0r4GDHeTOZ1CJ+BIwwesihF4LFYRuj4MkKQyLT/pNux+mg1njXgod/eLX6T+DfUL/5c/SL0AawiTEfFh7291p84nwYKFZuGiuTqEGs7rtvoxYgljfdcRbGMcFFxafAyAmbmqi8jSFTTRTXd/IDMlokA3fvEbxC4voxDhBapI0+d+Ui9UppqwFllAR7hEmjhM2Vl+BGKxsS8UozWix+MTgtq6mBmJut3q75NzERzpMd9uPk/pgqznnbHNM/TBgl1JgBnDTDgcZ5ouwsUdUZ8qfjhYkZBRr5M+7YVrUVzX0aQHI6GCje/bcfiaVT+/ppVKn6G+FGuFr9HYAufGdeD7Wo0MkzTPI369KNMh+yXdHriY1MzAd7FquVbxM8uaxs/tKQBxfodu1VW5VhxmrwEMB/Xw+L1ZnkzbI8eip/Zvbr6TvFbBbRvzqpWi1s4k4CzBqTA00MJn3fQ9ReImd89XswDhI4Vh/gXbcduFTczY6mMO4x6ws3fwfuof30cIul04BYlxM3/6XkAmsl0pgFHI1LQEVcC71wFXyV+hfg88XDgaV8m2s6XESStMVHVzU+hzVzJPBubAnxGYRwit8RAIxNmoz1vzmeRZh5wJnR7EOVDOqaGhU+byYv1BKV5k/iXxLQ3frg6janQeGwRa7faeg0ovubhUSQQdvOzHUvragUNBdq3lY7pwLsEtvC3s8nH4MnRni/hWaa5ARwPgYcSPwzZKDHwnqNrvy3+++LUfImzKaz5HWZmS28j+Pwukc3g0715GoZkMU8uhrFKvlj+DIDvEV8jcFXc/JZjVhwiVt9Bx0oHHZRwlq7ZaFhqu9BGRkppuyW14zLx68U/Lo4fvE4LYiy2ZQTfJmZSGX4Mbv7R5mkfUamv0bPZtGelh9X1Ps4T0Ex6cwk4a1ys8YSseJvYjykNezNfJvZlBBPYPo/Vt66ZpfV183OHY+Iviq8Wv68cCLtrqzZY6tpc0lwDzp6YPcR0FJXGe6rSvFHMdzORBeaNTd4VjMmXEWJpEMZ8XKs3TyM5QLtH/HbxtQLa3enzsOek63NLCwE4nh4Pk6N5utB4kZn5PF1ifnehOGtmKl5UzEYWfZuYcFa+dT2Sm/9mCRDv452LCLTQffSzMICzBtsoagAUuuxLYrxt/krxmvh8MdoOYmROqABei2WEk1pGWKCviYU/y9t96xqxNBPZhNPYUviUYtiO9aEYaKSywW8e52pBCpmfTGfKpJqjKNs9zo5yHrSOfJadOcQP1Sn+TOEb1dzzxD8txslC50HrYWqWtKxj8dHaztamRi19bHR5ea7/jnn4Nv9N+riq/gY2H1ctgIYcKoSsGMSR1dfFrxVfLrn+rxhspdzDx4LteSjdQtDCabj0qcYaD20ngdj63c8qLetCTyvz0Jn6DFDFMkJbywjztk1sH27+BySnd4nfLKDtxLv5SznOzL5Hq+84jwsPOISZgC7IRJ3FlhFerCRvED9WLEx2XxNRsKCmDraMME/bxEbYzW8D0e0SBW7+qX7runxsR3IwQR3JzaflpmbWYGaqs2Bm8nfLMTPP6vx/KPw+1ZUdD39PbMsIgC+YmRhYmJj2d+86WzvBg3dCf5Tk+Ax+PJPtWFdv3KQ/7bQ57Nv8yIA+9HnxKyQvvpD1VbQao1Ypy4U0HdX8LCEXp0QCqcaTkMJirDrSTynpNeJLxHQ0zExAl5HjtqKb+pJYsVtlRWfTTiNsx6IptP87Ytz8vyNwfS+dp5kcdd2plECmo7hskACdhaN50jSU2zICAGPdDuA9WQwNBN60LyMwT0OrrevjqsXSB0ZyD6HN0PIA7QHxTeLXCWhH/nFV1WNmyAE35FFlgBcvI1ym7FeKHyMGdBAdMiG03fS9BgS8wmszXTd/FmhUPR5QPqZzXpuxj6t2HU2xrMjk1CsBB1yvTLIxZh5xRNtJcGZmYi1eJb5UbPM7BfsDj8+zH/XXxNBovJ9W/BEMqpsFWww08Hm1+L0C232x99GsAI6U5NRfAg64/rLJXkmA1x3d1QF5bfzN4meUGePOmpSFxmuGBfPDXDi3HSKb0mgGtBr7Hu9XZd8uZjvW123AUTj8OV4a5kBDCvXIAVdPTpVUMei4gMazDqjwixR1Rvz44lJ33qPTlPZMTdbwWq3mRP4UF4vWHX0mfEvH4nuP1COr0dBQNk8j0a1idol82oBmmt1kQCKn+hJwwNWXVU9K63RpZ5S2O1eJXy1+uXhZjLaDjhWH4pcuX0Cu+EXbrGibGG+cnxT4dDbyS7DYfVqTaGyqyE259Xe2FQ5/O6245xCgmcf1TqW+Sp3jFrQX5qMDzeR3sKMD7mDyC7lT4BGJxlNHfZKCZ8TPFy+Js8BTfNA3tnjOeUEyO5khNgW84qBfQimhuXRPRQOwPS1m6bLazC5SJwPaNxT+PfG66l+Zp1liNx9NEvs7OuD2J7eeXICOSDqkabzIzHyGLp0RczSKO7rFZY6F9stcGBA1EGDk497QseLQuFfHd4uZp+1Y/V2rldIZ48EBN0ZhUlQMPEwx4kpth4b7efErxM8WG6Wd3+Irx2EQqgFLm5+ZNqP8e8TvE79DdfxsCbSuI4hz12iIaXzkgBufLCslWWctO3F3GaE8Z0P0vxT/Y/F5UUZAAQB5LqZ9ossjBQ1gZErLYo52s5i/n1bRaCQ2Le1gQxrjpTACj7dILw0JxJ0VDUecNB5aDo33USHqVxTkg0YvEX9YjFkH0EhjAAF8+2HAZqClLM6Z4l0v/jnxz6gOb1CCr6CFdTF4WRXfpbj+3UgPHFgCPBSnCUsg1nbcig7OESDaNXV8vCH/SHyx+MninxIvi/dLX1HGT5f8Zzp+RPe7j/spTB2C6UjYNRpSOBxywB2OnLt3MYBxNODpIVS+VCXwPUIZLhADwieKHy9uis8XnyvmOpqQRekfiL9V8l/q+BfiL4m/Kv5/MajLe1bmaEpT0cacO01OAg64ycm2VsmmcUiM1uGohxJegjVwEjcKWT4DmPKeBdRWhpuLJonDPzrgDl/m2TvGICGBab9s4hqRKcCs/BpZPYlLwCXgEnAJuARcAi4Bl4BLwCXgEnAJuARcAi4Bl4BLwCXgEnAJzK0E/j9FMv+QqIIVMwAAAABJRU5ErkJggg==;" parent="1" vertex="1">
                    <mxGeometry x="355.98" y="30" width="94.02" height="100" as="geometry"/>
                </mxCell>
                <mxCell id="23" value="" style="shape=image;verticalLabelPosition=bottom;labelBackgroundColor=default;verticalAlign=top;aspect=fixed;imageAspect=0;image=data:image/png,iVBORw0KGgoAAAANSUhEUgAAAaIAAAE7CAYAAACfYoXkAAAABmJLR0QA/wD/AP+gvaeTAAAACXBIWXMAAC4jAAAuIwF4pT92AAAAB3RJTUUH4gsCCxYFKiZHCgAAABl0RVh0Q29tbWVudABDcmVhdGVkIHdpdGggR0lNUFeBDhcAACAASURBVHja7d15fEzXwwbwJzOTySSZ7ItYQoKIJtFQVFFU7S0qVWpXRdUudoqgagvVEkrRUrWWUrSopRUaYvspjV2F7BGSSDIZmcnM+4fGSxvMnS2Tmef7j4/knjvnnnsyz5y5555rp9VqtSAiIiojIjYBERExiIiIiEFERETEICIiIgYRERERg4iIiBhEREREDCIiImIQERERMYiIiIhBRERExCAiIiIGEREREYOIiIgYRERERAwiIiJiEBERETGIiIiIQURERMQgIiIiBhERERGDiIiIGEREREQMIiIiYhARERExiIiIiEFERETEICIiIgYRERERg4iIiBhEZBpJZ+KxdXAv/PJmA2TFREOdmc5GISKLZqfVarVsBusIoLhVXyLpTDwAIMTDAyEe7gAAect2cO/eFxJfPzYUETGIyLQBVOLJICrBQCJz0Gq1SE5Oxu3bt3Hnzh3cuHEThYUK2NmJ4O3tjcDAQFSrVg3VqwfC3d2dDUYMImsLoOcFEQOJTEmhUODUqdP4+eefceHCxRduLxKJ8M47ndCqVSsEBQWxARlEZC0BpEsQMZDI2COghIRLWLp0GW7fvq3XPjp2fAt9+/blCIlBRNYQQEKCiIFEhsrJycHq1atx6NARg/fl4+ODqKjpHB0xiKi8B5A+QcRAIn1cu3YN8+cvQEpKqtH2KZVKsWDBPISEhLCBGURUXgPIkCBiIJEu1Go19uzZg5UrvzbJ/mUyGZYsWYzq1auzsRlEVB4DyBhB9PgNITQc7u/3gyw0nCeGAAAPsrOxZOkyxMWdMOnrBAXVRHR0NBwdZWx0G8AbWi3EX7t3YM1bzbF1cC+DQ8hYlAl/In3GOKTPGAdlwp88STau+G4m7GaMQhWJ6V/r+vUb2LlzJxudIyIyVwCdXPklctJSjLpfY4yIOEKi/w+hDCg+GQHt7bNAcDNML7THlTspJn/dDRvWw9fXlyeAIyIy5Qhof9REo4cQR0hk1BDKzIBi6rBHIQQAV49hcnA1iEWmf/v44484ngCOiKi8jIDMMSLiCMkGQyg1BYopH0Gbfvk/v7vYaSRm7/nVpK/v6emJ9eu/hVQq5clgEFF5CSBzBhEDycpDKCUZiimDoc24WvoGTl7YFN4eO0+cee5+GjSoj7CwUGi1wMGDB5GamiaoHmvWfA1/f3+eEAYRlZcAKosgYiDZYAj9Q1u7OSblanErLfM/vwsMDMDo0aPw0ksvPf5ZYWEhli9fgYMHD+lcl5kzZ6Bx48Y8KVaM14hMGEDl7RqQoXgNyUpCKPkOFJMGvjCEAMDuSiymvRz8n5+3bt0K0dELnwohAHB0dMSAAR9AJOD6UnJyMk8Kg4gYQAwkW6FO/BsF4/tBe/e6zmVcD6zB5I5tHv9/0KCBiIwcAxcXl1K39/LyQlhYqM77V6lUPDFWTsImMJ6kM/HYHzWRDfGvQArYcYiNUR5C6NZNKCYNAHKFj0DqH9uFd5q1QrN33kWdOnVeuL2np4fO++bVAwYREdlCCN24BsWkfkB+pl7lxU06YEjfwRB7eb9w24KCApw6dVr3NykJ36YYRERk3SH09w0oJg/QK4TsvGtAOmIGHF57HbCze+H2xcXF2LRpExSKQp1fo3LlKjxJDCIislaqq5dROLkfoLgn/M2jx0TI3usN0TOuBZU2Elq5chV+/fWgoNepXLkSTxSDiIisMoSuXELhpD6AMkfYKKhWU8iGTIB92Ms6l0lNTcW8efNx7dp1Qa/l5OQIP7+KPFkMIiKyuhC6nIDCyX2FhZDIHvYfRkHW6V3YyXRfFfv8+fP49NM5yM8vEFzPbt3e4wrcDCIisroQunAehVN6A2rdr9OIGnSE7ONxkPhX07mMRqPBnj17sGLFSr3r2qxZM54wBhERWZOiP89BObWv7iHk5AWH4Z/CoWUbQCzW+XUKCgqwevUa7Nu3X++6du7ciUv7MIiIyKpC6H9noZzWT+cQEncYDMe+gyHSYUr2k9LS0jB//gJcuXJV77p6e3uhT58+PGkMIiKymhA6dwbKT3oDmhevUmDn9xIcRkyHtEEjnaZkP+nChYuYPftT5OXlGVTfiRMnwM3NlSeOQUREVhFC8XFQztBtdCHpMRGybr0hkrsIeg2NRoMjR35DdPQig+sbFTUd4eFcOJdBRETWEUInjkM5s9+LR0F6TMkuUVhYiG+++Ra7d+8x7M1IIkFU1HS8+uqrPHEMIiKyBg9PHMPDmf2fv5GeU7JLZGVlITp6Ec6fN2xx2woVfDF9+jQEBQXxxDGIiMgqQujoETycO+j5GdSwM2RDIgVNyX7SlStXMGvWp7h//75BdW3YsAHGjo2Ep6cnTxyDiIisIoR+O4SH8z969gZ6TskuodVqcfjwESxe/Dk0Go1Bde3evRv69OkNBwcHnjgGERFZA+WBn1H0+chn/l789hA49hkEkaeXXvsvKirC5s2bsWnTFoPqKRKJMG7cWLRq9SbsBM7MIwYREVlqCO3bjaIvxpT6O7tKoXAY9oleU7JL5OTkYMmSL3DyZLxB9fTx8cGMGdNQq1YtnjRiEBFZTQjt3YmiZeNK/yPXc0r2k27cuIHZsz9FRkamQfVs0KA+xo6NhJeXF08aMYiIrIJWi8Ift0D19Sf/HQUFN4NsxGTY13rJoJc4ceIE5syZC7VabdB+3nvvXfTr14/Xg4hBRGRVIbR9E1Rrpj/9cwOnZJdQq9XYvHkLvv9+o0HVfHQ9KBKtWrXi9SBiEBFZDU0xFBvXQf39Z0+/6Rs4JbtEQUEBVqz4CocOHTZoP25urpgxYwbCwkJ5zohBRGQ1iouh+H4t1Jvm///PDJyS/aR79+5h/vwFuHDhokH7CQ0NwaRJE1GhQgWeMyp/QfQw7wHObvwW2SeOoeFLIZCFhUMaWBOyUK4/RaaRdCYeSWdOIulsPGqpihDUfzDkLdtZXD21ajUK166A+scvHv9M/NZHj1bJ9jR8AsDt27cxc+YspKamGbSfjh3fwsCBA+Hk5MTOReUriEoC6OymdXiY9wAhHh5Q5OdAcTru8Tay0HA4htaFQ9jLDCbSu58lnYlH0tl4JJ2JR+bVS0/9vnqlisiKiUbutg1w697XYgJJq1KhcE0M1LuWATDOlOwnnT9/HlFRs6BUKg3az7BhQ9GpU0eIRCJ2Nio/QfTvAHoeZcKfUCb8CWx7OpjsA6tDFhoOkbOcZ5WekpuajKQz8bh77XKpwfMsqsx0iwkkbdFDKFZ8juJ9qx/94faYCFm3PhDJDe/vWq0W+/btw5dfLjNoP25urpg+fRrq1KnDTkflJ4iEBNALg+kfDgE14BDyMmR16jKYbDx4ks/GI/n0SeSkpRi0v38HktOrTc3ar7QPH0IRE43iX78x2pTsEhqNBlu3bsW6dd8ZtJ/atYMxZcpk+Pn5sQNS+Qii3NRknNu0Dn/t3qF3AD0z3BJv4mHiTTz4ZScAwN7XDw6h4ZCFPvoqT+LLPxRrk3n10lNftRm7T/07kETOX8Ht7a5w6Rhh8kDSPlRCsXQhio9shHTYQjh06Aw7qdQ4x6NSYd26ddi+/UeD9tOhQ3sMHjwIzs7O7Ixk+UGUm5qME6uW4q/dO8z2mqrMdKgy05H/24GngkkaUB2y0LqQBtZgLyhnSiYWZP7zVZupgueZo4iCfGRvW4/cn3eYNJC0CgUKPv8UUBbCafVBSKpUNdq+CwuViImJMXh69rBhH6NTp068HkSWH0RlEUAvCqYSImc5ZCEvQxYWzmCy8OApGfFYClMHUuG2DbBv0RYOTZsDIrHR9ltQUIAlS77AsWPH9d6HVCrF1KmT0bhxY3ZQsvwgilv5JeJWLbXYBtAU5ENxOo4z8yzEi2a0WWofKgkk9+594dqxq1H26/TBEKPX9f79+/jss7n4668Evffh4+ODWbOiUKMGP7RROQmipLPx5a5RODPPfHJTk3H36uVyFTzP/VBzKs5oQWT0ts7NRVTUTFy7dl3vfdSuHYxPPpkKX19fdl4qP0FkDTgzz7jBY8wZbaSb/Px8fPbZXINCqEWL5hg1aiTkcvZ3YhCVuX/PzHMIqAH7wJpQFGvYOKU4u/FbJJ2NR9aVSwyeMlBYWIjo6EX4888Leu+jd++e6NmzJ+zt7dmgxCCy6GAy8I50a/XbojlshDKi1Wqxbt06gx5mN3r0SHTo0OGFK2cXFBRAqVTyWUMkGOdcElmx48ePY9eu3XqXnzZtKt566y2dHt+QnZ2NXr36YMGChTh9+jQePnzIE0AcERHZsuTkZCxcuEi/NwaJBHPmzEa9evUElz1y5DccOfIbPD090aNHdzRt+jq8vTlKIo6IiGyKRqPBV1+tRFFRkeCycrkzFi+O1iuEnnT//n2sWLESvXv3wcqVq5CWlsYTQwwiIltx8uRJnDlzVnA5Hx8ffP75YtSuXduo9dm5cxc++OBDrFy5ChkZGTxBxCAismYFBQVYuXKV4HIVKvgiOnoBqlWrZrK6lQTS5s2bkZuby5NFDCIia/T770eRkZEpqIyHhzvmzv0MFStWNHn9NBoN1q37DoMHf4Tjx49Do+FtD7aOkxWshEJdjDyVBkUaLXKKVLiYXQB3aQaquzrBV+aAQBdX+DnJ2FBWTqVSYevWrYLLzZo1E1WqVDFrXXNzH+DTTz9DkyaNMWjQIFSuXIknkEFE5TF4CtTFKFAXl7pNTpEK57JKvv7IhEwsQoCLMwLkjgwmK3XhwgXBo6HIyNEIDg4uszrHxZ3AyZPx+PDDAejYsSMcHdkvGURUboPnRZTFGlzJycOVnDwGk5Xav/+AoO0bNXoVbdq0KfN6azQarFmzFkePHsXYsZGoXr06TyaDiKwheBhMtiUvLw+xsccElRk0aCDEYrHFHMP16zcwfPhIjB07Bq1ateJzjhhEZC7FWi0K1FoU/hM6pgoeocEEANXkjqjh6oxqchcEuPAJnJbs77//FrR9ly6dUbVqVYs7Do1Gg0WLPsf58+fx0UdD4ObmypPLICJTBs8DlRpKC14s9XZ+IW7nFwLIYjBZuIQEYc8YateunUUfz6FDR3D16jVMmjQRQUFBPMEMIrKV4GEwlecg0v1ZTtWqVUNAQIDFH1NSUjJGjRqDceMi0apVK53WvCMGEQFQaUUoVKutInj0DaaKTk7wlzvD0YKuP1gzrVaLS5d0D6I2bVqXm+svGo0G0dGLkZaWjp49e0Ai4dsWg4ieSfbPm266QomcIpVNtsH/BxMeT36w54dYk8vLy4NCUajz9oGBAeXuGL//fiMyMjIwbNhQODk58aQziKg0Lvb2eK964OP/J+YVIE1RgJyiYqQpFI/foK2Rs0QMZ4kYjhIxJHZaOElKRkK8a94c8vPzBW3v7e1dLo/z4MFDyMjIwOTJk/jcIwYR6SLAxfk/101yioqQWahEmkKBVMXDcjd6kolFkInFkIrs4GIvgoNYBDG/ty93pFJpua37hQsXMX78BMyePQv+/v48mQwiEspdKoW7VIpa/5qSaomjp2ePcsjS2NpF/NTUNEyYMBHz588rF5MuiEFkNaOn+8qHyFQWGf21Ocop/4ROPHjw4AEqVSrbtd3Gjx+LHTt+xK1biXqVz87OwfjxE7FgwTzUqFGDnYBBROYePd1TKpCpVCNNoUBG4UOdZubJ/gkYjnKsj4uLi6DtMzIyjP7MIaFCQkLRtGlTbNmyFVu3btNrH3l5eZg4cRLmz5/He40YRGQJo6echyrczs97PHoq0mg5yrERTk5OqFSpIlJTdXsK6smT8WjRooVF1PvDDwegXr26mDdvPnJzHwjeR35+weORUVmHK+k5omcTWM/oKcDFGS0q+qFnjWpoWckX/s5SVHC0h5NEzBCyAaGhoTpve+TIbxb1YLp69eohJmYZXnmlrl7llUolJkyYhGvXrrEjMIiIqKwEB9cStP2pU6csqv6+vr6YOXMmevXqqVf5oqIiTJ06DXfu3GFnYBARUdkEkbBnCq1atVqvr8JMycHBAf3798O0aVP1WvkhLy8P06ZNR0ZGBjsEg4iIzC0gIEDQStV5eXnYvfsnizyWZs2aYcmSxfDwcBdcNiMjE1FRM5Gdnc1OwSAiInOSSqXo0qWLoDLff78Jp0+ftsjjqV27Nr74Yglq1RI+G+7WrUR8+ukc5OXlsWMwiIjInF5/vangMnPmzLXY6yp+fn6YO/czvPZaI8FlExIuYenSZVCpVOwYDCIiMpeqVauides3BZVRKpWYOXMWUlNTLfKYXFxcMHnyJLzxRnPBZWNjj2HTps3QarXsHAwiIjKXrl27Ci6TkpKKceMm4NatWxZ5TI6Ojhg7diw6dGgvuOymTZvx22+/sWMwiIjIXKpXr46uXd8VXO7+/fsYO3Yczp07Z5HH5eDggOHDhyEioovgstHRiwU9r4kYRERkoO7du8HT01NwOYWiEFOmfIL167+DUqm0uOOyt7fH4MGDBAetRqPBzJmzkJ6ezs7BICIic3B3d8e4cWP1Lr9p02ZMmTIVN2/etLhjE4vF+PDDAXjrrQ6CyuXmPsCCBQtRWFjIDsIgIiJzaNCgPvr376t3+UuXLmPYsBH46quvkJWVZVHHJpFIMHTox2jV6k3Bx7Ru3TpOXmAQkSkUFhfjrlKJ23n5uJSdAwAI8fBAZWdn+Dg6wl7M9W1tUbdu3dC0aROD9rFr124MHDgYe/bswYMHlrMSg1QqxciRIwRP7d61azf++COOncOSPliwCcpP0OSrVFCo1ChQq1GoViFfXQyFSoUCtfo/24d4eCCklLvSc4qKoNJokP2wCGqNBrlFRSjSaJBTpIKqWM2GtjL29vYYOzYSDx7k4eLFi3rvR6lUIiZmBdas+Qa9evVEq1ZvWsTjxh0dHTFhwnhERc3EX38l6FxuwYKFCAhYjipVqrCTMIhI36DRl/s/j4j2kclK/T2DyvrI5XJ88skUREXNxNWrhq1OrVQq8c0332LduvV4553OaNGiOYKCgiCRSMr0+CZPnoQxYyKRlXVPpzJFRUWIjl6E+fPnwdHRkZ2EQcSgMWbQMKioNB4eHvj009mYO3cezp//0+D9aTQa7Ny5Czt37kKlShXRpcs78PPzK7Pj8/HxQVTUDIweHQmNRqNTmStXrmLjxk0YNGggOwiDyLrCJlNRaNFBY+qgKi1wb+Xls3NYADc3N8yYMR0rVqzAoUNHjLbf1NQ0rFixssyPr1atWpg6dTLmzJmrc5kfftiO+vVfQb169dhByhAnKxhRvkqF03fv4lJ2Nm7l5eNuYaFVhZAuHMVi+MhkqOYiR4iHO+r7+LBjWBBnZ2dERkbigw/6WeXxNWvWTPCxLV68xKIeEsggIiKrJ5FI0LNnT8yfP1evxyxYum7duglal+7u3btYt249p3QziIjI3OrVq4fly2P0Wr/NGB48MM0oRCKR4OOPPxa0ssQvv+zDyZMn2SkYRERkbl5eXhgzZjQWLpyPqlX9zfraY8aMxYwZUfj996O4d++eUfft4eGBSZMmCCqzePESo9eDGEREpKPw8HDExCzDmDGjzDoVOz7+FObNm49evfpg1qzZOHo0Fvfv3zfKvuvWrSvoelFeXh6/oisjnDVHRAAerW7doUMHvPLKK9i/fz+2bNmm81RoY4iLO4G4uBMAgObNm6FFixaoUycMbm5ueu8zIiICp0+fQUKCbitv//rrQbz5ZkvOouOIiIjKUoUKFdC/f39s2LAe/fv3LZObVWNjj+HTT+ege/ceWLBgIU6cOKHX8kIymQxjx0YKOoZly2JQUFDAjmBG4pkzZ8405Qsk7NmBB6kpepX1cXSEj6Os3DSmQq3GbQu5Z8aS2q5k7bvyIsDFBc56vvlKfP0gb9nOKt4cnJycUKdOHXTo0B7e3l64dSuxTFauvnUrEb//fhQ//LAdGRkZEIvFcHNzg4ODg07lXV1d4e7ujvj4Uzptn5eXB5lMhjp16jAhzIRfzRHRc3l6euLdd99Fx44dcfnyZRw58hv27z9QJnU5ePAQDh48BJFIhHbt2qJp0yZ46aUQyOXOzy3Xpk1rHDhwQOcljtav/w6NG7+GwMBAdgAz4FdzRKQTqVSK8PBwREaOwebNGzF+/FjUrh1cJnXRaDTYt28/pk2bgfff74Fly5bh7NmzUCgUz6z7sGFDBb3G2rXfmPUaGUdEREQCR0lt2rRB69atkZqahgsX/sT+/Qdw5cpVs9dFrVZj795fsHfvL5BIJGjbtg2aNGmM0NBQODk5Pd6udu3a6N69G7Zt+0Gn/Z4+fQanTp0W/JgJYhARkRnZ2dmhcuVKqFy5Ery8vNC167vw8vKGp4cX7P9Zl9DcofTLL/vwyy/7IJVK0bp1KzRp0hhhYWFwdHTEe+91xYEDB5Cbq9vEhxUrVqBOnTA4OzvzZDOIiMjSabVa5Oc9QH7eA9y5fQvOcpcyDaWioqJSQ6l//35YujRGp31kZGTi4MFD6NLlHZ5gBhERMZSME0pCp6OvXr0GTZs2gQ8X8DUZTlYgIrOE0u3Ev3H+/BlcvZKAzMx0uLm5lkl91AJXxFer1di5cxdPJEdERGQtoZSbm4Pc3Bx8/fXXqFSpMi5c+BN79uzFzZt/W2y9d+z4ER06tIe/vz9PIoOIiKxJyUSH9u3bP55999NPu3HrVqLF1XXLlq2YMGE8TxqDiIis0ZOz79q2bYvExEScO/c/7N37M9LT0y2ijocOHUZERBfUrFmTJ8zIeI2IiIzCxcUFrq7usLOzM2g/YrEYNWrUQLdu72Ht2tWIiVmKDz7oB29vrzI/xs2bt3B1bo6IiMhSubq6ovZLoVCr1cjJuY/797OQm5Nj0Bu3RCJBUFAQgoKC0L1798cjpZ9+2o27d++a/RiPH/8D169fR61atXjCGUREZLFvKhIJvL194e3ta9RQKhkp1ahRAxERXXD79m2cO/c//PjjTqM9w0gX27fvwNSpU3iiGUREVP5CSYWcnOzHoWTofp8MpZs3byIu7gT27t2L/HzTPsLh6NFY9OzZgwuiMoiIqPyFkv3jUFKpHsLLy8tI+5UgODgYwcHB6NWrJ65fv4HTp09j9+7dUChM89iKnTt3YezYSJ5UI+FkBSIyO3t7Bzg4GP95WQ4ODggLC8WAAR9g8+ZNWLhwPiIi3oHUyKs5HDjwK5KTk3kiGURERM8mk8kQHh6Ojz/+GD/8sBWLFy9Cjx7vQyYzTgAePnyEjcwgIiLSPZRKRkpbtmzG4sWLEBHRxaDHoG/b9gNyc3PZuEbAa0REZFMcHR+FUlhYKPr06Y3Lly8jLu4E9u8/IOhBeGq1GidPnkS7du3YqAwiIiL9yOVyNGzYEA0bNsTAgR8KDqWNGzehZcuWRr8GxSAiIrLxUPrgg/74668ExMYexe+/xz6zTEZGJhISLqFevbpsQAYREZHxuLm5oWnTJmjatAmGDx+Oq1evIi7uBH75Zd9/tj18+DCDyECcrEBE9Byurq5o2LAhRo8ehc2bN2Lq1Clo3LjR498fPHgIWVlZbCiOiIiITM/T0xMtWjRHixbNce/ePfz1VwIOHz6Ms2fPctICg4iIyLy8vLweh1Ju7gM2iAH41RwRkYHK6rHnDCIiIiIGERERMYiIiIgYRERExCAiIiJiEBEREYOIiIiIQURERAwiIiIiBhERETGIiIiIGERERMQgIiIiYhAREZGl4fOIjEhub4+GPj4oUKtRqFYhX10MhUqFArXaZtogp6gIKo0G2Q+LoNZokFtUxI5BRAwic3EUi1HNRV7q7wqLi5GvUkGhUpfroCo5jieDpkijQU6RCqpiNTsBETGILDmkHMViQKb7SKIs3uCtJTCJiEFEArlLpQAAH5nMpEHFoCEiBhGZJagK1Spcys5h0BARg4jKJqguZefgUnY2G4aILB6nbxMREYOIiIgYRERERAwiIiJiEBERETGIiIiIQURERMQgIiIiBhERERGDiIiIGEREREQmwbXmrIS9rx/EXj4QyV0g8amAV51dUCMjDamJf0Nx/x7S7mYiJy2FDUVEDCIycAjrLIe9TwXYOcsh8fWDxN0TIrlLqdtWrBaIitUCn/pZVmYG7qcmIy83B2mJf+Nu0h0+0I6IGESk2yhH4uVj8D69fSvA27fCo/+0aAUAKFIqcY+jJyJiEHGUo8soxxSkMhlHT0TEIOIox/Jw9EREDCKOciwOR09ExCCyYIXFxSiuFYKqTVrY3LGXNnrS5Och+cI57D+4n52DiBhE5pCvUuHowf3Awf2oFFAdFQOqP/r3X6MHa6V9+BCqu+lQp6dClZ6K4ux7kLNbEBGDqGykJv6N1MS/cfaf/1tjMJUWPEREDCIGE4OHiBhEZB3BxOAhIgaRjQeTl19FVKz2KJykMpnJ66DJz4M65z6Dh4gYRPT/wXTx5B8AAPeKleFfLcCowaTJz4MqIw3q1CSo7mZAU5DPhiciBhGVLictBTlpKQYFE4OHLEWzZq/Dzc2NDUEMImsPJgYPWRoPD3cMHToUzZq9DpGIT6EhBpFVB1OIhwdCPNzZMGQxOnXqiN69e8HDw4ONQQwiIjKfqlX9MXz4MNStW5eNQQwiIjKv/v37IiIiAo6OjmwMYhARkfnUr/8KPv54CKpWrcrGIAYREZmPk5Mjhg8fjpYt34BYLGaDEIOIiMzH1dUVa9eugaenJxuDGEREVDZBRMQgMjN7Xz/YV6sOWVg4ZKF1Ib6XBQzuxYb5l/H/u4mkM/FIOnMSSWfjkXn1Mh7mPWDDEBGDSJ/gcQgNhyz0ZchCwyHx9Xt6g3tZbKRn8G/QCP4NGj3+f+bVS4/C6Ww8ks7EM5iIGERUGoeAGnAIeRmyOnUhDajx3+AhvfkGh8A3OAT1ew94HEyZVy8j+Ww8kk+fRE5aChuJiEFkHE2GjEYcvkTSmfhyFTyy0HCInPl8UXMHU1jnrgCA3NRkJJ2JR/I/X+VlXr1k8ccgb9kO7t378mQSbKBQcwAAEeVJREFUWVoQ+TdohPcbbELSmXjErbKsQJKFhsMxtC4cwh591UaWw61SFbh1rvI4mB7mPXjqqzxLCqaSAOKImchCg6i0QErYswN/7d5h1gMVOcshC3kZDoFBDJ5yyMHFFTVbtkHNlm2eCqbMq5cehxMDiIhBpHMg+TdohMZDRuHEqqUmC6SS4CmZ0SYNrMGzbcXBBOCpmXmmCiaRsxxub3eFS8cIfnVLVF6DqIRbpSpoP2uh0QLphTPayOqZcmYeA4jICoPI0EAqmVggrV6TwUOlKm1mXtKZeNy9dlnnmXkMICIbCCJdA4kz2shYwVTiyZl5/w4mBhCR+dhptVqtJVYsNzUZ9/buRKWmzcvNxIKkM/HYaiErK1jSg/ECdhwqF+evZAKEc+59VGjzNgOIyNZGRKWNkNw+GskzRGZTMgGCiMyLD40nIiIGERERMYiIiIgYRERExCAiIiJiEBERke3g84iIiKyASqWCRqOBWCyGRFK+3toZRGTx8vLyUFhYKKiMj48P7OzszFI/jUaDrCxhT+d1cnKCXC4X/DrZ2dk6by+TyeDs7GyyY5FKpXB3N+1N04WFhcjLy9N5ey8vL4jFYkGvoVAoBPUvDw8PiERl82VSUVERUlJSkJiYiJSUVNy5cwc3btxASkrqf7YNDAxAjRrV4e/vj8qVKyMwMBB+fn4WGVIMIrJ4R44cwYoVKwWVmTt3DurXr2+W+p06dRpRUTMFlRk9eiTeeustQWUKCgrQq1cfnbcfNWoE3n77bcGv0bdvf522dXFxwfLly1ChQgWTte3ly5cxZconOm+/bdsWuLm5CXqN2NhYLFnypUlfw9AwTki4hGPHjuHIkd9QVFSkU7lbtxJx61biUz+Ty53Rrl07NG78GoKDgyGVShlERKaydGkMli+PgVzubNLXycvLQ0zMcpsdqUZHL8acObMhk8nY6YwsMzMThw8fxpYt26BUKo2yz/z8AuzY8SN27PgRHh7u6N27F5o3b27WYC0NJyuQVUpPT8fu3T+Z/HV+/PFH3L1712bb+eLFi9i8eQs7nBFlZ2dj7dpv0Ldvf6xb953RQui/r5ODmJgV6NWrD3bs2IGCggIGEZGxrV+/ATdv3jTZ/q9fv45Nm/gmvGXLVpw8eZIdzkDFxcU4dOgwBg0ajG3bfjDb66rVanz99RoMGzYCp0+fZhARGdtXX62CSqUy+n5VKhW++molG/gf8+YtQEpKChvCgFFQdPQiREcvQn5+2YxM0tPTMW3aDKxcudLsoyMGEVm1ixcv4ujRWKPv9/Dhw0hIuMQG/odSqcT8+QugUCjYGAL9/fffGDlyNH777XeLqM/OnT9h6tRPzPqVM4OIrN6yZTGCp1c/T1ZWFr76ahUb9l+uXbuOdevWw0IfcWaRLly4iMjIcRZ3nfHKlasYP34ikpKSGERExvq0vn79d0Z5g9Rqtfjuuw0mu4Bc3v30027Exh5jQ+ggISEBkyZNtti+lJ6ejgkTJprlK1cGEdmEX389iD///NPg/Zw9exYHDvzKBn2OhQujkZiYyIZ4jhs3bmDq1GnQaDQWXc/s7BxMnz4DWVn3GERExvDll0sNughbUFCA5ctXsCFfQK1W47PP5gpaEcGW3L9/H1FRM402EvL3r4LWrd9EREQXvPfeu+jcuRMaNmxgtHu7UlJS8fnnn+t8I60+eEMr2YzU1DT8/PPP6N69u17ld+7chdTUNDakDu7cScLq1WswZszoMlsOx1JDOiZmuUEjDIlEgk6dOqJJk8YIDAyEi4tLqdsVFxcjNTUVly9fxp49e3Ht2nUDvgk4h+3bt6NXr14MIiJDrV37LRo1aoRq1aoJKpeYmIgNG75nAwpw4MCvCAsLRdu2bdkY/zh8+DD++CNOr7IikQgDBvRHmzZt4OHh8cLtxWIx/P394e/vj9atW+PixYtYv/47vWd7rl+/AfXr10dwcLDR24UfVcjmfP31ahQXFwv6FLtqFWfJ6WPJki9x/fp1NgSArKx7gtdMLBEaGoKvv16J7t276xRCpYVYeHg4FiyYj+HDh+l9DKtWfW2S+/IYREbk36AR3l+9Cf4NGrExAMhbtkOVryxvFHHmzFkcO3Zc5+1///13nDt3nidUDxqNBvPmzUdubq7Nt8X27T/odV2offt2+OyzOfD39ze4Dvb29ujcuRMWL46Gk5Oj4PIJCZcQF3eCQVRewsiWA6kkgLxHTIDE188i67hs2TLcv3//hdvdu3ePExQMlJKSipiY5VCr1TbbBmlpadi5U/jahx06tMeIEcPh6Oho1PqEhYUhOnqhXhMavv/+e6OPihhEDCSbCqAS+fkF2Lhx03O30Wq12LDheygUhezQBoqNPYZ9+/bZ7PH/+utBwWVeeaUuhgwZAnt7e5PUqWbNmoiKmi643J07STh37n8MIgYSA8gY9u79GRcvXnzm78+f/xP79u1nJzaSmJgV+OuvBJs7boVCgR9/3CmojEQiwYgRI+DoaNrHa7zyyiv44IN+gsvt32/cvwsGEQPJ5gLoScuWLS/16ZwKhQLLly9nxzWyefPm6fSVqDW5ePEvwdeGBg4cgMqVK5ulfl26dEGlShUFlYmLO2HUZbMYRAwkqwqgChV8n3lfRWlu375d6ldGe/bsRVJSss77ef31puzcOsjKuocvvvjSJDOvLFVcnLDp2jKZDK1atTJb/RwdHTFo0EDB5S5dMt6ivwwiBpJVjYAqV66EMWNGCyqzevXapxZ3TE5Oxrp163VvF7mzXn/I1qBz506Cy8THn8KuXbtson1UKhV+//2ooDJ9+vQ2+xNTGzRoAG9vL0FlLly4yCBiIDGAnqVJk8Zo3fpNnbfXaDSP7y0qLi7G11+vFrQGWGRkJLy9vW2y/zZq1AijR48UXG7Nmm9w/rz1T4lPTk4W/LVc48avmb2eDg4O6NLlHUFlYmNjBd2PxyBiINlEAD3u1CIRBgwYALncWecyp06dxokTJxAbewzx8ad0LteiRXM0adLYpvtu+/bt0aFDe8Hl5syZi8zMTKtuG6FLQlWt6m+2a0P/VrduXUHb5+Y+QHZ2DoOIgcQAehZvb2+MGiXsk/rSpcsQExOj8/ZOTo4YPHiQza+lJhKJMGjQQAQGBggql5eXh+joRVb9SI2MjHSBo6HGsLOzK5v3Hn9/wX05O9s4E08YRAwkqwqgJzVr1gwtW74h6BOekMc0jxkzGj4+PuysAORyOSZNmgiJRNjylRcuXMSWLVustl2Sk5MFbV+tWtUyq6tMJkNYWKigMvfuGefxEAwiBpLVBdCTn9QHDvxQr6VMXvzJtRFef/11dtAnBAYGYty4SMHlNm/eKujr0PIkJ0fY0kaenl5lfg6FKO3WBwYRA4kB9C8+Pj4YMWK4UfcplUoxdOhQiMVidsx/admyJSIiugguN3fuPKSkpFpdezx4IOyZTKa+gfVFXF1dBW3/8OFDBhEDSb9AsoUAetIbb7yBpk2bGG1/o0ePQoUKFdgZS2FnZ4d+/fqidm1hjwpQKpVYvHix0T5hWwqFQtiDGMv6w42Dg1TQ9kVFxrkfjEFUzgNp8M9HEda564tPtLMcrm9F2FQAPfnH/dFHgyGVSg3eV6NGr+KNN1qwAz6Hk5MTJkwYL3hBzYSES1i/fj20Wq3VtIWzs7Og7cv6Rt+HD4U9hVUmc2AQEeBWqQraz1r4zEASOcvh0b0/qnz1PTwHDrepAHqSn5+fwV/RSSQSDBkyRPAFeVtUpUoVTJw4XnC5nTt/wvHjx62mHYSs8gEA+fn5ZVpfoY/rcHAwzleJDCIrDSSJSPQ4gNze7wuRs9zm26hVqzfRsGEDvcuPGjUClStXYmfTUdOmTdGrV0/B5ebPX4jbt29bRRt4eLgL2r6s76u6dStR0PZC7tVjENlgILU9dIoBVMqIZtiwoXqNaOrWDcebb77JRhSoR4/3UbduuKAyarUaCxYsFDSV3lJVrlxF0PaXL18ps7oWFiqRkCBsdXRjrSjCICKbUqlSJQwbNlTYH4lIhOHDh5nsuTDWzMHBAZGRYwR/cr5582+sXr3aaEvIlBU/P2GTWo4f/8NoM9GESk5OErS0FQB4enoyiIj00a5dW9Sv/4rO2w8fPhRVq1Zlw+n9ZuyHKVMmCy63f/8BbNv2Q7n/4COEUqnE1avXyqSuQtf+CwqqKfgaGIOI6B8SiQRDh36s03ImL79cB+3atWOjGahBgwYYOHCA4HLGXOG5LFSuXFnwDdU//fST2WcOPnp4n7AV0Y356BMGEdkkf39/fPzxkOf/cfArOaOKiIjAa681sqljtre3R4sWwqb7Hz/+B27cuGHWeh47dlzwAwtfeuklBhGRoTp0aI86deo88/dDhnyEgIAANpQR35RHjhxptOsK5YU+N1P/8MN2s42KFAqFoOdvAY9mywUHBxutDgwisllSqRSjRo0o9Su62rWD9Xq0AT2ft7cXpk//xKaOOSwsTPDNvUePxiIu7oRZ6rdz507Bo6F33uks+JgYRETPULVqVQwe/N+nq44cOQIODg5sIBMICQnBkCEf2czxOjo6omvXCMHlFi1ahDt37pi0bqdPn8Z3330vuFzz5s2NWg8GEdm8jh07IjQ05PH/Bw8eiJo1a7JhTOiddzoLekRHede2bVvBZRSKQkRFzURaWppJ6nT58mXMnj1HcLnWrd80+lfWDCKyeVKp9PHyP7VqBaFjx45sFBMTi8UYOvRjVKpU0SaO18/PD+++K3xUlJqahkmTJuPmzZtGHwlNnDgZRUVFgsu+++67Rm8fBhERgOrVq+PDDwdg1KiRRv3um57Nzc0NkydPspnjfe+9rno9GysjIxMjRozC/v37DV4UVaFQYOPGjZg2bYZeIdS9ezfUqFGDQURkKu+/3x1BQUFsCDMKDg7G6NEjbeJYvby8BK/qUUKj0WDJki8xfvwEnDlzVnAgKZVKxMbGYsSIkXpdEwIerZv33ntdTdI2XEaYiMpU+/btce3adezbt9/qj7Vly5Y4deo0YmOP6VX+ypWr+OSTafDx8UHnzh0RGhqKypUrw9XV9anZn8XFxcjOzkZSUjIuXryA3bv3Ii8vz6C6T5kyGW5ubgwiIrI+IpEIgwYNxJUrVwSv/lzelCy8e/nyFdy9e1fv/dy9exdr1377+P9OTo7w8vKCh4cHsrOzkZaWDrVabbR6Dxw4AOHh4abrA/wzIKKyJpfLMWnSRJt41pOHhwfmzp1jtHXagEcz7JKSknHhwkUkJSUbNYTat29nkgkKDCIisjiBgYEYNy7SJo61atWqmD17psUHb4sWzfV+dAqDiIjKpZYtWyIiootNHGtISAi++OJzuLm5WmT92rVri8jISLPc2M0gIiKLYWdnh379+qJ27WCbON6goCAsXrwI1apVs6h6DRjQH6NHj4Kjo3luZWAQEZFFcXJywoQJ423mfi5/f398/vkidOz4dpnXxc3NFXPmzEaPHj0gFovN9roMIiKyOFWqVMHEieNt5njlcjlGjBiO2bNnwc/Pr0zqEBHRBatWrUTDhg3N/tqcvk1EFqlp06bo1asnNm3abBPHa2dnh0aNXkWdOmH49deD2LBhA/LzC0z+uk2aNEbPnj1Qq1atMjt2BhERWawePd7HpUuXcP78nzZzzE5OTujS5R20bt0Kf/wRh+3bt+POnSSjvoZIJMJbb7VHhw4dUKNGDdjZ2ZXpMTOIiMoRXR5v/uQn7PLOwcEBkZFjMGLEKINXBnh2O4kEtStgnnaVy+Vo164t2rRpjcTERJw9ew7Hjx/HlStX9Qw4R7zxxhto2LAB6tSpY9T7mAw+B1pzPxydiIj0lpubi5SUFGRm3kVGRjrS0tJRWKjAgwcPUFysgUwmg1wuh6enB/z8/ODr64uKFSuiYsWKFnvfEoOIiIjKdqTPJiAiIgYRERExiIiIiBhERETEICIiImIQERERg4iIiIhBREREDCIiIiIGERERMYiIiIgYRERExCAiIiJiEBEREYOIiIiIQURERAwiIiIiBhERETGIiIiIGERERMQgIiIiYhARERGDiIiIiEFEREQMIiIiIgYRERExiIiIiBhERETEICIiImIQERERg4iIiIhBREREDCIiIrJt/wesNpFyBkIl3wAAAABJRU5ErkJggg==;" parent="1" vertex="1">
                    <mxGeometry x="70" y="55" width="66.35" height="50" as="geometry"/>
                </mxCell>
                <mxCell id="61" value="" style="endArrow=classic;html=1;exitX=0;exitY=0.5;exitDx=0;exitDy=0;entryX=1;entryY=0.5;entryDx=0;entryDy=0;" parent="1" source="4" target="23" edge="1">
                    <mxGeometry width="50" height="50" relative="1" as="geometry">
                        <mxPoint x="620" y="230" as="sourcePoint"/>
                        <mxPoint x="450" y="190" as="targetPoint"/>
                    </mxGeometry>
                </mxCell>
                <mxCell id="62" value="" style="shape=image;verticalLabelPosition=bottom;labelBackgroundColor=default;verticalAlign=top;aspect=fixed;imageAspect=0;image=data:image/png,iVBORw0KGgoAAAANSUhEUgAADwAAAAhwBAMAAABikNZBAAAAMFBMVEVHcEwoZ+RVU1M3NTU3NTU3NDSowfQ2NDTy9v7o7/xFe+h0nO7///8zbuU3NTX////DhoWtAAAADXRSTlMA+x/du1Tij+7S6OBkh9tr8AAAIABJREFUeNrs3b9qI1cUwGGjWs20DgNmuwU/l0my7xE8YBBsYWQiEG5SZHErEpmAcWXBwKI2YV4jjMFwMt7FSda7tkdXoxHI31eoVHFu8eNc/Zm9PQAAAAAAAAAAAAAAAAAAAAAAAAAAAAAAAAAAAAAAAAAAAAAAAAAAAAAAAAAAAAAAAAAAAAAAAAAAAAAAAAAAAAAAAAAAAAAAAAAAAAAAAAAAAAAAAAAAAAAAAAAAAAAAAAAAAAAAAAAAAAAAAAAAAAAAAAAAAAAAAAAAAAAAAAAAAAAAAAAAAAAAAAAAAAAAAAAAAAAAAAAAAAAAAAAAAAAAAAAAAAAAAAAAAAAAAAAAAAAAAAAAAAAAAAAAAAAAAAAAAAAAAAAAAAAAAAAAAAAAAAAAAAAAAAAAAAAAAAAAAAAAAAAAAAAAAAAAAAAAAAAAAAAAAAAAAAAAAAAAAAAAAAAAAAAAAAAAAAAAAAAAAAAAAAAAAAAAAAAAAAAAAAAAAAAAAAAAAAAAAOjP4E1ZLs7OzsZF81KWbw6MBAA2rslvE95R3CvuC1wqMABs1rA8O/7c3v/UxUSDAWBjBuX4cXwf3E6uzQcANpPfeEYtwQDQvcNn8/s5wVfGBABdGi6ihdpnwQDQoXIa7RTuoQGgI4PFKNqqJ+YFAF0YjmMVkysjA4D1+zuN1RQKDADrWuH6+d8fBfsgGADW7G+kUGAA6L+/Eb6KBQDJBjeJ/fVlaABINvwY6RQYANL233GEAgNAz/vvNNYzOTBEAOi7vxEnCgwAvfe3KbA5AkDv/Y24swMDQO/9VWAA2EZ/IwoFBoB2Drvrb8TtlYECQN/99XAkAGjX31GEAgNAv8qu++sWGgBe9Lb7/iowALzU39iIWoEB4GmL2JD62nABoO/+KjAAbKO/DQUGgP77q8AAsI3+Rrw3ZAD40uAmNm9izgDwRX8XPfQ3agUGgL73XwUGgK301y00APyvv+MIBQaAHe5vxImJA8De3nAa/To5MHQA9Hc6CgUGgB3ff+/dKTAA+rsFHhAMgP5uQV3YgQF4vQ5HsS12YABeb3+nsT2FAgNg/13N8fHpu8vG7Gh8rMAAsIoysb/16dH8oqqqrJFXv14ejd1CA0Bbi8T+nl6eZ3lePVjm+YfZVIEBoJW3af0t5hdZ9UiW/TlLu4muFRiAV7b/pq2sR+fVtyzzv35IK/C1owBAf1/w9zyrnpDtz9JWagUGQH+f99NFXj1pmX0YKzAAdN7fn8+rZy2/+z7pfUsHAoD+PundC/1tCryfVuD3jgSA3Te4Sevvsqo2VeCJUwFAf7/d3zyv2hT4dwUGgK76W//YYv/9ZP83BQaAr/r7Ma2/WdVWbgcGgMf9Haf1N6/a258lFfjE6QCwq4Zp/Z1nK/S3WuZpf8mhwADsan+Tnplwu9L+u0aB7w4cEQD6+9Df+Yr9vf9fyrRbaAUGQH/X6G+zA/+StAMXCgyA/n56/MIfCf1tCvwPe/fT0liWBnB4cF2buxmYyAW3gl9qNoN/GPwW0o5CgwupGQXJRhqCCzdBM8gUrmwQmrtVzteQhBHsxF7MVJVVpW9ics+9z/MFOukc6uf7Rs+tYgX2gGAA9Pf58Ueh/k620MEZWIEBaJK1UA53rqL9VWAACPf3PE2h6J3YQgOgv2/fP3fLaQJcKTAA7XYb+qOgnen6O0nwfajAw2sfGQAN8Guwv2lq1f12aAZWYAAa0N/Q/nlv6vl3igKbgQFo6fx7OIP597nAy+uh/74CA9DG/h7NqL/jAt8pMAD6O+/+Th5PGCvwgQ8PgFwtxfq7VaVZ6myEXsWxzw+AVs2/W900W52L0G9iKTAAec6/N6HuzXj+VWAA9Pc1/S3LNPsCX9pCA6C/3+nvZpHegwID0JL+ntSpv6kqL0P3geyv+CgByEjs8b+jzTK9l7L/pMAANL6/kXlzOHi//oYL/KjAADR7/v1pULxjf1NVnv6swADo75f753edf58pMAD6O//+pipW4JECA1B/a6H+Ply9f39TKk5jPxx88rECoL9TFTg0A+8qMAA1728ocDtn8+nvuMA9BQageW5j/T1Pc1P0bKEBaJrVWH+75fwCnCoFBqBp/X2qf3/HM/D9x9A1mdc+YABqKfb438NumrNqeV2BAWh5f/fm3t9xge+3Q69VgQFoSn+PFtDflIq7dQUGQH/nL1jgWx80APo7zRa6E/se+NhHDUB9LN2E+rtVpbS4Am8oMACZ9/fX7Po71rkMvWoFBiDr+Xe4udj+pnR3ocAAtK+/5YL7m6rSDAxAvv39mGl/J1vofqjA+z51AHLtb1GD/k5m4NDt1fsrPngAFupD7MkGtZh/JwUu+qECPyowAIvtb6Rfo0FN+ju5FCu2hVZgAPKbfwdFbfqbqvI0NAPvKjAAefX3oUbz73OCYwX2gGAA9He6LXRwBlZgABZhLZStnau69Xdc4J4CA5BNf2Pz73n9+ptS1TuxhQagyfPvWR37q8AA5OI21t9uPfs72ULHCnztKAAwR6vB/qbaqnrboSu9zMAA1L+/Zapxge9jl2qagQGYl9jjfw9rPP8+b6GX10PvS4EBqHN/j2re3/EM3NlWYACa1t8q1d9dbAY+cCgAqGl/t7opB51YgY8dCwD0d6ot9EXoN7EUGIB3tXQT6tNWlXIRm4EVGIA69rfIpr/jGfjSFhqARvR3M6P+TmZgBQagXv39LdbfMuWljBV4f8URAeA9+vuxHf0dF7ivwADUxYdYfwdFShkWOHTX5qMCAzDz/saeFpTh/Dv5TaxCgQHIub+DLPs7uRj6NFTgkQIDUIP+XuXa35RKBQYg0/4+ZNzfyQwc+6Hjk+MCwGL7O8i5vylVvdAMvKvAAMzGWihEO1d591eBAciyv+cpe1Vv2xYagKz6+9AtUxMK7HtgABZjNXQp1E4j+ptScR+7fuTawQFgKr8G+5saolreVmAA5t/f0P55ryHz73OB70MFflJgAOY9/x41Zv593kJ31hUYAP2dv7tYgQ8cIAD0dxrBGfjYEQLg7ZZi/d2qGtffVHU2Qr+JpcAAzGv+bWJ/JwW+VGAA5jL/3oSK08z+TrbQF7bQANS2v5tlmZpa4L4CA1DX/hapuWJb6Kd9pwmAV/f3RH+//h64vAzdSrK/4kAB8Cqxx/+ONsvUbEVsC/2owAC8rr+RSW84aHp/UyoVGICazb8/DYrG9zdV5WloCz1SYADep7+jFsy/zwkOFviTgwWA/k7zPXCswLsKDMD3rIX6u3PVlv5OCnyiwADUor8PLervuMC9E1toAGbb39B6deesTf1Nqer5HhiAWbqN9fc8tUzV2w4V+NoRA+AFq7H+dqu2BTi6hR6agQF4ob9Psf6WqX2K+/VQgc3AAHwp9vjfw25qpSpW4CcFBmAW/d1raX/HM/DdtgIDsKD+HrW2v+MZ+C42Ax84bADo71QPCI4V+NZxA0B/pyrwRej/27EDB8DE0k2oI1tVarvORuh3oRUYgEl/Y/PvVpHoXJqBAZjn/DvcNP8qMADz728pvs/KYIFXHD2Advf3o/5OOQP3QwXed/YA9Pft/fX97//+Hrjsh+7Q3jcDA7TXh9iTbc2/nxW4ihX4UYEB2tvfSDlGA/394lrK2BZ6pMAA5l/9nWoLffqzAgPwrv190N+XZuDT2A8znxxDAP3V32kK3AvNwLsKDNA2a6Fg7Fzp7zfW0AoMwGv6G5t/z/X32wW2hQbgnebfM/393hZagQH4vttYf7v6+90Z+D5U4OG1AwnQEqvB/mrsjwq8rcAAzLy/5t8fF3g9dCWHAgO0Qezxv4fm39cUeFmBAZhlf4/093UF7oQKPDxwMAH096X+Vtr6SrECPykwgP5+bcv8+4YZeCP0//jY4QTQX/2dqsAXoS20AgM01tJNqAxb9s9v3EJfmIEBmL6/pb8/emuBLxUYgOn6+7RZCOq8CrzvlAI0sL+/hebfTeNv5Hvg8jJ028n+ioMK0LT+ftTfuRa4/6TAAPzpQ6y/A/vnqPI0NAM/KjBAo/obe1LewPw7xRDcDxV4pMAA+qu/0yhiM7AHBAO0vb9X+ruQAu8qMECb+/ugv9NvoU9PFBhAf9/WX/vnWczAPVtogLZaCyVgx/w7mxlYgQH09y39PdfOWc3A2woMoL+v7W/X/Du7Aoe+AhgqMEDOVp/0d+EFvo9dgnLt+AJkK/b430OP/53t98DLoS30kwIDZNvf0P55L4/5t5rcklnk8VLv1hUYwPz7A0d5zL9Fr7/xz7/9O4/LqqMFPnCIAfS3Xjr9P361abSVx+uNFXh47BgD6G+t+rv+fxvz3F6xAgM02FKsv1tVFjUrLz/7zjqLLXRnQ4EBzL9597c6/exVb+bxm1idy9BnosAAOc2/N6FpazOP/qblz3+7e5jJtV2dCwUG0N+X+pvJ9RvVlyHby+SFl30FBmh0fz82ur9fDsBjudxc3YkVeN+ZBsiivyeN3j+n6pev7w7J5WeHsh+6G+VxxbEGqL3Y439H2cy/6e7rhg2zuTxTgQGa29/Iv/DDQTb9TacvvP5/ZfPqi9gWWoEBmjn/5nGj4x8b6JeebPCQzc8PVXEamoFHCgzQxP7mM/+m+xcn+PN83kAVLPAnxxtAfxfoLy++h79n9A6CM/CuAgPUtr+hf9h3rnLqb/WfF9/Ef8usCnyiwACtn38fznNqV7p7+eH2Dzm9h1T0YgVeccgBGtPfnbOs+puWv/E+zjIrsL9GAmh5f7spL3/+xhv5a15vo7rfVmCARlhqR3/TL994J//I7H1UvVCB3UoJUDe/s3cHr20kWRzHwacEDEtfwqZNg49ZWJi/KRcj2wT/C9kcjNdmkHcPZog3CF2MIyOCL8KxMQ57mpupi5nI1D+Rg2jFA71KxmGzs3ptSaOuVr33/fwHJav806uqV/XzbPmbxZZbV8JQ9mIbSXLbmOVP9k++6gCwUGZ6//cguvp3/DUc0R2Dvl+FnimB/82XHQAWyF9n+Ve+F1/+eicdXhpEF8A+6c+yCs2FHACwQGZqAD508WXWuJcY7gO4G+GviX6Dg1gAELOl61nyN8L6d9xbwNE9iPS9dJYE/hffeABYELNsAG9GGVhiF1KkAezSsxn+dh/4ygPAQlieJX+d1xXAxWmcA0rf8zISAERqlg7gzcQTwPEm8K986wFgAUzfAZxvRFr/enekLoBnSuB9vvYAULvlGfI3izWs/I2+AHZZj0VoAIhQy1L+aqyARzXw9AnMlZQAULe/TJ+/SbxR5d9qDOBRDTxtI3f+ga8+ANRq6jeQhhHXv6Oo+qgxgL1Lpk7gId99AKjVtCewhucx56/SCvjLtZRHnMMCgKgK4Gnz9zLu/FVaAY9kR03OYQFAPKa8g3IQef3r/ZHWAPZu2gR+xdcfAGIpgOPPX6c3gH1y0uQcFgCoLIC3L2PPX403Yc2ewLQiAUBdHk+Xv6fx529JALfjH5w7mepMOy8DA0AUBfB2V0H+6g7gUQ3cogQGAGUF8HZbQ/5qe47w/xL49id2gQFAVQG8rSKfvF8R12O7KsbnbrcogQFgwU1zBHpPR/07CmDpnNJARwCPauDGFCXwKtMAABa6AD5QUv963xcDWMkvDJ+kDXqBAUBJAXyoJn99qj6ARz8yGpTAAKCiAD50arLJOymA7/QEsJuiBt5nIgBAYEsTX9qwqSh/vZP6dPYyRYNM13kUCQAW1aOJ87ftNQWwdEh4V9Uo07NJ/7wfmAoAENaENzbkqurfUTRdCQN9rWqYPn0/YQD/ylQAgKAeT5q/WaYrmd4JI/2bV5bAPS7jAIBFNNkRrHwjUZZLYgA/1zbQSWtgOpEAIKTlptH89b+ofQzp94vt2fsmx7AAYNE8nix/M3X566UHgS/VjdQlPY5hAcCimeQIVn6ur/6VX2PoKhxrdtTkGBYALJRJbsEaniusf8XXGHKv0iQJzG1YABDOz2bzVwrgoc4AdpMk8D4TAgBCaZnNX+k5pIHO0fpkggRmDRoAQnl4BXp4qTR/fb+l/SroqWtg1qABIJRrs/Wv9+mWrQAe1cCsQQPAomhZ7D/6VhFaC+AJEpg1aAAI48EVaMX5KwXwruIh9x+8E2uVSQEAITy0Ar2XeMUBfGXhLYaJlt1ZgwaAwB5YgR60NYeRG/9Q34bqMa80WYMGgPo9sAKdn3rVjm28xfC7o9APHLpbZVoAQPWelf8zfp3pDuA/Gwxgn51xHzQA1K5leAFaDGDlZb9Py//qn5gWAFC5JdML0N7fmBz2A4vQvEkIANUrf4lwL9MewGOfQ8q72oedbbEGDQD1Km1CGmpfgBZeY9AfwA+chN5nYgBA1VpWr+D4ths6NoD1j9uf0YgEAHVaNn0Ca6Q/duD6A7i8BGYTGACqVroFvOENaNoMYJ8cswkMADUq2wIeOAsBPG4N/s7CwNOyEvglUwMAqtW0XgD7LasB7I7ZBAaA2pRtAQ+6ZgP4s4mRl+0CswkMANV6bPgSyvs68MpsALszNoEBoC7XpnuAxQD+0cbQV+gEBoC6tCxfgiUH8BtvwxabwABQj7KLoE+NhNC4ddgXNobubtgEBoB6lGwBDzIjIXRsN4B9X14ByVeZHgBQnWfWe5BG3hqu/pMzTmEBQC3kM1h5mwC20IkkB/ArpgcAVKdl/QiW8DKumQAuOYbFKSwAqE7JNRzPzUSQ6QAuuQ2LU1gAUEcAD7tmAviJ6Qq4ZA16lQkCAFX5EyvQYwM4txPAbotTWAAQ3jUr0N7fWD6BVrYGvc8EAYCqtDgDPbYCHhoa/gqnsAAguCXxNZy7zHYA29kB965FAANAaPIZrDfedAAPLAXwFcegASA08SJKQ4eQxq7BWgrgsafAOYUFAJUSL6IcOEMBdGt7CdqnTQIYAAK7pgnpSwXctF0By5dh7TNFAKAaLZqQhAC29APEv5O+Bp+YIgBQDXHt8ZIANuSGY9AAENYyW8AE8PgPgGPQAFBLAN9lBLAhmbQJnK8ySQCgCmIX0oYngA1xZxyDBoDFCODnBLCpT+AXAhgAgpK6kPIuAWzqE3hCHxIALEQAG4sfAjiVAvglkwQAqiC1Ad95AtjWR7BFIzAALEIAvzFWAZtfA/BXNAIDQEBLnMEigH87Bn1MIzAABLTMU0hf3VIBHxHAABCQ1IVk6img8WeA+QjurTJNACBcAFsr/whg+TLKD0wTAJi/Z1xEKQWwtVV4RwADQEBSG/CusfB5O+YzMBbAYh/SPtMEAMIF8I/GAnhcD84bPoOvXjFNAGD+pDbgF1R/1u4i8e9oBAaAYJakfT9jy68pLyJ7/5YABoBgxNeA27ay5yO/QuQ+JBqBASBcABtrwRG2P3dtHQVfkS5lYZ4AwNzRBlzWAjts8ylwEwcAVOIRbcBfCuAz6SiaqY+h36IRGABC+UH4l7tnKnlSqfQbcBScRmAAqITUBvyaAtheCewIYAAIpsVjhCV7n6MS2NRhNKkR+BMTBQAI4AocF7JTAphGYACYP+kejvySFWiDv0SeEsAAEIh4D0eXADYYwLfcxAEANQfw0NTh36uSAH5hajNcuoljlakCAPP1mPabksO/5gI45UVgAAjkGfdwPBDAG5YCmJs4ACAUqQ14lwA22RBNIzAA1BzAxA6fxPdeMlUAYL5oA/6y81kWwLbWAs64iQMAwmgSwKMAbhHA9wF8TCMwAASxJLWd2Ln/KUnSk2ZJAH9OksROAj+lERgAghDbgLs2Cj6Xnlysra2X5G8xXFu76LQTZyOAnxDAABCE1AacZwYqX9+5WNvZKat+v30aOzujEPbOQCXMTRwAUG8AD5QHsEs6J731YirbmxedRPsPk7SgERgAQhDv4dC98OxP1tabxdTyg7XzttO9GM1NHAAQhNQG/Fnx0nPW6TV2ihnlO5udruI6OOEmDgCoNYDfqA2Y9GKtWfwxBxcdtbvBTnqX4hWTBQDmqWXqBQKX9HvrfzR+f9sO7jqlVTCNwAAQwpKURqcq47fT2ynmZGezozOC3xLAABCA1AactxUuPp/0WsUcDdfONS5E0wgMAHUGsL57OJJ+76dizv5+oHAhWgrgnNkCAHNkpQ04Sedb/X63EK2tCl6RdiVWmS4AMD+PbARwcrReVGR7U9lqfb9JIzAAVO8H4Z/tnqIAdtlto1lUJt8+V7UOnbRoBAaA6kltwLuK8jftVRi/XyN4s6MpgbmJAwACkKqdfyg6+7xeVG57Q89OsHvHTRwAUF8AP9dz9rlZBJDvddVE8DsagQGgcuI9HJdayt9GEchQTVPwRwIYAContQEXKtqAXUW9R9JOcFvHTjA3cQBAfQE8VFH+dhpFUNs6iuAV6RfGKhMGAOZF8z0cScjy9/53y6aGp4JTGoEBoHLSPRx30Qdw9c1HY4vEw278P136WwQwAFTtWus9HC708vN/l6Hj/+1CIzAA1BbAr2PPkJOtoiaDjUxrAL9kwgDAvChtA86OmkVt8tg3gt2xMLJPTBgAmJemygBOe0WtDiPvRzqmERgAKrYkFXFR38ORrhc1O4j7gaSnNAIDQMWkNuA84ns4XL9R1G77MuYa+JYABoCKSW3AebzxUePxq/85ihXzYehbbuIAgJoC+I78tXwYus9NHABQsWfaAjg5aRYLIo/4hcIWAQwA/2HvfFbbWLIwDlnFkE1vzIxEg5fZ5Znuxjgyxq8QsjB2PIPubEJiE4Q2JrEIQRvjP5hsZxdqY+bK1DsMdyFa8UIT33hyE9vVXao6p7r75vd7AEmtovvr79Q5X+niGgP+3Fb/e9AY/b1W4LZ64IwkDgCAmgS4pTkcWZP0N4UHznUmjs1HxxU955YBAJAhbQ5HlmX5T6S/2gqcZZPDw6HKX8ogMACAMi7BGmvYqs7Z2dmhogSbpumvbhU6H60+ff1ydV3j9Id3CDAAgCrOHA55ATaTo9fb82Ln5anJfxL/q+qBzeTpzeXu9OTr0MsMAgMAqOLK4ZiJ53CY0bd0DKUD+0wT9VfNA5vLNc3saZcAF9wzAAAiuMaAp9KiYbrf9dVONVKiGqq/Sgr8w/85n4t/hXMQeIWbBgCgVQLc+UEvduQVuLH6q6PAnTXdLQOSOAAAdHHlcOxKC8bxLYGXFgwzaqz+zufb4qmU+fHtN6ZUSRy/ctMAAEjgGgN+Ifw4P7hzVsFQuCI7mDeY2Vja7t/5ig1ZjXcOAiPAAACqAvxGswD9tRNLUjDM5ea80UzHopfbvWv3hS0wSRwAALoM0owBX9zzFZLbwJ2G6+8XfRxa5cuVjU4xJHEAAGjyIE0Ox712SlCSOmvzxiNYc7+nAH29bS9bgz5AgAEAFHGNAReyO7Tde3V+T0ox7nQkNZJ9sVndzr1/ZyE7uk0SBwBAHQIsnMPxm6rKm6N5K1gXeuEwxyn27bskcQAAKJJmDNjV0PMilynI9tshwFLjwF3H9V6JLtolg8AAAIo8nKd4lrtCHUQssLlsif5+uV6RvjOXAZ5PRcsW+QABBgDQ44krhyNPsZ0oYoGb3wAtHD/Sdb5wiHbOmU0GgQEA9HCNAe+JPsp/m+v1erWhAVq0Fdq4O842RDeBXYPAz7htAADicZUZRWdKnZkOAhbYnMxbRXwrtNsAC8eXfSCJAwCg5QJs3QIca4HNwbxlxDZilRjg+ZXoqpHEAQCghzOHQ3YKqSSmOW4W2HT7bRPgIjKTsuyKZXvXLxgEBgBQw5nDISrAk7JTCqIscJsasGQCwMoM8HwmO4eEAAMAJBfgmU0lwFEW2BzPW8huzDZwp8zyF2mSOFa4cQAAYllKMgZ8qWQI27cBHL0N7DwiQSG/bEISBwCAGo+TCPByuRyFW7RBOwU4Io+jU3rJwjsHmwgwAIAWnxQDMnwFOPgc2zZuAEe6/grPL+uASeIAAEgvwKI5HBUCHDry1M4N4Jtt4Czwryx/55B1wIYkDgAANdKMAV9UpEPlCmbwr7kNXPEqI3yGFYPAAABq9JMIcIVshEUYdwZtFuDZWNSTqjhgBBgAQI0HzrCIlA44qOUrP563mqBQ6G5Vd1eeZN0YBAYAiCVNDkelbgRY4HYXoAOL0FUGWDgJy7luCDAAQCxLSRKVqgV4cQvcHbRdgAOqDJX/o7AAOwNUVrh1AAB0BPgq0YM8WIzyj/PWs/AsUqUBnn+2sutGEgcAgBKPk5yqY23liQm7+U9WgL5mf8HXnOqDJ14IrxtJHAAASnxK46TMprAFbt8ZSALnInnMPW8IC/BHkjgAANIK8BthAa4uGC9kgTsKBeidKk0v+jUXoT3eOsaJ1u13bh0AgDgGiR7k76rnYod1FqBnq2enVV1du2dHT6W/d5GToDwMsHAOh/vkBwaBAQDieNBPI8CVSRyLpU/LRnAU2/unE5Nn/cofmE0Oj15t19UJ7WGAhZugrT1AgAEAVHCOAQ+FH+STvqAFFs2A3lldf59f65ap+om719+d5aPVV5JFaCN51dI9WM4XJwaBAQB0BHgqXMr06MLyL8eaZUH9Wz8d3hyLUC3AX39flh2erdUQx+HTd/aLtAC7DnIuuHcAAKJYSlXKLD9GfjELLHYIYbGz/j7Lc1+T/q1NLM/saK2fuAjtY4AL6fcmBoEBAJR4mEqAvfybpwV+JyR9q73h92cCdqp+4ffhJCYfrQpJsGf7t88fuCu+bBYBBgBQ4UmyJ7lPDdrPAguNAG+dDrPFtql/fCsxnZFMIbrYyKX2vcUr0O5l+5WbBwAghk+pmnms/U1oKEcmg/JVz2a3K9tVAnzr1GLzxQW/TjYM7PPaMXsvv2wkcQAAqOAa5/mX/JPcZ3TIwwKLjADP1of54o3a99TlO0cS+9Ee7x1eBnhPftXsB8d3PefmAQDQEOBz+Se5n4RUSpFAB1axdZiFeMz7Nsazw5P4irhHH5aPAS7GCgJMEgcAgAbOHA4FAfYrolZpiInvwNrpmdxKCfB1VkX8VnDllrv5KPGajM8mAAAgAElEQVQpIVwgwAAACjxKNs7ia4GrRKQT7Tfvqz5HCXA2OYr+UVUvPN25wMuL6CAwSRwAABoCPNN4lEuUUaMzsLZPTbDIOWez8lFsNlZFH5aXAd7LVRbNtVAr3D4AAOEseUy8NsoCX0Z6zZcl5/9V5mtN3Vc2iT2loTwP69LHAA9V3ppI4gAA0OBxUgH2O0NhHDlMXGav14cm4ryIsnzOTmQZulQ+vS67p7Nmk00EGABAnk/xBxMtZIF9RohKxN9cxHVfnZqoA5vKBNjElqFL/nKvv23LWJ01I4kDACChAO9ZJXwahnuLuzHP8rOJOzGxPOci60SVoUs2v30mr1RGkEq3n59x+wAAhDNIFml48zT36cNyNiTFZXDsD3OrKcBfhPJEZRTJa/JKqQDNIDAAgA79xALsp6Gudl6vLWSXQ3QM/y4kwFVtTnnMRrDTw/pMXu1mFgEGAGgPD1xacK4mwOYkWIpiMjim1Q6x+t2gqBJgkx1EvCNs5cG949Ohmv46kzgYBAYACCdpDscCG5q7RtgAz049KrTxAmxtNopQ4PtPRVquNsCzca63YF0EGABAnKWkORz/3wYehO1oRhjgrfNcojru0+iUXYYHU04DX1iKnqL+2onra1e4gQAApAX4SvOBbkYelu4er9kN9pZbY68RnWqB9+k0NhEK3At77VDVX5I4AAAUeFyHAHs1Yt1tKgoPodwael2OkRFgm02CFfjuVq7xiP7aN1ZVgEniAAAQx5nDofpEt+YowNX5DDDdP/479HydEBJgazrBCnz3qjfr1l+SOAAAEgpwT/mRnle3Qt8+2ifYAG95Nwi/FRLgCAW+nbXl8UFbQ6u8Wq4kjt+5gQAAQkmdw/GnsBx7CMsfVegs0gBv+fpfH4n3TZsKV+CbEWgzyTKbZaMG6C+DwAAACvQjhSZCgT2k5XSYZYejYZQBXkCfPI788/5fghX4Zhe483T99HB0VN12NtVfKvt3BBgAQJhHqXOFv1eo6s3N2erqy9fbXz1hoAFexB9KCrDfuLMzhfv6dWPn9bbHfPN5ri/AywwCAwAkEuDpe/2nuvE+WOFaY8xb5frzNdUC/Msi17cWbIG9M6+L0wT66zyMuOAOAgAIxDUGPE3xWLeXnnO91zPBYSFYi9VnPRzwxkLXtxlqgX3tvm4AB4PAAABqPKxVgM2Bp87s5mEhWAvWZ6UF2Cdw5F4L7F29TqO/1iLAAADCPKlnDPhbYoVvpbUXZIAX9YfSAvzl+oIUeM+332zXpFknyyAwAIAwn+oVYGs9z8+dnSTQX5894Dc2gQLPgmOztPiIAAMAyDKQ0Rndk5HEQqWCjV74H5Od6F2f6glIP5YGPjh+wnNuIQAAWQEepxJgE37Agnx91lQL8D8Xjvw61rq+ItUGMEkcAADiPOjXLcCh26Q69Vl5AVb0+Pvp9NdeIMAAAKI8Cj93Pn0jln59Nq92458b4/G3Eq4RSRwAAIkEOEUOx58cN6Y+qyHAocNIjWnA+iOGzPUzuIcAAIKoN4fjW8yDQpE2bH9URYCtVfD4xXnaJWIQGABAFFcOx1XSp7vPkfPqDVileRORAqzQiNVLukJ2MkCAAQAkcY4Bp328m4OG1GfnOgIs34i1m3aBbE4SBwBAEgHes4k5Fq7PBvq86o++aoTHT7sBXJbE8YybCAAghEH8mT9NzOMIrc+qCbCwx0+8AXyNK4njH9xEAAAh9JsiwKIWMbg+qyfAsh6/l1x/7X8YBAYAEOSRS/XeJ3/AC1rE8PqsjwDn9Xv8K5N8eZxJHAwCAwAECbCrxGlrQMoiFhvB/rDroe7BH34h5fFn4xpWp4sAAwAkEOBZHQIsFRgVkdCoKsBixzLUUIAu+WtWuI0AABZnqRFjwLJF6JgGYVUBNkJF6N06Fsd2GAQGABDkcZME2HYkitDFOOK3X3rUf8M/3nT7bS1Al6SVIcAAAAE0JIfjmwHt11qAdh858L3A5zV7/F49a2NI4gAASCDAvVqe8TZ7V3NChbIAS4Rep4/gqEji+C+3EQDA4jQmh0NqVKeI++U+AhxlI+M9/nle09q8ZRAYAEAOlxyMa3rIR9doIxuULjwEOGpE2rxrZQfWNX9DgAEAxHikIjJRReiPcQ1KQx2RkftvIovQRV2vRu7qAIPAAAB/BQG2cWfXxzYo6QuwWe630wA7O8QL7iMAgIVZEp91jS9Cx1jg6IhGfQG22XE7DbDtzJlDAgDQFuCr+gQ4ZhQpXp4SCLDpDFppgK3tI8AAAFL8W/TQeeV502r2ouXp7f/YO3vWOLIsDIMjCwRLJ8LupkDhZPOblBivBjG/YRwIRlrT6w21iEaJkWYxopNF9iCscDNTiRhJiP0Li4Om2hP0zqzW4w/pdp977qk6p8XzxCOrSz1Vb52P970dqHzJotmG4xdzjREYAMCMlA34uacAH3ptYMl+d3mZ3Vd32R1n83OMwAgwAICZAG95PufXvDawuhJgfZfdcTY/Zzr/nhsJACCXUcROZ1+rTh1V3+UCrN7D8hwNXF8fYQQGADDiQbQcjhuUS0oGH7o+6WYOq93Deu76vbxEgAEAjEjagA+uI7Y6218Q7kqAtXtY+64CTBIHAEDbAjx5tXwCbOKQ7UqAtXlYrrP59OiaOwkAIJOViLs+MhW0PYUwS/stBLi+8uqyl7w1YAQGADDiYcAcDuV5BVOTrrnIg2yzofZ2+QSYJA4AACtSLqQd3+e8RoD3qiUT4MHyCXBNEgcAQMsC7Ltse63YUDI6pV4kwDaDWE2j3Xc5jiQOAAAzQtqAr+vzfGnavO5OgI1+lyKNY/rKV4CPE5/rL9xKAAA2Anzq+5zPj8KyWtsWCfCe0e96vVxBWNfppGyMwAAAeaymajDnQuvKqwDuVIAVaRy+LqR0awIjMABApgCHjPy/Th+7k27NGpWGInvuXuV0md4FcHJxDAEGALAR4Inzc77O3RBuNo2kqS/RxB2bX5bttmo2nL+XdGtinZsJACCHlaiVVvaG8HTcYQVsJMDZS1i73l9Luml+xs0EAJDDNyFzOHTi1OFY1ubP089tQDdj728l/X6CAAMAZPGu7SFnhyZZm8/cnQDn70D7F8AkcQAAtCzAm+5P+vwN4cbEOnXZlQDnH4cUoABOR2X/h5sJACCHmDkcN4/6w1yB2rZIieoPOxLgfAvSxL8AxggMAGDEMGbk/9zUw3aPQ7rsSICr/BzKCBXw9SMEGADAgLA2YKkSfvWxt8qFURQBUi7AtSLt2iz/owSSOAAAWhXgAB1ojUIZnEg46EaAFTHQMXrQySSOdW4nAAA5K0FzOOZt+8zfE647EeBiJcx2IIXpQfdn+JAAANoTYH8bsKYD/b/17aoTAe46AitOD/qSJA4AAAP+lXiYfvAX4DWdRBUXiV0IcH2ue7sI0YMmiQMAwIB37UYtdt6BNvAiXXUgwLoG9O+vFwfu+ksSBwBAmwK85T9qVNaIxU1oUQU87TjkK9AXk/zw77mdAADkxM3hWFNrVDMuUuDz1gVYtd8dZzh/hBEYAKCYB3FzOI71IjU5aF2Ai2xag5H+2gIYtB8jwAAAxayGHTXWBSJVFoglEuBZwS/oPS24tAC9CZI4AADaE+Cpe501KBGpojHwheg36P9AJQ3oEAcipb6aZp0bCgBAykpUt4vWJ2sQiNWyANdXw7JLc383IokDAKCch1FXfervZ2V1oj4Q65d2BbhfeGUBxvNDBBgAoJSUC+mDe9xSoUoVNKH/3aoA905Kr2wHIzAAwP0V4OfeD/mLUpnSB2LJBPjUZQAcYzyQikj5GzcUAICUUdC4B3UMloEX6bhNAe6PZn6vFm07xPAhAQAUC7D3M/6yXKfUXqQ2Bbg6Kb8u/zAskjgAAEpZjZrDsWagU82bqkUBVv2FDBrQETbkzhFgAIBSAY6aw3FoIVQ6L5Kw+63KwxgMLa7LPQxrjSQOAICWBHji/IgvNSGVZFa0KMB9m8ty708k3yPWuaUAAGREzeHoD22USuNFak+AC8NF4pwVeYkRGACgkD8FnTKeGynVdNyaAP/QeQRWnPejHgIMAFDIu5hZDwYmpI9vEvljYGH7O1+ArRrQ/iN6kjgAANoS4H3nB/zISqpme1UUAa5PzC7K+0Sk5AvSM24pAAAZo5gP+IGdVDWnVTsC/MLFgRRkREASBwBAIUFtwBeGWpUfiCUT4L3cl4qR5UU5V8C/IMAAAEWs2h92G2sErPEi1bJVqcwxeXVieU3eb0jnGIEBAFoR4MbZZ2pZLM6aTC+SUID3/BrQ/kP61Ixgus5NBQAgYSVmh3NgK1aZTehWKmCbCKwwQ+DkN3TGTQUAUCLAvo/3+tBWrGa7vTYEOOdvZOdA+lhqOidxjBBgAIASvokpwNZqlReIJTyIKWe0XL+2viLnIXDyK0KAAQBEvAsZddgfWatVViBW31yA65dDcwHeiynAf+WmAgAoEeDN+zQCzh0DC3OoM7oE5g1o/yZFaqf7PTcVAICEkDkc5iPg3/lOrleX1gJs7ECKMAROfkcYgQEARIQcMNq6gD96keTvFMKFZfGBCNYOpBBD4EcIMABAAashD3zvD9vQK3kT2liA60Er1+M8BF4jiQMAoA0Bvm8j4KylKWMBbmMA7D8Evkr9r7PObQUAsJiViMfNmp1ar/UiXZmeydva5Ux82xQkcQAAFPAwVVzduxFwjhdpzVKA66thS5fjPAQmiQMAoICUC+nD/QmC/pzt2lSAXRvQv7Hl+i1hBAYAaEGAn9/DEbC8Cb1m2AKuT9q7mph9CgQYAEDAKGJt9bg9yWrGHQtwSw6kCJN6kjgAAFoQ4HHEJ3tnXiShAE8FAjxQttMbu9eJtjjCCAwAoOZBxPUe2UkMPyoV+O9VlwJcPdXmdok2tzzzyupzjMAAAGpSNuDpgeOTXRbDsandbXqzWIGFbePmoLUG9HZPdHmuR2aQxAEAYC/Arg5TUf05PTjXepHMZHOxAGsjsJrx9WH4IXDy4ta5sQAAFhEyh0MkPb9W6jODd2ujCni2SIDVDqTdSrYK7poYmjyy4owbCwBgEQ8DhhzKYjj2CxKWF3mRxNFVCybl9WvtrvZvyn45MvgE7X5RCDAAgJqUDXjHs7AayXq0+m3phYFYRyYVcP1S+4awV0nfQzzPY6hJ4gAAMBdgzxyOgXj42dcmZm0fGDTBF9af6o93M6U+l3XiA7YqnnFjAQAsImIOh0h4drIq1cwmdG0iwHo7882nEy2DTzwr4GOMwAAA1gJ86vhcP5YbYNVLTs1pVfwRFgiwPgJrkmOH9vSLXSDAAABKVlNFluNyrUh3/h+BUSByB20LsHpF7OO/KqvDNwL2KjACAwAsFOCA7pbLYcbos1KfNDQvEEt8HOK4BQfSp7HuQN6LjzWtR4ABALQCPAn4VP/KhJTzX+eOgcUCvFHuZJqT75z1KkISBwDAMrES8Kn+Mq/0VG86TeaUr1IBTu6q1VfqBvRulfUe4JlZljSMnXFrAQDM59t4AizaHZ5YjFrnBGJJ28fP7RvQnwdlXgQ/EAkjMACAlndzgiAi72B99oLQO2yhCS0V9Q/mDqQvPtSgrA3ePggwAICxAO8H38Hasoi7SBePV9n7UlYOpC+3s2vJpTluYSXfM0jiAABYwCheVSWq+k41JyfIA7HWxP3iuwV4MNIXwNnLYL86CvAhRmAAAB3DeBH/j7MP4dPPWxNeJHEQVqKGrvQN6ElV5b4JTB0X5n5BgAEAVES0AUvEb/cLzanX1HrXbFXaMXR6DbqgAd1s5Id5eG5hrWEEBgCwFeDgOVhfyWbvrc3I9Y+SWr5YfdcQWL+X/dWbhfCvEXBe0KxzcwEAzGMlXg6HZKXqVs1XInm9ghHwH5GYRh3xWxcmGgI7nkh4OcMIDABgKcCONuCBZupZ4Pq5w4tU5xTUt3rQ9Wv9Z9mpNBNxx2+LJA4AAB0pF9KHKtxUcf7eb8Ha8XRc0IG+rX71S301Pj1QvY849itI4gAAsBVgx6amZAdr/9b7Qe9IX3Z+7UXKTHEemzWg74w/kbxZvEKAAQDuiQBv+T3R3+ZrnrHuZQZ7bFs5kO5cCNP+PbyTON5zcwEAzCNeDock+2n6SnuEg8SLlH2M0edD5AIH0q3d7hskn+aFX8PiCCMwAICCB/FKKsn89c6lo15BCTwZf/oX6+yN6ulppf/hZCmdMwTe9RvZP8YIDACgYDWnxIyzg7VTFh85fwys6GV/OtewpBGeyNOQRGNP4u3MIcAAACoBdnugi1q4dytV76REgV/d2IF7l081P31aV+ofXlDGSobAjkcCJwv0dW4vAIA0K+EqKkkKcyons6T9O9t+U/d6vf4/dBLafPfmp/5PPxfUv+lAScla+IHfyIAkDgAABQ/jJTu81Tdci0rgWfPkyc//fKK2E//45MmfS379HRkcGa11xzBKkjgAABQkczjiPc8lK0f6g4FvJHjmyDRZxEoK+32/LwwjMACAoQA/j5ctLCn36qPZ0rKZbDpUgsa23xtTckT9jNsLACDNKFwOh6TfmvZIlSwh+zJnjUq0hRVvaI8RGABAIcB+NmDB2QNN4Q51SLbmKOgjZTQJSRwAAFFZDbdUK1mCnrch1lvSEnju1psgiqMZh+tZYAQGAMgX4Kmfq0XQbt2ZJ+CDpdTf+fopieLYCCfADfcXAEC2ADseb/d9odbUJ8sowPOjJGvBH2XTL4ljSBIHAEAu8XI4BMXe/GqxKIzZzYI0vi59qfA7wDkZ3n3GDQYAkOLbcNn+gg7ygn2jZbQi7VXFm2l+0Sn1ECMwAEAu7xRT1nY5L3fcXI6WTX8ni0buV4LXEj8jMEkcAABmAvyD29NcsAS96O1g+axImwaN+ZmbD4kkDgCAfEbRVmolmRMLQ0KWLY1jUlusprn5kOpjjMAAALmkCqvTcO3MHKVZNivShsl7iZ8P6QIBBgDIZDVeO3Px/FaQ+XT5dpn0V7DxVl8IFrlI4gAAWHoBbtye5f3Fw06JRWqZrEiiDCtBQrbfGnSq4dCsc4sBANzNSrgcjiuTgnGp0jhEli+jF5OOvdtn3GIAAHkC7FdMCVxIL0RF2dJYkWSpn4LW/MRtbpD0fSHAAAD/Ze9+VqPYtjiOQ0YnIFx60miHggy9I5/JiWhCyCuog5AbkZwzEW9EikyCGiRkEjyRoG8QaiKmQ+E7OGiqcwZ1j3pyjbF3739r114dv58HSHW6qfrV/rPWNrilLYBdjmJw2u07O904tpy+a5ddWPkW7ikEBgBPx1GhkMKeVM4MZ6QUaeR47IXUmwkBDACaA3hF3aPcu+PTrHTjWCnE5ubz/WqmFffP3GIAMJm+Phz2pU7X6fHZOBjYebubQ2nzY3XtyygEBgCDmMKYbvfTXmhE6RjAVX8WSpGOCsFvJttr03UKgQHAi7EMONt2Hof6Xedzb3szUIrkfuqUw+R8vjokOnEAgFAAq3uSB02P6+/G4TPV8E5xANOJAwD8zKt7ktt3TnmMzl1qmvLa8Pii7f/MONvExaClEBgAfPxm2uekbjdP2Oh8oHwIPN72+GoctkFnW7qv6cQBAF5MVUhn2Xbz2OdZfXqEaO/GsVQITPNSCAwAVyeA89Wz2APY6+VA98HAfr0jHbZBr6h7cXrITQYAk5TaHuS1vQz4uXRraf09OP5hf5nI9uJEJw4AkAlgzWXA+zJzowp4NtyuhGcHRAP4JZ04AMDDnL4+HNLrnNWC2vz1/ZYd9nTnO8SKQmAA8HFNXTmL/TRg38+m92DgR75paS/RGqsL4Ia7DAA8AjhfGfAN+WYTWrtx+E8z2JuU6OtgRicOAJhEXx+Oj/IBrLUbh/+Jj/ZXiXwBbKy4fs9tBgA/+5e2pUSHsPQ/cGBQasxfrx4ciXaoSf5yJYXAAODuWNupOg5lwA9StLfM0YMj4Nux7+jOd4wknTgAQCCAH6t7jEeVKGvsxjGqkryeLGX75ejEAQAe1PXhcIjKgFXOqq8vgEOGqtVegoVlKS8oBAYAZ3Pq+nDYl2uDthnp68axFhSUJ4oLgU8IYABwZqpCardzPcXtZcCjoPlRbaVIgZ1O+ooDmE4cABAfwPn6cNjbVoVVSGnrxvGoSPX11Np+OjpxAMDP5tU9xZMN8RZUlSI1gVMM9jqkcb4ANn22RW40AHANYH0LiRd2GQVu0lV1MHDoVqlhkj1qMoYlnTgAwNUt2QlSAZ+SFbo6ZJfmHhzfFIoDmEJgAHB3LDvKFLCXLIA1deNYCn3BcTiQcJ8ABoDZDeB87ZSsARN+UKKebhxBPTimF9sq+O2ML0+fudEA4LJyZvoZSkyxqunGcRQ+w28/q+JBtgCmEwcAODPtWz3KFsApd/kWSkqRYra42V8i8i0f0IkDAFxdU3emnb3MJqZC6lRFN44mZpXWXgicbwPdAp04ACA2gLMNogabKYePPRVD4KiEHCpuhWXsxLHIrQYAP9LXh8PeMfKsSJrvikuQphfbRnYKS/r29J5bDQDcAlhfP2Ghk4o1dOOIPK5oVW8AGyutCWAAuOQ4xSgzcQCvxA3SspcijeLOubBvEx/RiQMAZjaAs22krT6kLnPN3o1jKe7lxqFQOttJVrXps93nVgMAtwBeyTYCtk8RRzZ6KjIPgaMniO2dOLIFsPHEKTpxAMAl6vpw2OOliQzgajdvAMc2iqySv6JEfDY6cQCAm7lEIRfxCLe2go4+qThvKVJ8kW5fbwDXNygEBgAn11KFXMIVznF0gtkrnZT24Ohmm1rMr9cngAEgKoCbQm8AxxfZVG9meQBcn1ov8jzbCHhIJw4AcDKvrpLUXuUqUKKcsRuHwOzwwHqRx/n6mLUUAgOAi99MIZftCV5b+zyddbHTS+0W6NqlW/aZvp+PAAaAHxzre4Jb02VD4CLZVoG3OnlH2cj3872jEwcAxASwvkVE2flV+0qz2i1YHc3SS3+xD7nZAOCiUts2Wof5VZHPduKdnc+Wf7aaYwa6k31q4pP7FAIDgFMA5ysktZ92e7uby/zU3rG4wLkgKMXauuoA3iGAAcDBnLpehg7JKPNy4Dt43ZiUad4HO9xOOspUUEVWUwgMAC709eHoqs2T7yLw5MVb77MNZV4erFcd6fv9Gu42AHAI4IxTmB/sc8HdjCKdvhHPgmKhz249zynjC5Rxf/kitxsAfKewD8eNjsLlg18AG06H8uypNepoliBfK2/zK8l7bjcA+O5Wun6JybYny0yvVn77p0yp7/lnhF5sNAdwVVIIDAB2x+oaOdhXVYVCzK8Vh/GNpFoV+TMq18llF9cJYABwCOAH+TopvVAZwMZAq3YyBLD9s9/WF8Cfud0A4LtS3/P7TUcB7LV9aso1B6XH39mqO/rs+X7A+hOFwABgZ3qQH+kbQEm3WfQKzpUi4o3hFwvgGwQwAFiZqpDa14oDWGgad1jGb8Hy7qkltLZeWT/7Sr4AXqATBwAEB/A43+Pbvqlpo6tRpKULVsg2LKkA3uxoqC0ZwM0iNxwAnJtPW66aJoC3Og/g6UU9PtuwhEbvnX1JQVMLFAIDQHAA5zvNziFbhHZoe+yCtmz7Grr/pb+6CuCNfL/gcJUABgAbhX04hl0FcF9kC5bnNiyhHdz2hfIzha9Qv3PDAcC5Y30TmPbzhW53HcBjSwPnyn0wLdWjeW8WA/g+NxwA2AI4YxGLfXOyzIfzOMfIPp3rvg1rv6MAzrmI8IJOHABgU85iAHeVYe4XrE6c/5bQ28NMBjCFwABwbk5fK3+HHU1HaSdKQ9Zt3Zt6CNUhfVIcwMZOHBQCA8A5Uxlw8zpjALfdBLD71mWHnhbu27CEdmF97Og6QU4JYAAIDeBCcwDLvB30pbZg+XXDarZFPr39zMZa309IJw4AODc/Q09v4QCuXrhGplNJlvuE9orIt/RBdQDTiQMALG6aFhBrffOX0gG8KrYF6yvnblgyi7PWAM7YTNS8KZwABoB/mKqQzjI+vO2TuR1dxm8x1XkblswGt1PNAUwnDgAIDeAtzQHciGSE866pJek/KNIksptvKfTLNfXpesgtBwDflPrOsrNHi8jYzrl3lfOmKfdtWPtXPYBrCoEBIDCA9zUH8KjTAbDzeNV9UflRddUD+CUBDABTaezDYS8PEgjg6nRTdgtW7XUo4VLRQQC/VvgbUggMAN9cS3xigNYArgarwluwvm7Dcj+R4ai42gFs+nQN9xwATA3gnF2UOgjganDXebD6PEVlcTuKTuBT1QFsLARe5KYDgC/mZzOAIz9d79Q9f8c+favc57Xb0WEv7p+wDrd1BvB7bjoA+OJmTO+nVKwtJuI6WVSDXfec9Av7occfbpa3e0kiTkUA1xQCA8BUx2lP7NEYwL3de22bKIAXfP5y+yRqEKw8gN8RwAAQEsCPcz67TxIGcG948NQrJb22o/W9/nTbPDmqgv8V66nJzVHOH3GPThwAMI3GPhwJA7gavC1bz5D0Kcja8fzj7fryq97VDGA6cQDANHMa+3CkC+Dezr3Wm8dXUb30//Nry4GnEw50B/AOAQwAU5iqkNrtnM/uj0kCuCpO7276B6TPZICxA/LUnFw7DJqHto6A875F0YkDAEICOGsfjjQj4N6rg82Q/PWqAw4J4L8j+FnIbixrK5Gs3czoxAEAU6ksA04xAq4GB3fbMD4HM64GXmO0vO3dHXq4qnoETCEwAIQE8F9ZA/i6dABXxW7Q7PO3i3lcqAy9SPsf73lo5SNg4xI1AQwAf7ulsQ+H+Ai4t/tnG85jNmAYcRnvqmDlI+CKThwAMIWpDHirvjoj4GJ4UMYEY+N+sYU26kJ3XvckR8B5A9jYieM+tx0AmAP4j/qqjICrwe56G5eL7hvS+nFXateXPSJY+QiYThwAMI1paHj7qoyAPftORi6lXo+9Vrv2dvuqjIDpxAEAZnOmnUlZWziIlSFVxfBeGZ2JHm8jL+Iv1jxx3Y1lHVLEafsAACAASURBVAHn3YRl7OhNITAAmMuA87bxlwrg3vBgvW07DODqjcTlGsfulNpHwKcEMAB4B/C4vgIBHF75G7ojrVqVueBoebsQGAFnDmBjJ45FbjwA0NmHQyKAoyp/Lx/NWHQcwG7dKZXXAdOJAwCm+LfKPhwC5wF/6TvZSnH+Ngal2DVbe3dK7SNg4+cjgAHAWIV0Ntsj4Eps9tlvPmC4KXjVsW0e2n4aUt4AphMHAPgHcN4+HJEj4KrYfSqZhO4r4gutqPXDetoo2H4aUt697BWdOADASGcZsD2Ap41J4/pOTuS6J7wvfeG1wypmBJw3gCkEBoCZC2BrkI3MfScHB2WbK4BPxK/c3DkqitARMAEMAFrN6Vw8DA/gXnTfyaj3kb0E1zZ3p7QH8GudPyOFwACgtA+HfS11ZJp9vtum4NoZ+12Sq4/eTt6NNdhUHsB04gAA3wAeFzqf3NO3RfWGd8okCdhudFwG7Nadcqg9gI2HMy5y6wH41Sntw2EfAY8nVv6ut4k4no5clak+QPNsQnfKBfUBTCcOADC4aaryqZUHcJO48jfshcQ6JyzbndL+LWUO4JpOHABgYOzDMWMBXBW79xKGn2sAL6T8DO1/D6vebAWwsRD4d249AATwZM+1B/CPhUG9V3+2SY3dkqyf9lM0j36sCvafJ9ASwA+59QD86pSWAdcDnwCuUlT+XkqybQ0B/KUq+OI8tP4AphAYADwDOHMZsHn77M8B3Kt3n7bJOX0h1cvkn6O5WBWsPoDrHQIYACa6FjfgyxnAR/9f/L3bdmAlasAnGsFrh+ej4JC94nTiAADNAey45JmhfuVSAPd275Rd5G/7OGrJU3oe+rCIbdiZuZ674d4DQACrLAN2OOdn/2vjjXSVvyHbwlP14TB1p/ygPoD/x97ZtLaRbGF4yGoGsqlNmNumIcuZVX5TNsK2CPkLYRZCTjLIsxHOmMFoYxIJEbwRTjfhzvLuQm1MotD/4TIL00q46FpxEn+ppOqoPo7Sz7OY3aCO5Oq33lPnvMUgMADAfH6UKsDFUgG+X+gkDyV4tkkcB8GeZzJLp3wnXoA1AgwAMJd7qwU/eXROS6X1vvI7+fstW5LxNCDdTC0V4I+xf0djTWCXxQcA9ebNatHH/kiXCvDjV52Qcmd1Kh5UgKfl/rF4AS5I4gAAqCTAfxRSnVMsrPrC7wh7aAEC/JIkDgCAeUjN4SiUNAG2GQTWCPANSOIAAJjHrc7iIVsc8AX7Sy2wHot76A/RBfgEAQYAmMNtq6BlUWeH8WguUWD9Xpz+ChDg9yRxAABUEODoAUqFPhYnZtNWL12ov3vyHvlxdAE2hXWVd1l+AFBnfhI7BixRgBcqsB4cCHziP6PvpIyJKn+z/AAAAZbYuxPgWoNvUeCj9dJfCQL8EAEGALiJ2BwOoQI8bQ3nfzNq0BH5vA/inyWQxAEAMIc3Yo1T8S+RgjY9PUrn+l+Z+ht/nMx8P8Ujlh8A1BmxY8BiBXiuAuvDgykCXHEQ+CnLDwAQYJHv7TtCJW3aep2uSf3ZLj3EN28ZBAYAuIlpROQ1ArzAA2fpNf8rVn8lCPAJg8AAADcwjQGX8XM4jAEOEhT4igdWYuvPZz+kAAHeQIABAKwFeJLGf2+P5QrwdHLJAyvB/tfuBolYP+RdFiAA1Be5ORyyBfhSFVpy/dnyDkXfP2SHQWAAgOv8aMrhKATQEa3A2+rTQ6Yj2Y8pQIALkjgAAG5gGgN+jAAvLe5mMwVOXk1lP6WAUoZxEHiXBQgACLDAHA6zcZKibU1dJFuyn1HEWYLxXqt/WIAAUF8EjwGrsXABnpb7g03hjzidDJXcUFEGgQEAAZY3PaoT+eI2nXbkP+Kk2YuuwO8QYACAa9ySOj2qB401ELf1oLsdW4HvMAgMAHCN20KHV8av2ginM9r7kX9OU6RKyQoEAARYWOvOC1TTKZF76hgEBgC4jtAcDv0QzXTKx8gbKgQYAOAavxhejE8ihwdz/vt9BVI+ZBAYAOAqQnM4DpFMx/xFEgcAwFoIsND3NaxnHod+aXis31iCAFBXZI4BJ1SgnRP3F33OIDAAwBVudSS+rvVz9NI5T6Ja4BMEGADgCrdF9uwk9EB7aMOKuqciiQMAwE6Ao+ZwaFqwvJwCx9xUmdraSeIAgLoicQxYbxyglj7Yj5gJTRIHAICdAMfLbdDq/SZa6YedrFCxftYDBBgA4DL3pHXsqPGIDmh/dLNYLpgkDgCAK5jGgCNFB6fJCPvrtxWrsd3Tkia7H7EIAQABvsz9GOY3HY/2sL++ae80h1oF98GmJI6nLEIAqCcHUgRYq2QwovkqjAuedvOsF1iD3zIIDABwCWMOR9AppFQVyaCxhfkN2Y/VaGTDs29eh6pHnzAIDABwCdMYcDABVkql/X7eaLfRxOC16Harmff7Yz37EfwPAiPAAAAWAjwJ4nuV6g/yUWOrhkVgOfuNSbfRnOlw7+zniCHA07ssQwCoIzHGgM/91sz2bm49a4upyI7C7QNO8yzLRU1blTvdbreVZ0PtTYQTBoEBAC7xa2gB1io5c72NrXbZLuWUYpvZ2bagCBQAUj4ZnqmcLsaDzbawY+92u5ENPUnw+CECDABwgWkK6bEnAVaDUUNWq3PZbWS99JPo6GQU4hP3exebkVFjT1xUR9NPZLQmiQMAwEKAt728gtPBpjC92Wlm/UsdSMlxgPpz73I9QPVzad3fZeu1DxOsTd/tf1mGAFBHQo4BnxnMUpTQPGtkhUr1lUd86P1Tj9LrrWjjfEvWvqTMfCjwcwaBAQCiCLCWdcfCrPI8Z/hm4Ptz54Rs61T1ZVXmy6aHI4ifEWAAgK/cMto0D/orx+XNuq76Kk2rRBa7kraeYSQr6eebcmaTym33CnyHQWAAgK+YxoBL5zkccu74nXVdzaKQ04rjqt4M8GcJLtTMB+99vwps+mZL1iEAIMAXjULO377+D1dtu67y/sLYJ88W+GhZHraUnqxT573QY5MA/81CBID68VMoAdbHElxdez8bLs17OvQqa8u+WDm1aPc3QncYBAYA+MIvhlfih1DnfwF51sh72kJUEp8O1Oqa5bQYSKhFO+8DIIkDAOArbwIJsI5dgJ7MKs92Nw54rUFbiprSs1p05O/MdRqa8YvdZSECAAL8hQffkwEu261sWNhPtr7zuA+okBmWFv1R3DuijgIJ8G8sRACoH4HGgGMa4J1Gs+LV8xtiTKVSUW9Jdm2BXzAIDACwTIAde5+NaOa3m/d15btu/Une4+o3R40Ho1gBJqXjRugTBBgA4DO3w7x59fM43reVz27Xq27j/B0Cf0NlIdWznqydKD54O8xBBEkcAIAAfx2WcZzDEaECPWk0M6VTp2eV0U5VlUoGjQg9WY6n0TY6JHEAAJwTaAw4dAW6LFt5v6eU67PKiDVdrVV/MDoI7IMdB6IlDAIDAIQV4HdBVWOn2+wXutDuzypXt+UrCNrZvygtBo1nQTXYbTOeRoABAD5zz1WvULzB2htdV82sp7Sfs8rVS7qrfpVKJ3nIniy3aVjGZvhdliIA1I03QQR4fBBILtqtvF/Mv+RIiACvrmdapf3BqB3IBzsuhZDEAQCwRID/CNJ747i8e155Fh0b4kTPZtX1JNB8sNtDYP3S8DFPWYoAUDdM1vT12sVgdfOslxZpUQMB/nxnQz8fBZBgtwPh7xgEBgD4xC3TG3wY5LXr0v72tF6DHYPLiq7WIfLF3GaSksQBAHDO7biFR5f01sKyu52vTgI44L+CzKORxAEACPDn9+H6NUE/WAsBdpswFmK82m07nrEb4C6LEQDqhWkM2G0IfxABdikU2lsQh9sj1ZO1E2BjP/zfLEYAQIDdC3CQIEqnj+wvutppsMXztRNg46k1AgwANcOYwxEmfkFse5M/y/77ulUWnoQR4F0WIwDUC9MYsONLcELkcJRHa7FjcGrUq/Rglc/2OgIE+NjwMY9YjABQLw7CJAB/i55NGhVv/7kfSdkq/rMcCnCVHqzTZr+fN/Zil6CNVXPmkAAAAfaQvvANZ8A7zb5S48MqQvjnWnQXuzTqFXqwTocqVVr1881OVAHWJHEAAMww5XA4voSuqgCX3e2hKtI0VYODKMVdn8ld7oy6tu/BmnyR/bNNTcUES8cO+IRBYACAHxbkcLh96VZsFmrlvS8X+epBJ0JxV/vsLnYnaPaV/TK7+G5Ukle6TOl3t38LJHEAACwS4FPHAlwlCaudDdWl/3VWhS5bTRsn3Iu0YYjVhTW22Jxsj/baZ/+9/JlajUftWFGURWLaI9xlOQIAAux8DLjCvOqkeU1G1at2d1vrOyGLu2OfY1MT72byymG+UoNR81pK9pkEN6wrC47bAQqSOAAAfjDncHxIwxz83aw+Z+qGZcp7Z0+jLSyws+HlxOu81OuAV1zMDvOVuvm9aDWw3GS4zc5c0A+AAAMAAuy+8ca2qand1HM09Fw//h2wuOv39kRXRt2mUG5OJ9HjV1Ym2PFpRKEQYACABQLs+NzP8taebpamq/RFTVz1bvtNeHRl1G16sD4uksJDm2Ys16cRxm3DLssRAOrEr0FyOOzmkMpmb9G7/jDccaXnhEdXmZkbFruahaUMNTgOOl29eHfziOUIAHXiP4EabywKyK1Mr1wWdjQxM/abnOnKqNt8I4tLGSoddUIVzL9iumjqH5YjANSJe/7Tmiy7sBo9vXoV+0kazFquwpFfK1nlo5b2Yjkr6y/dNyDAAFAr3oR66y6Rz3J7ea+thS09DWct43dh2RTKJ0u/Vt3fDHoEbP52yaIEAAR4Fhzs+q27uGFoZ0n52bKK7cq5+75l102PuU0Mh8Vxs04WlqGdV6CL9wgwAIBRgEvntke/WHT8e2TzeS9XPvKU0YPlqgvLxqdb1eTV6GAFC+1s44AAAwAC7PZu+6U16HK/Z/VxNmEeH5w8q+cjYDcV/oVbmmpeWw02vWebLP9LIAwaABBgHwd/5jneybZyF7zoZOewMfXNUSifbllAVuOtUN145v0NAgwACPB0+sTDazeZX+c8zWw102Y4yIlgnHgXYCeVcptZKWurnYxCGWDjgyPAAFArDnxWcm2SNFpD61e81eV79z16dXd8COTT7e990OnhHGN62vPxh2D4HUuWIwAgwM6joM8d7PG88KsKwnhsc+i5umWzv2U3ahfWW8cxknMOgsvXPgywqZ0dAQYABHg6/Z+P926xcV3ZJjbTRxf8HEbabMZ7VqRcvQvL6gi40nZEjUfXh7O96K9GgOH/7J3NalxXFoWNRhFoUpPCVlGgoWd5Jk2aoEbUKzQ9MN1JmlJPMhCYwhMjOwijiXFsgvQG4k4EKqGXyEBUOWluy8YxtqJ7a+3zc7WP7vfNJdUPV/vstddeBwAaC/B/shTg6uKrP7d4cjgw/fxFnXLqeYcerBQurPEsvSA//vm76Zf1d3DZZQGut3geAYACvHuZ51/vlyrnT+b/79KVSvFD4EcdFOD9To4JZktatfn6sx36SZ7+9/qPNCx0LyjAANAnpp0W4Mtq/il1afHT22f2/koZzkbHQUuj5ljiQ6vPlQJsf/OD+buPsRz//vvLTPW3MVFlccLzCAAU4FwF+LIaz39+97d3bw+rQULtMmkctNGDdX2UOLx8+fo7WwGOf5XHmQbi48H48uXL6+8nW/1tTPqkAwYACnC+AnxdOapqUIX9c6/Ouxiv2jxYy7eD66PEYLD52vRj0S4sSY4PNbPnrL7NBZgOGAD6xNq0o+uA0yDdUvS0Sw/W8s8YkWr8vNMLkaSPYtfn19iUoUkBBgA64AxX4KQJ01LavtgYzXNLI/uFUan6pUMXlhYWclRUAaYDBoBedcBl/eeWxrOxNx0ch3qpNifdubA6+STogAEA6IDb/bMpTw8WD9byqz9VDbtzYUmD6gx3WtEBAwDk7YC9FmBpzhqXo7k5DW5jB4bavYhLWR7m/yDogAEA6IA/I2VhxTV+ljb2Rq9taoGjPmJtV3m7sAK8xfMIAD3qgKdF2Wc15TWuuXxhkJFvVvrNmf7Dce2p1Gs/8/klNhnISMICADpgvwVYG9DGvPrqOKKGWn44yqw96mDM3PkeMB0wAFCA43dpsxXgV9lr2yxYgbbp18txhhKWdB+raysdtyEBQK/o9DakrqI4YtZv5oYSehjj4Foc5RYC9i8pwAAApRXg/3n9372Z2+A0jBKRLTtMES9Sq/NOl7m5DxgAoKUAe11guZxLFc50D71kEBJHzdVDwwQ5XCE+6yRuuusCvORxBAAKcP3eawHW9m+ukhcHtcMcdeHC0l6k1xgOCjAAQEsB/sHrP28tqTlivqp7sG4tcHNdg16GywCzzB12ZiYUYACAB6eFdU9ii7mf99c3FzitQ4+c0Q5zz5gz0zDB/oPHEQAowI4LsHZbb/DrP4s0UVVn+V1Y2px6cVTaV0gBBgAKcOSS6p0MEBNVH92D1ZC3Ne/AhTUregRMAQYAaCvAh271Sy0qcifngm1bgTP8hlAXliaT/+72G2xS0H/jcQQACrBj/VIcgAb2f3Pdg7UfvccUeMoR/8LumAIMAOCYx4WFOKghFIEXMoziLVSj7C6sSV6LV/YhQpOG8Q8eRwCgAHu20Ioa79PMHqyrBE30dsZDwpXfL7DJKL7H4wgAfWK9tBxhVYENG7C+kotn46a0IcojLG/sIOuAuQOaPqATHkcAoADX9Xu//7+1IXCQBm1wUG3HRYWED6qzKgB3mcNBAQYACrDzBkq8cSikAmlLxh9pNlCNplldWKO67BFws0ZPAQaAXrFR3AhRbQFDjhCjFM3rYJLVhaWtYS39fn9NF1ottngcAYAC7PgqHXkIHLJJ9TxJiIa+iBTSpU9KHwFf1ERBAwA8eLBWnoSpXtlr95EZ/FNH8a8v7NIpsUnf8fv1PaIAAwB8YFrcHpI6BLZbnHQPVqtAsDnN58JScz4cn5+a3gFJlADQM2bFXWanNqp2DVr3YLUqvHojbRf6xS3jpeNvb0IBBgD4wGl5Q0TRh1TvW9/CMNHwVl9EMusMw7r0EXA1IwgLAKCtADu20apzULOT+yDJCNhipt7J0/w7DoJu3tLa42EEgH7xrX3R9e6ZZRmE6tLxqtI+SSJl3zZenmVS3x1Y6E54GAGgX3xTl+fCUiuldY4t180fVvziN6kqeaAC7fcu4BaZgQIMAD1jPW1QcTeI+7rGOErdg7XicFINc7mw1JOH4++u8S1s8TACQL/YKLGLUtMed/N4sFaWzc1pHheW+r4dqxeNpxzWgAGgdwW48R/iM8dt1CTHiFX2YK08m+gLxaa0kOpFnr7ahYGOLSQA6B2zArMc1DgK03vQPVj7yV6f8YgwyWPtcrFCRgEGAApwCYNEVS22rAJXszpZWR9lcWFd5Girvfjn/smjCAB947TEIbC4jmOqb/I1gsKK9Fgt5hafWPUmQ9/vZQTMGjAA9I9vSpwkqnZgix1pmFA21uVswwtUrV2eM1SaP+QTHkUA6BvrJXpp1TRKwzhUn9sqMVNyNTcI/WeJtpRdDu8XPIkA0Ds2kuVYuDDThmdCHaf8lfP0LizZWu354NT4HthCAoD+sTYtcQgsVyPdhqWOgLWPZVKn1otHGcbKfs5NmKABoIfMSjTzyEu7y8PE9U0TjWVBW27RZQuW5yWk5k8FEzQA9JDTEtdZ9CHrbupfuH0Xv86QruV5CalZF9jjQQSA/rFeZKa/vOijvomDtAqvuiilurDUFCzXukXLptcJDyIA9I+NIm+1q47TarzyUFlUeOXXpyrGk8QHDl/edTxYANBH1opUM+WlHHErZz5LrPCeqweExAq5Y+96yyEHDxYA9JJZkd2UPBPVNONRaoU37aKUnuzhWYFuftW/8RgCQB85LVKDlvd2tZ7wUerw5nHStd2UOZn+UjjwYAFAT1kvUs+Uw7C0ixVfpV7ykdeGlM9Y/mWeY7AuW1T+Ex5DAOgjG2XGCuu33u/cSczUMKFrSn+vjmOwWj4QPFgA0E/Wpvcs1vAvJW51GIe6NWSImVKLpnDphZ5T7fgGjbYxNh4sAOgpszKD/WUNWjhGjBK2q9am+ijZ8cB1DFbbgYQcLADoKd/et2Bhe1lSl4a+z3BA+G+6lSvppqY74nnNCBgA4Abr9y7Y0Npkyls+Flv4RSrflGyo9nxeav22tngIAaCfbMTNTwvQoFe1wGotX5o+jVkiWfusvgcKdJtegQcLAHrLrExbrbwcu7JznU8zFDi1rV7Vtho6/V2/p6W2RaofeQQBoK+clpktbKhMK2RedWXoaaq9G8vpQE6h9KxAt0Z97vEIAkBfWU9xYa2vaCXTu5DF7KMsHfqKsn58HxToVhl9i0cQAPrKRqHp/gYNurUFVsXiqypLh/57IrO3ZwW67aNgCxgAeswsmfHIqwbd3gKLv8d6FjlI4MIa6w2w4xSO1qMSNzEAQI95XOhuqe6Dbm2B55lyHocJRreGBtivAt0+LDjhAQSA/rJe6BXvhurU1gIPM3WYaoLVdoINZdcKdKvLfLHFAwgAPWZaqA1rkqQFPsjUYarVc3+c5Ijh1wPdasFiBAwAvea0TBtW9ShFCyzXSfPrO4+u7Mf3QoFuPSft8fgBABp0ea2Vfk9fS4Gai320XQkQ+9dlgh1gz5Ep7R/DCY8fAPSZjWmh6y2GDrGxgEaXyWh7ddNweWCQ2P261VtTsMihBAA06DJtWGeGAtz0Ns6ySbxqVMh2gnfn9+bIdpmCqwgBAA06qfja2T/3mWEKvBvlwdrOdz5omLKPJwn6+7vnHAUaAKBFgy60u2qXN6UkK9FKHTQJF2fUt/fm1XPLeyvUqo4CDQBo0IXOFy02pXrntkJXTaME7BR7Urd/vpuWBtivVb39G0KBBgA06LrMNCzLKnC9vK2LFROlwyrcQbh+bLjv2LMCvUKjQIEGgN6zNi3ThmUrU7dV0bN8I2DZYb0duWLl+Atqfxso0AAA7Rq0Y4vPyFKAb0njEJ3KgSr8XDOJvY+cbvuVKFYckFCgAQBWaNCO07Asq8C32MlEDTswZ0p8dX9tYKsLSwPsOCtlggINALCC6X0MGl7dKs61Qrcf+OoeBfbXptm2Y5t6uwWLHGgAgJUatN80LMsq8HWv+SxIwg6+kWIe5qEyrSA5jqFcIaTv8dgBAKxaBXZswzow1aqbVw+dZzY5aZ3sbswKUrEWLG4iBAD4yKxUG5ZlWlovj0K8TuFXDWnHgxsurOqXqEOFH16gQAMArOabUtOwTN3ijTci/nC4xjsM6WFtZwrHNzZjwQIAiNag/dqwjPPSr/OwNA9WxJvX1nkXX7mwxrYjhdubgFfklLEEDADwiXYb1o7bNktctr3Vh3WRe8gqLiJtR5wo/FqwjrFgAQAorJdqw3pTB4vQD7UErWxj0NuONzZfd72s3J6MsGABAGgUa8OyFeDFr2Njf3qU/cV9ISNbzxNuQ1IqLFgAACKP+2HD+lKEln4y6jaoufQnroIFaFKwAADKp1gb1rAOFKE1i1SUy0lssg8DBehiU7CwYAEAfEGpNqxNYwu8+DORUvNg7WasQzedVFYBGgsWAMB9oFQb1uWLOkyE1mIyfs2YBnXT5/Xc+k7cWrBIwQIAMDArs9kyJld8Fm41eTjy4KFNqD/J3COjAP31VrOrBvgACxYAgE6xNqzjOqRwVVK5i7QZa2HVV2ECdJQ/DAsWAIAbSrVhWTeRrgvekdw4xzb+0qD5Y56k1QHt+aJmLFgAACZOs9yK628Tqa6fVKI/ahHbZM7lMm9W0v3GQGPBAgBI2QJf+S3AZ9YCXO+PqxeG6Wxuffx7u5nbcQz0qrPEFo8aAMDXrJWahmVdn/2wizSQKmN021+da7XUeAmh7x0kUrAAAIwUeynhC3P1Wh5KRTv+0CENqJfV86l5kO3269jEggUAYNWgp4XasDbN5at+0tGirTagfmfu4etdLFgAAPeHFTYsvy3wQZ2FFE3/K+UP/cv80q7c7iBhwQIACGiBS03DCmiBuxqznuU5G/g9DY1IwQIAsFNqGpY5xELj0O3ZwPE8oH0g/yMPGQDAbawXasOyb9F25nOybymXHcJBChYAQJAGXaoNK0sLnKTKVQ9zNMB+d8KwYAEABFFqGtblRYYWOE2VG2UowMUmc+/xiAEANLTAhaZh5VB6o3MoPzHzejTAggUA4IhSbVhatvNdZD1mUMcdN8BcRAgAEEipaViXg+Qt8NNEr+ysRw3winb/hAcMAKBRgy7VhpW8BU5mdJpPfbbmWLAAAFxRahpW8ilwutyRSW8aYCxYAAARLXCxNqzEUu/7juai96kBxoIFABBBsTascdpOc7sjXfY+TYAPSMECAPg/e3fQ2kaShnEcctpALnUxg4wgx/lac2lsC+PvMAej2AvK7sFkEozwxVgtxJKLSSSG2WNuoS9ho9BfYg5GJgtaKRM2jt1VLVnV3c/r/H/sYRiCrfSOeLveeuqt+zM7DStu2inidnfcaZTCC+ApESwA2KQHbTaGFTUIHfHqiZKd0YezAN7iDBIAbMLsNKyovd6Yf8+PP8YCmAgWAGy4BLYaw4q6BI650Iw4jVJ4CjQRLADYlNkYVhZvCXwtekJKeQFMBAsANvTYagnIXbSxj1HDZvGmUSovgFtEsABg0x50z2oNiHcp0n7U14wtyfcCIlgAoMbsNKxoS+DIbxmxplFKv/wQwQKAzZfAZmNYsc7cXsV9yYi1CXwk/O4TjmBdP+VrBQArMBvDKhvGtHKli5xPGsRJhgkfwiaCBQAx2I1hlUWBap9DGfMgknLznylYABDDI7sxrHwgudSM8VpwJbwALpkDSgQLAFb03uxWZN6KsN8afY0fZRrlnvBTZwoWAMTxpL4pFdFLQYQ7GU5rXiA2EQyrs8fOFCwAWJnhGFaE1Wb8Hvvm6Wzpxn9JBOtXvlAAsCrDMaySAzGrOBxnvZ9JiAAAIABJREFUUf+GWX6+8WdSnsHBFCwAiMZyDCvC5MdZZxSx3rnhzua5MOlHzhQsAIjmXZ3nZAWPIh2OXaz3gdZlhM+jfASpbNDIc75OALC6kmlYI+kl8HmMsY+Hoxh9aJefv3joR5BKIljXfJsAYB2GY1hRjiIt+9Cp23j1G6H7vPwo+9IL4HAE60++TACwDssxrGzzHNZf687OWXuDv2jmhsnDvwWJKVgAEJflGFaevY10/1+3M8rcPatvPtz5EW5BYgoWAERm91LCPNZI6L8a0eMzd4/ym052Yn0E8YdNBAsA4iqZhjXSXgKfR6t+81myWAZna/zydrs9TOKVX/EEVtlFhHyTAGBdlmNYuXszj1iCu53xyLmV1qHOTdPLF92Yv/137QUwU7AAIDLLMawY87BuHQxOJmlpLzpz6XCSRP7Nr7SfNBEsAIjNdAwrahP6q2fJYiG8KLKufTsb3XbOZfk0nSS73di/VbwBTQQLAOIzfCnhsigezOPrdp8lk/E4Tafum9Y0TdPJ5W63W8Fv1D4CTAQLAKpgOoYVvwl9cy18kixcdpb/W9h9Ud2vOhZ/z2EKFgBUwHQMq4om9E29O/9QhWvxBnTJzRdMwQKAe7Edw8rznbl5e+IPmQgWAFSiV/O99bEnUvat11/1BjQRLACoxjvTMayqm9DVU09AE8ECgIoYj2Hl+RvT9Xem3oAmggUAVXlvOoYVcyZ0E17JtxiYggUAFQnHsK7kY1imm9DyDei8FZ7V8m++QABwb6anYS1HM7+124DWf7ofiWABQFWMx7AWi7QDqwV4T7+/QAQLACrzxPSYiC9nkXo26+9xJv9siWABQIXCMaz9XL8Cn7MB3MgULCJYALAR6zGsPG9bPIskfgnwChEspmABwGYe9Y0HhfKstcMGcBXOiWABQJXMx7Dy3N5IymMDT7UkgsUCGAA2ZD6GtdwG7rEBTAQLAKwxH8Mydxp49tpAX4EIFgBUzX4MK89aloJYMwsbwEzBAoDq9U1fSmhvHscrZ+GJEsECgMr9bPvKWmtBLAMTOIhgAUAtzF9KaCqIZSKARQQLAGrxAGJYdkZSvjbRUSCCBQB1eAAxrDzfMtKBtvE+QwQLAGrxEGJYF0YK8JGJp8lFhABQiwcwDSv7w8oQDhNPkwgWANQiHMOamYgNWUlBmwi1EcECgJrYj2FtmzkGbOF+CyJYAFAT+zGsD2YKsIHXmSkRLACoi/UYVnZhpgAb2FIfEMECgLpYn4aV2RlFeWX9YbIABoCISmJY8sGhlp0LCfUf5hYRLACoTziGtUcG68cpwESwAKBOxmNYhgrwNVOwAAA3GI9hmbkMaf5Z/GUmYwoWANTKdgzLUAhLPgVNBAsAalVyKaH4NKySfUslp0SwAAA3hWNYL00fXWUSVqxXmX/yRQGA2EzHsDIzk7Bm4gW45EDXU74oABCd6RjWJzMh6JHlVgIRLACogOkYVstMARbPYBHBAoDa2b6U0MooLPFePhcRAkADTMewKMBR9tL/CH7453xJAKAKJTGsjEkcD74Al0zBesqXBAAqYTmGRQGOsQAmggUAjfjZ8AxFKy3omfRTJIIFAI140jMbw5oGkkNStVn6GBJTsACgIXZjWIH07tHwRd2r3OO3JgdxEMECgMaWwGa3LwNrt1/yVlLvIreTbYc+DlOwAAC3PApHmXRrR3YRvEeidVljRutw7PJp3+JtSESwAKAxfzM6DStwHeEyO5a56U5NO8GzzqgdbOYK9xGIYAFAY6zGsALN09Ovf6KeRfDJuN0Ot8RnsiksIlgA0CCjMazAXQy/f10ju+HbGpa/Z1/Xt9s9c+epSy4ifM6XAwAqXQLbnIb1nxU6vq59Xm0cenY4civ0xF/a6yIwBQsAqmcyhhXYcr2ZeXKV9qFP9tyNj3RhbaBJIMe29He+GgBQLZuXEvZXfGWorg/dnZy51TZUr4lgAQDuMhnD8u+4Xt2KPGX5cLeCPPSzzsjdauj6f43mJjARLABoWEkMS3IJ/MEfSr7bam1NdqNP3hjfeSxZ29vuPmUKFgCgYAkcjmGZKh7/DyV/96fddBjzVHC3kzpX9GuGfUObwNtEsACgafZiWFnxR57tOc+fz/JhEieONTu503z+tuH8qW/nPoYBESwAaNpjc5cSeiYvvwp91NYwRiL6ZOItv8tCf25mE7hFBAsAGlcSwxKsHsV17ioYGMuydjrZ6W6y+O12xpkLnox2b6ycBCaCBQACrE3D8mwBl78ptPNhct9M9LOkc5aVdQOy4p1VwS4CESwAUFgCW5uG1b/3pQfOTYeXO+vHnpNJ6twKv6B4vKPeOGgiWAAgwVgMa3ujj5m5UXq50+2u3Hjudsajktbztx++ZeIRMgULADQ8tjUN62LjqLFzrWFS3o2e/ZYsl75tt0a4qW/iTuA+ESwAUGBrGlbxvQfr7rM6107TyWRZhWd3ftji3z1LOpNxOnIrdZ7L9qfV7gQOR7D+yzcCAOoSjmGJrd+Kb/HZX/vntNt5tqyuyzp8eZkkJyfd5PAkSS4nkzRdtqoXC1+39k8dhO5IZAoWAOD7JXA4gmRhDuX9T0stKq1zXwLOLm8vl8aLynv/4FnxBvW+1BMkggUAMgzFsDxN3k2CxjFz3lP9g0glESw60ABQI0PTsIrnUMp8xOL3A61plESwAEDGIzvTsLbFbxwayDcRiGABgBAzMSxP/1TnFeGT/BMkggUAQkqmYel0UIsPIQndmlgc0hYKshHBAgApVmJY2+q71MVvCEJdfKZgAYAUKzGsgfyNEcUF7kjl4025iBAApBiJYRWvLw1knGSGYRHBAgAxJZcSitSP4h1WqeuGWnPlmFh2QAQLALTYiGF90F5eBnq8Il1yIlgAIMdCDMtzhEZqWnXxncAiLwlcRAgAeizEsIoHPYqNWv5J+VIppmABgBwLMawt/Uld3piTRA/6AxEsANCjPw3L04GWymD5gmIaPQSmYAGAoJJLCQWqnKcDrXbf/YHsOn07/H8x3wEAaEZ4f3BftoF6pFV/fcOW99SnYP3JVwAAmqEew/Lki8UyWHk2mIsu1KdEsABAknoMy9OBnmtlsLwprOYfIFOwAEDUO+0Y1pbu7vQqKazGc9BMwQIAVdoxLN/eqloGy5fCavyDEsECAFnvladh+RaWR3IF2HfYp9kedMkUrF/5zx8AmiMdw/INkfiHWv31VrpmXxVaRLAAQFY4htXsCi7TXFeuE3ZqtgfNFCwAECY8DcvXgRabg/Vls7Un+K5ABAsAlAnHsD76lpVy9dd/3vZI8a2ACBYA6C+BGxx54e1Aa9zT9B13oPeyQAQLALSFY1gNbmL6OtDzl3oF2F/sftF7fkSwAECD6jSsgejhqEI/6e2inxPBAgBtotOw/BGi14IFeFtuF50IFgCoK4lhnamVNMEQdJ5P5YaZMAULAORpxrAGc8mztT7emRfHzXxc30VSRLAAQIdkDMvfQf2sWH+9ke2metBMwQIAA/qCMSx/B/VIsgBfiPWgmYIFAAYIxrACBW1fsQAHMseN9KCJYAGABYLTsAIF5LVkAd7y9/CJYAEAPPRiWP4xik1fUuyLQfeU3hiIYAGADXoxrMHcVgg6z3tKm9ZTIlgAYENf7FLCQAf6s2YBDnzi+l8ZMqZgAYARajGsac9WCHpR8/7lz5GfCb0NEMECAClqMSx/pGl+qlmAA03z/7F3P61xHGkAh41PNuQyF7GxGNDR+Vi+hMXG6DvkEFgnQSKHZXFYBl2EHSOCL8FJWOyjb2YuhsjMl8hBzMQLvbE3u1EsTZX+db1V3c/zBWJEk5qq/vVb5T9EkmABNCOTYRXeAqcaoqeVLsAb9ZwguIgQoB2VZViJI9S9ShfgzXr+fOmLCJcvPO4AFakqw9qs7KvkS7627gr/m3+WYAG043ZNGdbrrrmvkBbzWS0vgSVYAC1JZ1iFQ971RXHU5UJnWPaed5WU2xIsgKakM6x/1rKFe7ioVeJXQ9Fvl03BAmhLRRlW6nXqnWoX4MSb16LjoA8lWABtqSfD2uza+wppsXhTxwm+KVgArUlnWCXfvaaWkINqF+BKfjZkEiwbYIDq1DMNK/E2dVXt+pu8AOF+FRtxCRZAndIZ1t0qeuJKr2LIbT2/qiXB+tpjDlCfajKsxFby13oX4EXid8OvpmABsF4tGdZOi18hJScwl9u4P5ZgAbSnkgyrza+QFouPKzg+kGABtCiTYZX6liaREy+fVrwAJ/Kn1TT+byfBAqhXHdOwEhf7LStefxeHiR1woYbcFCyANtWRYW00eBXDe9vhH3FJsAAaVUWG9bqGmvhqP58qNQpLggXQqCoyrP0qBlpcYAF+HL0AS7AAWlXDpYSpYcY1N1ips/NCC7AEC6BZ6QzrYfA6ttqregHe3In9h6dGiJmCBVC3GjKs1402WIv5TmyElb6IsNvyeANUrIIMa6OKK5mudAdaZgGWYAE07Ebyf+JFRipuNDkH651HoVt3CRZAyyqYhvWm0QYr8dPhKPaHiwQLoAHxlxKunSaxqnz9Xf8StsTJQWYK1q5HG6DlLXCRrVzkMtbPIfCD+ClYWx5tgMqlM6wSr2GftziGI/kS+KsC/+2fJVgAbQufhjX/rtFXwOtfw5b4l0uwABr30U70NKz9Jr8CThwDl/ijSbAAmhc+DWsz7kVqP18CF/jpkJmCteuxBmhgC5zOsMJi4vpPoNdt3guc25uCBTAA0dOwTo+JjxpYf9ecQfdfrs1NwQIYgOhpWPO/NHoCveYkeFlgEKUEC2AAwjOs064VWrZwAn16C1Xg+2UJFsAgZDKs3teTyXaDUzjW/9Pvx2y8JVgA7W2BozOskxu65Z1FG05mWEcHIUcGpmABNCh6Gtat7cZuIvzDdLv8/OxMgvWlBxqgFTeip2Htt/kG+N1i+OFu9KjAFA4JFsBAXI/OsCZ/Lf3eua8fDyV+OkiwAAYjfhrWn07Bv9hrZ/1dHP7wpwPoAlOwXEQIMBjhGdbkybFN+Octrb+L6a0/FsTlN/Oo6R8SLIAmhV9KOH3y/xebf29q/X23In7/+5/vb/emBTbAj0zBAhiOm9EZ1mLx5L9Huct7ra2/7349fP+P3zbu934s8Xc6lGABDEj8pYSLyfTbnz799KeD+aI9k+nhb+bTEguwBAtgUNIZ1oNCVfJkMllMF60q8i83BQtgYFvg6AwLU7AARik8w+IKEixTsACaU0GGhQQLYHwy07CeWvuqIMECGJzwaVhIsADGKJNhHVj9JFgA9EGGVf8G2EWEAAOUzrDeyrAkWAD0QYYlwQIgQibDsgWWYAHQh0yGNbcCSrAA6IMMyxQsAALIsOpOsGYSLIBhkmE1nGD92/ML0K46LiVEggUwMukMa2UaVmiC1UmwAAZLhiXBAiCADMsULAACpDOsToYlwQKgFy9lWJWeQG9LsACGzKWETU7BWm15dAEa90qG1WCC9YsHF6B1n8iwTMECIIBpWDV6LcECGDoZlilYAAQwDUuCBUCEdIZ132poChYAfTANS4IFQIDrMxmWBAuA8mRYEiwAAmQyrD0rYukEq5NgAYyCDKsupmABjIQMS4IFQASXEtbERYQAoyHDqinBchEhwGiYhtXOFCxPK8CQuJSwlSlYn3lYAYYknWEdOYMu55YEC2BMTMMyBQuAADIsCRYAAUzDamMKlicVYGhMw2ohwTIFC2BwZFgSLAAiyLBqsC/BAhib2zIsCRYA5cmwJFgARJBhxW+An5mCBTA+Mqxw6YsIly88pACDNHMpYTAXEQKMUjrD+sIWWIIFQB9cSijBAiCCDEuCBUAAGVbsFKwdU7AARkqGZQoWAAFMw6o3wbIBBhiwdIa1NA1LggVAL2RYEiwAAsiw4qZg7ZiCBTBiLiWUYAEQwDSsIBMJFsCofZQ+CDUNS4IFQC/SGdZdK6UEC4A+yLBipmC5iBBg7EzDkmABEECGZQoWAAEylxKahtWHNxIsANIZ1kOrZfEE62sPJYAtsAyrjwTLFCwAZFjlPZZgAXDt2g0ZVllTCRYA17LTsGRYpmAB0AsZVtkE67kpWAC83wKnM6y5NbNkgrXlgQQYDRlWyQ2wBAuA332SXBLeyrBMwQKgDzKsgjYkWAD8jwyrlilYux5GgFFtgU3DkmABECCdYd2xbpqCBUAfbpqGVYgEC4BjZFgSLAAiyLBqmIK160EEGN0W2DQsCRYAAWRYpmABEECGJcECIIAMS4IFQIRMhmULLMECoJctcDrDsnxe3mHylKHb8hACjJIMK3YK1pceQYBxkmFJsAAIcF2GJcECIIBpWBIsAAKYhmUKFgARZFhxU7AkWAAjJsOSYAEQQIYlwQIggmlYEiwAApiGJcECIIIMq68N8CMXEQKwngyrrzHQEiwAEmRYEiwAIqQzrAe2wBIsAPqQybAOrKUXsinBAiBNhmUKFgAB0hnWW2fQEiwA+pDJsJ5aTa88wfINEgDXTMOSYAEQwjQsCRYAEWRYZadgSbAAeE+GJcECIIAMS4IFQISXpmFd6Qn0MwkWAGeRzrBWpmFJsADoRfpLpPvW1HORYAFwRi4llGABEEGGJcECIIAMyxQsAAK4lFCCBUCEV6ZhXdEGOH0R4WceNQCOMw3rqswkWACcw0yGJcECoLx0hvXQynrGE+htCRYA55HJsObW1rMlWOmhYlseNAA+IMPqfwz0Lx4zAD6UzrCOZFhncWtHggXAOaXzXRnWWTbAjyRYAJzXSwOhe94A73rIADgpnWH5EunSQzgkWACc6pUt8CU3wDNTsAA4v5u2wH1ugCVYAKwxswXucQMswQJgjdudb4H72wDvesAAOF06wzIO61IJ9MrzBcA66Qyru+sQ+sJDsCRYAKyXzrB0WMkp0DsSLAAuKp0R6bASB9Dpa5AkWACkZDIsh9BrD6D3OwkWABeWybAcQq9bf3MH0BIsAJIyGVb3+Z7V9gIH0BIsANIyGVbXfeMQ+qTps9yf7YVHC4CkWec18HlNci+AJVgA5OQyrG5pBT4RYO10EiwALieXYXXd6l9W4HOuvxIsALJe5VfgH63Ax9bfJ9n1V4IFQF42w+q6IyvwsfU3+9a8W77wWAGQlV9Quv+wd8eubVxxAMeL2lACWrwWAkJBkILp4s5aLnPpcug/EDVeD/QvyBBQ6BAsMGTr4NChiwZ5MZ0qEASthUzdNSuTmgYn1HZUP9nSe43e55M5y8u9fP27e3dejP1ehsvzz7fff3YEC4AgT5YBBT7yPvD7939HAf11BAuAEPVliO5vbkPPvjkMWSpHsAAI8jqowMfj2V7eb//++Us/aKUcwQIgyMNlmBfjvUcZ5/f8p7BlcgQLgEAvAwv8tjuevZPbjefZ7NGbV6PDQeAqOYIFQKAny1CL46Px2dmb2V42Zr+enb0anfSDl8hnoAEIVR8s17B40e0e7brR+dH50Wg06nYPT5ZrcQQLgGCv12vMcrHMxWCw7t947nICIHgEXrIhi4bLCYCtjcCs8szFBEC4h8q5IRcuJgDW8FI6N8I7SACs5VvtNAADEF/NCGwABiCBP9TTAAxAghF4IJ/35iMcABiBDcAAfBYjsKfAngADkICD0AZgAIzABmAAMuFzWPf7CrQBGIC78UVoX4EGIAG/FOk+ryA1XEAA3JFXke7uucsHgLtyDssJLABScA7LCSwAUnAO625+dukAcB91n4T2EWgAEnAT2g1oAFJwEtoNaAAScBLaJzgASMFjYJ/gACCFiaZ6AAxAAh4DewAMQAIeA6/h1PUCgAL7BCUAnzMHsQIdN1wsAChw9APQFy4VADZqX4H1FwAF1l8Acimwk1j6C0ACdQV2/gqAFAU+kdnV7//qLwBbK7CvUuovAClMHMX65Peff3dpALBV+25D3/TswoUBwJbV3Ia+Pv5OXRUAROAs1tWnv8ZfACKZSvDHl4+MvwBIcGzDacO1AEBU+5N+7sPvqbPPACRQn07ynYOHp4ZfAJKp7U8nw5P+oL/o94+HefwZDifTadO/PQD/gw7XvjAOAgAAAAAAAAAAAAAAAAAAAAAAAAAAAAAAAAAAAAAAAAAAAAAAAAAAAAAAAAAAAAAAAAAAAAAAAAAAAAAAAAAAAAAAAAAAAAAAAAAAAAAAAAAAAAAAAAAAAAAAAAAAAAAAAAAAAAAAAAAAAAAAAAAAAAAAAAAAAAAAAAAAAABAGjVLAACx69vqfd+wDPHXvdkpfrQMAPnWt5jP/xLg2Fqdqj2fCzBArhUo3lVAgKP/2NN5evDPugswQJazb6eYXxLgiJpl1f6w8AIMkN/s+/RjBQQ45uxb/WvdBRggsxns8s6zAEeub1kdXFl3AQbIavat5tcJcISfesqqfWPhBRggn/rerIAAR5h9e8Un1l2AAfKYwa7feRbgOPVtXb/zLMAAGdW3rFbUV4BTzL4CDJBFBTorZzAB3qbWf9VXgAEynn0FeHs/9dxWXwEG2OUK3F5fAU5UXwEG2FllFVIBAd601srjbgIMkMEMVrXDKiDAm133TjEPJcAAu1aBshdeAQHe4MJf+cSnAAPk5qt1KiDAm/P1WusuwAC75su5AAswAAIswAIMIMACLMAACLAAAyDACDAAAizAAAgwAgyAAAswAAKMAAMgwAIMgAALsAADCLAACzAAAizAAAgwAgyAAAswAAKMAAMgwAIMgAAjwAAIsAADIMACLMAAAizAAgyAAAuwFQMQYAQYAAEWYAAEGAEGQIAFGAABRoABEGABBkCABViAAQRYgAUYAAEWYAEGEGBLJsAACLAAAyDACDAAAizAAAgwAgyAAAswAAIswAIMIMACLMAACLAACzCAAAuwAAMgwAIMgAAjwAAIsAADIMAIMAACLMAACLAACzCAAAuwAANb1PSfKAIswEDs+pa9wmZGgAUYiKlWVoXNjAALMBAzvs2yatvMCLAAAzG1Oh/qazMjwAIMxPGgUxzYzAiwAAMR1VqdwmZGgAUYiFvfXtG2mRFgAQai1rc6sJkRYAEGota37BU2MwIswEDc+laFzYwACzAQU3PlnWebGQEWYGBL9S2rH2xmBFiAgZhuu/NsMyPAAgxsYfZt28wIsAADMT3ohNfXZkaABRjYkMc2MwIswEB839nMCLAAAwKMACPAIMA2MwIswIAAI8AIMAgwAizAAgwIMAIswPYsCDACLMACDAgwAizAgAAjwAgwIMAIsAADAowAI8AgwDYzAizAgAAjwAgwCDAIsAADAowAC7A9CwKMAAuwAAMCjAALMCDACDACDLz32GZGgAUYEGAEGAEGAbaZEWAB/pu9s9lpY2nCMJoPix3XYBksduiIIcrOQrEjdsgCLO98DSh2xM4XG2N552s4huTLyS9M93T9dPt5FSmrkO6e6nrqre4ZEEIAGAFgBIARAsAIAANgAIwQAsAIAANg9ixCABgBYAAMgBFCABgBYACMEALACAAjAIwQAsAIAANghBAARgAYAWCEADCbGQFgAIwQAsAIACMAjBAARggAA2CEEABGABgAs2cRAsAIAANgAIwQAsAIAANghBAARgAYAWCEEABGALh8ALPuCAFgBIARDhghBIARAAbACCEAjAAwAsAIAWA2MwLA5QCYdUcIACMAjHDACCEAjAAwAEYIAWAEgBEARggAs5kRAC4HwKw7QgAYAWCEA0YIAWAEgAEwQggAIwCMADBCAJjNjABwOQBm3RECwAgAIxwwQggAIwAMgBFCABgBYCQEYNYdIQCMADDCASOEADACwAAYIQSAEQBGQgBm3RECwAgAIxwwQggAIwCMA0YIAWAEgBEOGCEAzGZGABgHjBACwAgAIxwwQgCYzYwAMA4YIQSAEQAGwOxZhAAwAsAAGAeMEALACAADYPYsQgAYAWAAjANGCAFgBIBxwAghAIwAMMIBIwSAATACwDhghBAARgAY4YARAsAAGAFgHDBCCAAjAAyAccAIAWAEgAEwDhghBIARAAbAOGCEADACwAAYB4wQAsAIAOOAEUIAGAFghANGCACzmREAxgEjhAAwAsAIB/yrqt53EVOooXbR0u/d3vadRU3xAP5ht/ZyjJtu7yd1/QQPAMYBq2fRyfRxNKrr7Wo1qOt6OBo9Pk5ue8QEekX9yePjaFivXtLQtr4cXT9+njgJmpIBXO126+J5t263z7v18nm3uln4BrlmFzaL0Wg4rAeDlyms6no0ekk5Ew/FBADO3wH3+l+DbKeXpOR5c1T96bD+4wzry8cJEBZa9Z2DuZ285KKvcbKLlGsvKahRGl3U9Z+D5tpD0BQL4P50VA/+xIFVfe19t/b6013UDF6j2S58PhtX/gA4awe849li+NtD2qHs1uODeqbv6+G12w9Zga3X708m0+lXrg132v21eHxG2+T2tmf/DHovDmD0l5rnmWAj982HHX0Hr0bN5WfraC8TwG/tVgcL/0qmeSNovKRLAJyxA548Dgd/TazuUFZNRw32xK6yziHGvnUdXiuwV/VoZNisq3YjHA0bZaFLx3VPf1E3yaG2EygRwJNGBBt9drhb+4/DbSDXdnWozUQAcK4O+M36dJeVHFmbatp4U7ga959c7/QvDdG/cfhxomuGn4c4qoPiq37vcdGr/ryxj7k2dGPFAbg6a7xbdwvvqzSeDgfbGNk01QFwng54smjyr5681KfV9CYozD77jLOqt3OVUdv72WTqzKk3mcYN0Vsm3dWY86AJvDcbf2kAnsxzDZzONI6+3/KlfvsNAOfogPujxiHlAmVnw+Ct4BDBwbby146EfKf32Zy3GKErBHcWwbnUavxlAbizCA8cH1OqFm3w+61tqJt4AHB+DjjMGFyaJ9XePMozuvJjb94fa6bB5aPYlafnIbbNP4Yu8reeScxcVh9NElRJAI5b+NpBwVxNBwm2qHIZKg/gqtuL+dPrpv7JwSMPHLKSAw6vTz/a7o2w7vOPfsZNokpD3x9jU9axAAAgAElEQVSuenf9DtHHqvfnkcN/+pRwFL/t8b/oLmyMt72Wisw5ogtvXrpNbtLtUL25yAN4Prysw/9cXj68yd+wn3wdXDkEDvkh6KfHOuAYnF0a5tRqEb8RkibTFoX1aLBNq9XOCCdtGibwvj+YGQdnFi2mc52suvktAwyH9R8VONq6pf4bz0PqhW9hIlcf8+4+2yBYHMCd2CV483+qwlC0CX6kgU9UFMDdNt3c7cqMZP12ZamxeX/u696npu9/L1Em6vBPFqu0Q7M2M9V9u5VNNfxK6NGn01XihZ9nGjfVWfJHdd0rA8AnkfO/OADAvzngs2icGbma1qcy700botVkIZiDVynuXIa/8+i+9dCZt13YzwDYoFq2i5s2bbZXoqhbAoCXkdMfA+BfHXArY2DRH2rpZIzNe8iry/E2uNtyhDKMsGwnJjAziYa/ZwD2s/DahYN0K8UQwFXk3Bvgct8ccEtj8E69m1vNk7DAyLz3pjcaKbRFnd2f3qzExqUfLv9vmqTponcBsMnCG8TNVG59r7u5A/gwcuYPAPgXB9y6zHuvvDU680S7wILACu73e98uDsH9hSwejJr/946G7x/ADw4XXjnNVPeim/NT5gCeRc67C4B/BnCC/pBucdpJZyA/6uO3Vsyiq/BWV8A3GuMbcAYEru7SDb+7BwC+crjwugSu5sJLLHwPVBjAsSF8cQCAf1KSNsu7PPmrfRm60mk+x/ehlez50zhj/qYY/v4AOCnGNopxUy3F13hzmzGAjyInPQbAItVcnvzV9cB6zefAilO9O65N4KT8TWDh9wfAaW3kRq1e7swVFln0FoowgM8jn+ABABbRpzz5q0jg/tDkwfzj8HC62UmQW/62b4buyxlw8oXXIrCC/32hnmAHThjAN4JxBYAjQulBZ2Ok7+Hq3MTqL4wy6VVT/Op2xzeaBL7zNvx9ccDprzHpnAMr8XcreSNRFsCRn8FqVngDYK9dRYmNofE+cKKvuQtamf9pj0vxRo3EbdZ3ADjHhTc4uH5DH/IEcORnsJodiAFgpxlVZmOspEuHSup9/iZqOLlz9YGpXdw7Exn+RwD8lk7zIpZc41y+1aAO4KVkNgLATk9ThTaGsHnvLAwTadN9pQ9grWsDZwN/w9+LM2CPC29m3CUX2gDAkZ/BWh8AYMFcL30MfCo1clHzPjVNtk331bFfc96y/JHqPrRpnOyDA+4MHC68XcekLAAfik4WAEc6yW6uG0POvPfntom0aXCelxcv0tdpWgx/DwAscF3ye0yLxk1H99nkeQkrblc9HQBgUa1FN4bcjhYz79XUOtM2DU4LB6xxDHzncvh7AOB5pnEjWDj8Ud0cARwZv42/SQCAvfVTpN8MkDFjRq/+xtRE5yajEz/OOxUd/odyAfzgeeElD7vudNd5dZAjgCM70F2ZIggAazQV73yAKuQx3ztIpF88O+CIX0Lqqp0YfRpZvAMWTkJy1yZPtTNmlgCeyeZYAOyvOSQ+q+RmzPr096v+ce2AhZvQ4t9T2ABgmz7uuzwrtnQRZArgyPBtzjEAHC2h0rQjvaNTm7HqfpBVIj02Gt+DJIDl24kfALDNwgsdXiy113mdI4DjELORqt8AsHxFN5MfedKi2of9DYidc6t4EWxCK+yEyCZ04QBWeJFH5rDrVH2dv+QI4Lhs/AEAa0jkQzVnnljVQOq/drB1R+K4qHjR6YPGO5iyAazSx5VoQnf0H8tFhgCOi94QwgNgX6WpzqsB6czYkZ9E2nRO5yXFi1YfNLpsK/sW9NL9CO36bGlb/TYAjktv78TyPQCWrumUXg1IZsYO3eTRxm85HJcUL5r7IKqAKNoBK31JapNrxEiXEeIAjqtTxgBYKed3c90Yyb5x5wfAjd9yOLeLF5l7e2ofVLgAwDZ93OSHFxbnRhkCOC54N3JPAgD/rC+5ptJk50p+ANw4Nu0csNArJSdaw48pIEoGsFofN/XhxanFOo/zA/CReEDhgF1ZmpPstoMfADe+I3ReTrxo36d5B4Bt0k9aC6z9DUqhdqE8gKMqrKcDAJyppdG8mrguDcCNH4WhAxY5BZ4pjn8MgP+b2TJXep1YLPNTfgCOi92wPQ6AHVmapebQHwoDcOO4P7eMl/RZSHUTrAsEcOxGUO3jpqz0bR6J3JcoxQB8JI8EHLAjS6M7nU1hAG5sZI5LiReLduK4PABf5YCxlJWbiQEW/BKlGICjekvrAwCc6cZY6g79oSwAN56OpQNO34hTvk+zBsDfpPy7hNJZYKMnss4OwHELFZhWAbAbS6N9NXFTFoAbe7PjHNO9m/s0YwD89b6GdqWf7LDLxgALfolSCsBReHkS3b8AWM7S6F9NHO8ngE0dcOpOnHo2XQNg9atvSSt9kyvQ2+a/rMwPgKMe8QcAnKml0X83b10SgJufBdg64LSvQxp80ncMgE1ST6rDrsPM86QagKMiN/gpAWAnlsYiUY1LAnDjIds64LRnYXf6478oDcBRdyGW7hc+TcY3XmZLAEfRJfSoHgfsxdKc5MkCNwBuHprGDjjltT0DAxw6/jIdsEXmSXPYdZR3mlQE8ExllgDYh6UxyVMJWOAGwM2fwnmGCd+PAQ51YmUCeJlt4Mysljk3AEcFbjggAbAPS2NzNfGiHAA3v2Rp7IAT9qAtDHDoPc8iAWyTeFIcdnWyzpKaAD7UiSUA3F4JPtRqlKbad7XcALh5LWHtgNN5gTub8T/sPYCXGSy8p0J/K/olShkAz1QmiQP2UZmebjPd0of5pVFrB5zsy/o2BjjQwpcIYCsbmeBjHDcZJ0lVAEfF7YX0AwHAMpbG6t289tvCDYCbR465A06Vi05yiPcSb0HPjEbavo3byT7otQAck9giPpaCA06hL9lirPX3ddwAuPlEjjMaq0+0fSkKwFf5UKz1nY2Z2dDXmQF4pjRHAJzifCPbxlDrLZ0hgM0dcKI3Ok+ziPcCAXxnNtRNtjWbyC/iFARw1EpFFNY4YKMulpd5PBUC4IDunL0DTtKOMzu2CIv38gBsOaNxtokmMwAfam1rAOygv7LMt3bwAuCAQsLeAWf/Fe71PgP41HCsLQ+7ZvmssjGAl0pTxAGnSf+tbkd0tnnkUs8ADohMewec5MP0llVbQL+hPADf5LHw+TZNHAC4UoMAALYPr9k22y2dI4DPsxqty6ot4E2q4m5BH+WbaCyHPs4KwDFdjguFmggA/0Vt3tAzTlFXRQA4wMg7cMAJPgtkWrUFJILiHPAslzj3VXrmBeCl2p4GwGl60FneZk3Qg/YC4Is80lCyhpwx15q/vlYagG07D+1KN8vm+UFOAO6o5VEcsH1GXRoPvVsCgANOVR044PZvRRpXbc170KUB+CSr0bqpHVZZAfhUjwAAWN2B+SqpW/agvQA4IHA8OOCM3xwPzASlAdh64dd57tVNVgBeqk0QB2weYLOs3ViGAPbggDN+oTNwAoUB2HzhW/SgZ1nmRwMAd6SjCAfsJ6PaJ6hWx0qH+S2/Bwf8L3vns5vGsoRxNNcjdnkGBEbZWQhseYdQ7Mg7C5Eg73gG5GPLOx7WgNjxDBef+N6TnDjQX1V9PdUzPV5klflTXV2/+qq6G+0PMlSetQUHnJqtgk7H8L5GYpsSgAVtBulG1KyAra5BugSb1ADAgP+7UMC6gOSAarvaAHiSluHFnlNpr+s1JQALKtDiFmQGcMU1llX1r36VPoCRBNSFAtYtSnFg9dC6Sb0AfJ6O4X0tHxsmBGBBpiL+UZusgCueF6WDV9ec4+UEwIhjulDAuiawg6wtlFv1ArAHw0s3XCxSMXLVABZkKvKCVgZwtfOit094SqcJYBcKWHUapYesLTTm1ArALgwvFZPjRENMdADf458nTqezAq64y3Gf8pT2A2AkA/2U3Bu7zNoCSz61ArALw29SzNqm6QBYYCjFGu8M4ErnhY8v2CUPYKSNfbFPOIy6KYSGxtRarYK+T8jwvmZqQgAWxAd5gT0r4Gp97GKf8JR2BGBEw39K3eZlSjavkwJ2Em9kW9gqDTUGh5/HArDgJ6M0i2gygKsoZTlLqRUZ3Fl6H3CRus17Pj5g1zgAOzG8rHtRadmEehKlLYAFUFG08LICrnRetPcpT2lHAEb8xokCfo2UNPOuTtMA7MTwIjlZ7Ths0gHwIq68zwCuMstzIsYU88MJgKfpGV3ceC+9OPykYQB2E26WyXnNLhkAC/xVs54yK+CKKOBLy8gbkk4AjOSgThRwmgcq/HxdNQzAbgw/TG6ibpMBcDti8MwK2PYapFqBVnQxfAAYKj54KTtI5+3Ki9Ps6gHgZXLpskRPVuv11JMo0SB0FMB4BVqVXGQFXGWa10v31X0BGCqhO1HA0lVYpR+Hn9YCwJPkDC8pnlSbtg2oADZUwAJ3XarePQO4Igy4SqnlqxR9AHiXjhZQJz1+srag2VofACdmeFexZpIKgM+4sScrYE9FRYuUej06XOPor+4MwBDLvChg4cxdGTnNKI7Z6wNgR4bHO0aFianGox8XPKbLVACMD7Lyh0UzgKvL87Qp9eXL87x7uPr9+cOTMsMdNAfAXhSwrOqgjaTru+f5bPbDa15udXTcNQnApZXhZ/MohrcNlevbQ7CZ9/vv8WY+f3h5ugn/iCkVwHY9YHx2KY8YyQq4wqLiSjefZ903AxfvN+v2n8bxXt0ZgCFF4EUBy6KSzuCXz91fpmf34UZzu06DAKwz/PXc0vB41Ne8/fr6edbttIrfhrbbf3gKU8NcANsp4B439GQFzL02VNv84kNfP3CiQoHgTdIAhspAF4lFfu0qzX+uu9kHN9SQYFkHAC/phl9XYXijattBuB+n/QHCJ4eYexKlIYBhTbRWphZZAR+u0ej21qIzg21H1bDrblZ8PBn+iivHvAAYchs3CnjIz5h/ybH+EEmL78wvqIsCVnzH5rllbfgvsfK2D1OH3xl8w0nvYwMYbzOoNzg3HMCjy7c2alF0Ot3u/OVmHBME4pR6/eecVD6nJ40BsFwBr9ejy9u7l8P1dHszUpNFMnnlncjrP2eHfemn7JoDYHmsuSMYHnadlczhHwMlRXG8AcY9CMuuB9zjRp6sgE9VV/ov96o7Dnmm/ymdPJqUfhbO6deUAQzJd5ECHl3evcx/6eMV6kVMkrAkLiV+PYp1oS8GlBbrAmBp2rZ+Zhh+Q47D7w6KzKtjCCYD2EwB38eYwlkB/29mfASy7nfNPZHEVKplTs0KIYF3CQMYazHBoXR9+zLvdj5O/B/GsV5bt3Dv+cQ8Fd532hgAS1OUx6oMrw82O9A/+0+0Qm0cAOM80Qrg5irg9V33T26kEMHIzhKhljn925MyAgvXSfgAMPTKmAI+5GndIzfrlPK2u6DvLsXZI6kecxpexc0o7AK/bD2yupY0gp3m7yHjZxle/fo7PCL0b/SVwQoBDDcFDXrbDQXwsbUF5SpKSJU9ZRPwhO+RaOAGwNg8uDC+t1wE4/lzm8RfaTE0QNp0+0F/3W/Yk2ddq78O0c9phh/S/WYjCggPH37NIIkeMJ7dflG/ejMV8Ob4yvpCTuAJzTLvvhM0K75Jbj1IF8CYW36yhru07S4wuawT+TVIvYw5li+C/lodsCI07bRs/griismgAN0e010e1YiBuUMrtIc34QLYSAHDscxid1UTAXzdsU1LRImp7N3DZoUog9imC+AtEWIh6jrewjeRY16H3fs8XuPCoCUzbcW8ZBHhimf4TYfo88C7h9Whl9zRMVLAi3g2arQCfmaVhSAD9YgzulWOma/uDsAYyMwV8IHAMZS7tBMZHKslhZNpMwBMNXyxoBsefoImsyp+a8qQB8tGAeM1SYvPahyA1zNiRAUSU4lIDV8WIUiqZVPOBYCxUq69Apa23TdRrB1cS5SknYNmAPg/eyYjJfkyFinhaKPrbv77QKAOd3RsFDAcMy3WdjdOAV9OKeEAnnQFdUaL+D6tGMCjtxPJDtfT09PbPzfhh5NhLaZPDEiKlg3AOY9EKgF1ss/Uu6cMYLLhBbPolQrgjRaZn+85jQqiAl5FCZgNV8DXwYBcySiy5OUOULAT1MwmlQF49PZTK7NZ9+eJURTdfuhvrmBew1DAIhGDT+F7MuRxp981AsCSFZMbruG3VMfRL+8tnxSVnioUcFmJ6zdMAV+HT4o+txraI4dSQUPvqgoAry9f5t3uURc6gPjpZmQXjCkKWLSSBl2cIulEQqEUTyPUUikJAEsM/8h9wIYZhi0ka/HPgQrkg7BsFHCPPHmzAob4K9zLE5yYrsihVJC076ID+PJuHjoi3fnD7cgmGFMUsGyd7IRubPA0Bdzpp00AsCC7AmcTbnhkYNHEyuTkquL/v85GPgjLRgHfMzOgrIBh/go36m5oN0e1Rm8fw6PkAL58noNfdIDwjUG+zlHAIkuAxykIOpGP3PlquMPEM4AFhkeLG1TDlxUN6vtiLDaALRQwXE39YvPuTQIwNmcL0TqsQBgIWsDogOOSbBoPwKO7mazK1X34a6TMHC5IaYlAAm+Zk1U0Yb+Rc4g0AezR8F94ALZbNPVjRxL5JEoTBbzYV2KjIgPYWAJPGdFG1GyL0tSQAPjkb3yfYvC/fncF9EqSAubXKQUr55fsCWunbhwDuIxgePgZW16gtFSsb4uxJuTxMVDAsN9bJRUZwJaUDP4CvKaFVzxgnxpEAfBaKn5/KUY/yb2SpYAlbQWmu8u6Ct+oOUSaAD4jZ1aikLDjec7A1Hr9+6Wv8fkIwOgQr438LyvgY2FeIoHDMiP4zpKKBzqltxFi0/puZuK3Bx18I3xvlgIWZFXYzzhdwPcX9KnKCI6ZGoBxwy8jGJ43S41tW3TI42OggFdVFX4ygC37MqEjg9e0JHuE0KdIxAyafM4M5/X8vRQ9ZIbTDc0d3y4oNK1iZG3wU6yitWMAw4bfxDA88IzzanIqpxWKD74PDshW7pcVsHHvJyxg4zWtaYTAseH7vvGW/O7fv34GVsxoCliwE2lKnEvCnd1oGmFVX/QLYNzwwwgYQQzfq3KS8i+9Aka7jXY7mzOATVPfwPQRrmnJBrzNp3y1AH5bZnkznjhRwIIaNOLvZZysDZ2yVqtR/AK47dPwE5Ztd63ELr0Cvt8zOZUVsHRaSNb4hjwFBrts0xlq/QQBfLjm4GvTFLAgUk+YzigMpGB2aNUN8wtg+JcYhCYB87dX1pAmB2C1Am7HmVlZAfOLT0GfAN9W2pVZ8HDgB8BcwCBvjO8TGvLAKD4qoJ0BrCxsTLwZ/qKSEU1HAS/iDHBWwPy5FxT2qHv+FAZ6pfu+BwDzFDBe2dgyby7M2sCk3GpI/QIYrU+KFzGNWYZf1BvAWgWMUsruAPSsgM2LiiEUg4uJ4pbDmD3zsgJW5Wtb3lSS18kWcTifCoDjnU2yYHG+5gDWKmA0Hhue7JUVsHkNemeNAM2+gAU7ZGcFrMqsdjRnV9TJ2pWg0C2AYcMv3Rl+ESdzS1UBr2KF46yAI9SgAyI2WkzcRgoea/wBWQGregsbmqU1ynQcB/SJABjdoiKPz2C0XJKiWNNWQaOz9srw1bMCtg57AfMPltXyEAc+qsO2T80VML66jpcKKsIo9qhhJZyLB2DU8NtYjxqQ7tu0fcBohmXqehnAJz4AbwKffAyskxQljxXZQlkBK6YTNLRo2UTBRWxQjQSBWwCjhldUBLATq8LXTNKay3VQwOj5OaYt8qyAradfwDegqnoXLaxN2L5fcwWMdyzCfXK8j0aosoqA5BXARQ0Mv/Ca3HhQwO19ldbJADbuAAVQDF2DpanxYVMa3zmaFbAmFAA+iZZNNtGiglHL0CuAY5yozjb8wjiC1UoBLyKOb1bA8IVvRHo1ng6qc8+wAbhi+37dFTBvxSx6Z5UuXSjiWd0AfGY9/c0Mv+HcVvkJqSngMmI0zgo4QgXqdOi71/gLtYS+ZYenuitguL0/IfFJp2KwUa03gHsxA/QZJzAs0pul0RQwOL7GS8SzArYlWIiRUJts48WPHdv3666A4XRtQIqhOkCVFbDQK4BXmujuxPCg86ynraQulQIG5ZB1eT4D2FYwBYRsVCXptnlANsI3AmcFrEvXhqQb6wyN5eU2RTmvAAYDtE4hYfFyyYphk1ZSl0YBgwyxPIUyK2BKD+hkDkz83c+PRoBbTcwKWCdUt6SJpFyaDOF+YDIsTgGM7kN8jWj4YE6iAE7sKA6NAgYn7Bfrd88ANm/rnXrOhS3PTUcYNlFWwLqO4ZbkhZOINLRZs+MUwJ4NP+S4/D61jUgKBQwCynyLdFbA9m29Ux8B5lzabHTBs39WwOryxo7j6toI2mYkEUkC+Cyu4c8omQ+8l3LYSulSKGBweK/M3z0D2LytdyoJBptKrzED24Qcn2qvgFk/7a3+zXGi7rMpWDoFcC+ug3MyHxjAaR2GpVDAq4q9LitgQv1mYGqSScwpPSD7fu0VMNoyDL195LIJdO7WpgrSxQIwaHhtNQCKDsGjfI6GMPtep08F3I47ulkBxyhCndCsaFNJG2lKu1fPCtjc4UNXVa4sXdD4eTZyySmAwXrVMObz1rQQlpYElivgRdVOlxWwMcFO50ntyDMBGoIt2fdrr4BZp6yAt9WWTaDIZLNt1CeAuQFMa/gOJ1Byup0OFTA4uozF4RnA5lXFE1Y630ce9BXzaVkB66Rq4MYvdB5No+KwxgCOXa/CvHPKCZQ2qUQCCvi8cpNkBUyIqRvD+G/QdlgwAZkVsK5nGOiUpTTESK929MDkE8BovUr9wHOGEUoBgK2PnPCogFdc+mUFbDNn0Zh6PPyBOB+oh/gbc9ZlBazjSKBTtmObucwAlvi3PkZTMh8JgBMqQksVMDirJoRXzwqYEFOP98TumRZR54cNADBXAaMLTpcMF9SXTaCJa7Jr1CeAwXqV/kySkoEEEYD3j3VXwJiy4pQEMoAJHZSpoUX0o95m2igrYKWzLBkcMCDiOCp23AIYrH7pRRIl88EPE/rb9aetNC6hAgatQtmZlRUwI39cGnbz9GNcZgBHVMAcAEfnANQpMdke6RPA0etV0BOHpM94v647rSQuoQI+F/2vrICjAxjOH5d272zQ+C+YESQrYGW2NmEEUAM6LTKA0UKAzVtRMh8ZgFNpAwsVMGYUzumcWQEz3PeLnbMYxDZoDCZc36+/Ai4oAI7etygu4maJTgFcYoa3aBNSMp+VDMD7rzVWwG0RtbMCrgDAqPsO7eLMMPIYD7ICVr4x6PFBBi/jW7kXe1R9Aji+4SmZz0II4DSOpJQpYMwm/2XvfFYbSZI4LGQJ3fYZTKubvhnjHbM3Izy99E2InYa+6RnE7sxVzzpYMrrpGZaBnWX+tDWKrPhFRmZ9SR9NqyoqM778IrOyRMUADNg/ZV+emMav5pnmDy/avt+/AUu+tWHkwCk4qR08HktKAFc4K/hG8aDvSgHcxFboIgM2oknV3wCwf264OA738XlGuZyHAQ98wC9JOWD6SY/yXEoAvxc8TMcRdRQhqjECFxnwMnxIYcBB8+CLYVoD4L4NeCvI2cb86bFuMY/upSkBbDRHj3rVwowS/2HaWBW6xICN5JN1NwDsXwG8lLSNAQkv7lmfMAY8EMCvAjh5cAAAFzzMXXTgbzWZ8vftpx4NeKEFHwZcE8AXsDmtACzlfhoMeKA0vSblwDT6B1MCuMKCkWTmMx8C4PPj7SR1KzHgffiIwoCLh4f5RWC3keAy85oB4EADXgqecAUOmPp8twA2Lhh5gGqqiELZUVj/b8lP5Cgw4Hl8GsaAN1Hj8MJArLCdRrOqhAEHAnhtTjCx7PGoeacEsC19uZwWrJn5rAcB+HzaTBK3AgO29baV7toBsMBALvySEVgux68A4EgDFnw/xziKjuGZwaObZgTw9KxNj4Od6GoybIcB+HzIvBnabsC2ESXMWhiwpPtunPTLZ+ql/BoDBjywU56ScgAA2xeMXsMDf21+mC7PQwn8z7xlaLsB214vU+4DB8D+0nTpNu6U8fBII/0D+C4VgI9ZObAHwFUWjEyBvxeN028uBKctQ9sNeG/8ewy4LoCt77GvvFzapc8rP66OAQ+k5bEHDnj8YkYA11gw0sx8FsMBfP77v3ox4EWFx4oBDxizMzcA7yukGeWGVgw4AMBVOLAFwDXevxadHDs9e7SfcpahzQa8tf258NIxYMn88cFpwuPz7AFw4wZsnOH7LFkB4EoA1gR+7ULgnGVoqwHbhqj2m4wAWJBULwD4KTuAjUkEAx7YVw7+HNiFc+AUD7sQEmyzB/5VdStvlqH/nVCCrQb8g+mvpT0NA5YUcF6d4uHEK8uPPkv7/ggMeOo/x9oC4CYAvEkc+JuzU/ucT4Kt9/Z0lsxxMGAdgJ+cAFzjICzpGyUYcD4Ab8LDFP0B4igA7/sB8MILwOfv0r0SPDsLm7ajYcCSFRQAjAE7ArjKzr0755toEcDGYe9Tnd1KeufAwyh/L8Hv2jbgCikYAw4F8Mnpip3KH5YEbvykKQY8sK9cw64aO/cmALjKp8tk307ZO1LpmOsDSUoD3om7GABW9F4vADttwNvrmI8B5wNwhXkKAPbr3JYtQobTp+88sXT4fDvJ04QGrBZgDNi/LHRpKFp59cmlPQHglg3YOoh8Os0aABv3Xh7iA28oPSx8yXRMdCqH0IB36i4GgEMBvDxnbxhwLICvYNc0fafpFMDz9HE3AHj+5PzbeQ6H1hmwPl8BYPey0KVxkR/Ap+4BrDbgvXevzM8BDxwCYPHMZ+9OpywSrDPgZ/WlY8CS7PAmgLcAuHsDtiW6AwBOC+BFV4EXTP6TSLDMgI/6+wPAks4LgDFgt165AMAAeLgBK+7muxQSLDNguQBjwKJH3C6Aj90D+G8A2L3tugTwLH/gN7pcfF0BJ4MEqwz4EHBvAFgyFDdR6zAAOJ0Bb7175QwA1wHwTVcAFs3+ExxNqRogD/pLx4A15RPPm/sAACAASURBVJt2AXzoHsB/aw3ADXBgBYDzz3xEnKp/NKXoOR0i+hgADgXwGgBjwNZeuQTAdQB81xeAVa+zVS9Di2YWjwGXjgFf1+ZO4+IJAGPA1l55B4ABsEfC3Kqu4h9192KJDDiktg6AQwGcf0SfMeBsAN7m7zT3XQK4gcCbZj7vddP2qodDawz4NeLSMeBQADdwppHxUCMMGAAD4EYALNkH/T8CP1YsQ2sMOESAMWDN8gkAxoABcOsA3vdW+1f2pNOm2oietQtgDFgD4JWPSANgDLgJDjwA4BYALH2j/FBtN7TGgENK0BgwAB4UJQwYAAPgVkoPRt+ytlq7oWcZMiEGLA3ok8u4WADg/g34boQAfukSwOveAKx+o63SV4JFu6BDFBgAA2AMOLcBN8CBBwDcBIA/iC/nWGUheJYiFWLAABgA92jAT/k7zSsAbqP0oK6mHGq8EXyTt1djwE5jdu0yLmYAuH8DHiOAKUE3Eni5AtTYijXLkQsx4DwAfgDAGLBTvKcNALhLA24h8C/pJhUVCHyTuFtjwBgwAG7agAEwAPYD8Hv9NYUTeJYkGWLAumjuATAGDIABcOsAjripaALfZO7XGHAiAC8BMAYMgBsB8LxHAIfkoGACz7JkQww4C4Bf2wXwrncAt2bALZze0qcBNxB4O4BD5nOxBL5J3bExYACMATdswAC4lgF3CeCYJBRK4FmadIgBA2AMGAMGwGMBcEHgY5Y0It8HFhrw+RED7gjAPwBgDBgAA+CaBhyjAYdN3IietXsfGDAAxoABMAAeUeDFn2T4deDcdmHAHqesYsBZALwFwBgwAAbAdQP/PuTSTmEElr7deZDeBgYMgDFgAAyAxxT46T7k2h6jRrTUgMUKDIABMAacGsCLXjmQHcD9Bj7ozp57MGBtLR0DBsAYMAYMgMcV+KDNKJuYEa01YO08AgAD4CFRwoAxYAy4ucDH7MOK2og1a/cuMGAAjAEDYAA8stLDx5jLi1kGFhuwVIEBMADGgAEwAG4z8MUfYg4qQoeciKX+xo0wa2HAABgDBsAAeGyBnwcVoSOWgW9y5UQMGABjwBgwAMaA699dRBFa/pXXk+zSMWAAPDYAY8AAGABPJl+6KULLDViowAAYAGPAABgAjw7AQcdxBOyEnrXQvzFgAAyAMWAADIBjl4H1ReibbFkRA3YP4tolIQFgDNgcbw7iAMASAE8WTxGXqP8ukt6AZbMIDBgAY8AYcIL8BIDDARz1VYYODFj2SQYADIAxYAy4KgeSAngEgY/ZiLUTP6gAA1Z9kgEDBsAYMADGgBs14J8H5v+Q8zjUoz7AgGUKDIABMAZMCRoDbnPmcz/UwPYdKLAxCR2KZh2a8ygx4Cvbk0tCagHAt70DGAMGwAA4lMDiV5GMBnyYP5XcAwYMgAEwa8Ap20OPAG6h9HA/fJoRQWCtAlsN+PaHNPeAAYcCeNnAkMaAATAAbiXwq+G3+W6tv0ztuLca8G2RAms2cwNgAIwBA+DqIgaAawE45EAOqQKbDbjsW1CKLocBX9l8jAAAY8DmXjkFwABYCeCIKrT0XWCzAU+KFFhyHiUAvu4+fBJSAwA+THoHMAYMgLsBsI9ZTv8jv1Dl87IbcJECK470woAB8NgA3JwBP+XvNQC4aQBP3skJ/Cp8UHYDLlNgxWEcAFgyFu9degoAxoDbAPCqRwC3UPv3WluVn8ghO8uxzICLXkgRvE2FAWsAvHLpKQAYAwbA9Qy4gcD7bW76Ir7bZ92DKjDgsvLGyv/a19psBIBbA/CxewC3ZsATAFzJgBsIvGMYvmpvV7gNq8SAixTY/x6mAFjxS2/dBwDGgLsE8A4ANw/gyYd1M5c63IDLjlnZuV87AI4EcANn65y6B3BzBrwGwAA4IgzazdC6bVhFBjzZZ7gHDFjyiAEwBgyAWwdwC4H3DcP0q7K2dqt6TkUGXJaMN3X7GAAe9lMAGAO298r9KDgAgEuaN9Q+CK1/p3pOZQZcNK5enC/daMCHsQL4xichzQEwBgyAAXBaAE+mP7ZXgy4z4KIdOe5vUwFgRXZoGMCv3QMYAwbA17X8gRe8XTuV7YaWvQpcaMBFE6wVBlwDwNbX1G8BMAbs1Su3oxAxAJyFaXPVXqyV6DkVGvDkvb5CiAH7jNmtz7iYAmAMGAADYK+m2dikkmBVDbrUgIu2ufuuZFsN+BYAD4oTAMaAzb3yDgDXAXD+mY9qPH2QSLCqBl1qwEWfZHCeRay1A60XABvnwm9OTI3hOH7/6TvBv0vtuXsA33UO4MOfnvgnZfv86cfPnwHwL4EfMu4Kgy+7d4kE7zTXWmrARUuCvt9EmgJgCYCd5jurSfaGAesBvGwvxn0A2Pgk/3J5cNrS85gLtkM/JjPgohqH7zeRALAiTCen/+ceAGPA1vwCgCsBuNHAv5m7P7pL8DFFEvoNgEsOZnAtpFsN2NrtOwGw9TZOTiYNgDFge34BwHXMqjMA//JOsDeCNxme028JWrLPzvW7TgD4qtvwWqjfAmAM2NorFwC4DoBnIwew/2asVTIDLjqMw/VNJACcGcAv6UcoBgyAAXDTgb/Ubt/5bsbSvIg0wICtJWD3vWR77U93AmDrbrkHAIwBu/XKeXl+AcBD2mL0AP5Fgj03Yx0zJKHfDZBl5WkEABb80NsAXmaYMGLAXQPY/3zgsQJ4HIH/y/Z17UdgyWMbYMBlbyI5PmgALMDM20sdABgDlgN402SaB8Bpm+NmrFU2A679JtJeG79OAHzj1c2MXeWUfmxiwHoAWwcRAPYCzyhmPte0j99nXgQeYsBFbyI5pjEALMipb9/Goj1eYcDVAbxWDiIAPPKZz3Wh+OID4FOCJPSHCvK+4Db8hphRwB/EXTgpgLdeU2EAjAHbeyUArgTgUQT+yvbBR4IVZfpBBlz0TSQ/kQfAgjrB27/U3YZWDDgAwMbu99xkgk8IYHV9sDEJdnkjaVc/Cf0hqxZ9E8mt+2215O8EwGuvaV53+2kw4AAAi2fJANgJwG0G3iDBDtuh79MZcN1tWABYUIo6uMUDAGPA8kEKgEc987Ekwi+DJfi1fhL6I4CrvokEgK+5C79NctJ4AOA+DfgOADcB4DYDb2ofh0qwYhfWQAMu2obltdxwpw1fHwCe+3UyY/9NP6fGgAMAPIqPAmQE8LI+XLK1+cDToRXbWgYacNUDoZcA2P13Ls2EjZOt9GdRYsABAB7FmcQZATz2zyF9sw0sQ2+qP6Y/AbjmNizxx777APCNH4B7K2phwAEAXpwTwmkMAB6qVpShQ1bVBj+migdCL7VdrA8AG1PqpcLxXWdzagw4AMDz+jlunAAexcwnuAwtWFUbasA1t2FZ5W6UALbuU3+uNuEBwD0asHUT4AoAO5FmDDOfgjbkXKyX6knoG0m1ZBvWc41rt/b7PgC89huHs87m1BhwBICNo6jJ12GWCVlnnfncT8bSvmbaBj3YgCtuwwLA/jdx6S4Wnc2pMeAAAFtngE3uxs0IYOtbgyN4D+nX9rF0K9axehL6BoDrbcOaaYHQBYDnjk/G+n9llxkMOALA+/ai3AeAxzDzKWyLQgILVtWGG7B5m4/bdMtqZMYiSxcAXjh2sem5rzk1BhwBYOsmhNsGE3pKAO+rwyVv+1BI4E3tJPStp1RtG5YVLkYj6wLA1k3qB8eAZJcZDDgjgHcN5nPjKFuFXNS2Olz6c2D/zulgwNW2YVnJbzSyLgBsHYUnx6JWdpnBgCMAbJ0C3jeYzlMC2Br41WRM7WMSAHu8rl1rGxYAdq9DXY7Rvnp3xYCbA/BMO0pTtPcZ5xjWwL9MRtWK3kby/1qmhwEXbcNySM5TLfR7ALD50bx46nTyIY0BRwDYulDU4i4sI4B/jqmyVnCillrJiRwPtZPQt9dutwW38hgPYOPQ7gHA5vX5e8+iVvIhjQFHANhzH34nAI6ZmJoDfzsuAM/Xdmr5l2c8DNg813LahjXV/mQPADavDqwcO0v2jZUYcASAre+jtrgWOcsIYM8jALpsHzMA2OfI7oK5hEc5/Uk6t+4BwObaxMazqJV8SGPAIQBeV09y2XpS0B1aA9/kIWRDmr1y61/TczHgoi8yHON7mI0HPQB47wpgc1Hroae0iQGX9crtub04a3tS0NLM/pzyshIVoWtAS2LA0wIAH3bhPcxW3OoAwP9l72x22liaMIzmYPk2LBuLXYQMETvLCkTsLItgeedrsD6M2HGtRwyWd3MNH5CfkxCMp96u35n2IqsIe6qr6qm3urqH3IX6uGlcVI3KpVkBuwRwwE3grkvSkQ3faxuBv5ETGruJeBQwNIaV3oihApi299IAAHeYiUltOZSuc2lWwCoAJrfH4rVCuy496RPV8JODln06vALFTgEbjWEtRZHfAABTp6b21ebLRoV0VsAqAO4yO2F8ACsNJ5InMFv0PgY3TQImBVyYjGHJ7i41AMBk/3pk/nuuc2lWwCoApu+0hetB+wQw2fCtug4aM5FXBQyNYSVn56Wog8UHMP2GlBNmRe16WykrYBUA073wS7Q83nVZYdAnc1rXgybvYrKvHJMCht7IkPw0A9EvjA9g+qKsmLuJrkM6K2AVANMPKYbrQXd8Arj5hk/+DKxXjksBQ29k2Chbj8bI+AAecJdEdKJ7DumsgHUA/FBVLgFlB+CVzs8iG76MZvj4K8elgKE3MqTuOZC/k9Tbig9g+mx6j7ub6DmXZgWsA2DyNC7HPbWu07jSnDc9/lt3Fwe1PbMyTkK7kQm9kWGi+uOJkjs8gOlL8sTsrpXrFzJkBawDYPrkAP9xS18AVgqKQeMNr16k+FXA0FHgxAal7AGH8ACm79humN3V92RlVsA6AAbOKAYbwxJ+MapafmzhGNaRsX3YFDB0FDixQUn+yrJVAKbTcm9lPmhSSGcFrANgYEAz2HWU1FSh9HiA4Vs3htU1zmZ8Chh6I8OjsoPNBKPKHYCn/LA8bFIuzQpYB8BIZliFyuLUVKHUFkK2BWMZnsFGjVHA0FHgNE+kO9hE8K97A3BXIPqQ02ZuJXBWwEoAfmhS2fbuh5qIZjo/CzB86yTw2DaZMSpg6CjwStXvSVN+0QFMHz7d/y1ITe02pLMCVgLwUj0xaH+mPp+u+YbXLlJOHCtgg6PAU0kYBAcwcDtoKWBxxxI4K2AlACNHFGNJYGpYKB33MbmfMNhnaQtgRgUMxVlaM4aMfErLOziAuyKxh9TUXs82ZAWsBGBoPjPUIDQ1Efkdg3Zo+OJrz01IuVbA0FHgkabfk0AWHMAAKmuMxP1Taa9xBnB4BYy8LjzWkVRqIvI7Bu3Q8J3qXPAnGQOYUwFj8kh3j4PQDo0N4A5QDU3Yf/YPr5m5zJpZASsBGNq4CHUdFlkJKEEOMrw3CfxcRjxdO2nTu1bAWHZeqeUjYu8nNoCR7Z8aXwKJGaf7SlkBawF42aCyjecBV05/l0fDv8RpeddQALMqYOitwJ/VjEfMSaEBjCxFrQ1yqKau/pcB3GYFPGhQ2cYDOsdTWO4M/xqnpdRGMM1EE+MktCdHf6uE0j6f5K5PstAAFhs8hWrq6smjmskKWAvAUGss0hzWJ6eMa4ThfyByey35160AzKqAsU3/iap/1S89IwMY6kVs+P1Ve+wzK2CXAMY2LgI1ockAVroLq1M1oF7+WfPLtKE/2QKYVwFDR4G3qv5V/9siAxg6ETYS+N2e1UxWwFoABjcuqm3vIMaHfjhglf6lvZYY/r+m21VP8q83QAFj+ggvt4CDT/Wr6sAAhgRwvQcAxUxVrthDp0jsSWUFrAbgJeg1ApPQQwm20Ave5JZQcXNS4389gIb/ym+jPmr4355BYBp6qV03iSpgqOWBDyQgoKn9bYEBfAQFXY8aDrZtreHtVtX3swLGvfIQdBr26b1iMZZor9L7Qqk96GJd/Vvjvw28GP5gcYEa/vckzz+LNbUFMLMChtLzk5b1aN8WF8DQjSh1DYOKGebT9MXNuGofgKMq4A7qNMzbwMMLmRNAEi8++dj9b+u9Sq7rxfC3cKfzjco65xXBxFzpXQFjpS7+VA+C3xYXwN+gkNuIeMzv/URGAs+n6UjMClgNwFhJyN046dyI5FCswEjqQXemNf9CUXkwfLEY44Z/+wjlXc9u5djbJ9wKGIo0fKdnKQeauAAGq96RWK5h31jqrMcMbbysgNUADG9ccILg+EJmjgbjXIrzHk9rz5Pihj/r+TD83wnnihGDh8YA5lbAEBJxX4SuJq5pxKgAxiaw6v/+sTWBv9fT9XetswK2B/AAdxqmidyXJmjiyAmv7oDPBRTH37+tFoCXfgwPPvA7FT+jCCbap8ftOdwKWPk6SqgfupUJKi8A/gbGW0/GZdkJ/CugU+vRrID1ANxNcJotg+zo3PyK5keBdUGKXvSlB8UNZXkPK1sCD9fjxGHbd13nimknmJrk2QHMroChHjQ8TYPF9UpkbZwA+Bht9Yl2HdJ3G/7sPrcUwGEVcJHiNGepBC4WU6bN110fpOuEtWQ7t6TGYaeyLH3+a1bhhn8/TJ94buXocvPPXAFjPWh0oTH3qld7xgQw8hYkWngkhXTiJFb/Zsw3k5gVsB6AE/Yiq9Tjn8Xwgm36ifPxINkxHBNpMDU0/GLKYPhdRSfLOPTSOgewK2Ddl0CD05VfJf62CwB34HibCNucoap+E9Cp8zRZASsC+FuS06TcQji/ZWq3se/L0LPer/ZzffMvkwz/hJ8HLo55DP9pt1Mk69GuRs2krIChkgt+MIw3ta5lonbNPAC4wIXGTDbZ/GZ8MKaLxenbP3WSFXAUAHcTnQa9gGF4O9ZYRygmyI2/P6V8PfMfWhn+ginJf2Das1QR/GAOYH4FrHsdJQiDOmcbAgI4gb+lWNH2TgMCiOn+4p1a61HT97MCTonaItVpkGRbDG/f+UsSC4NNedPupunfIBmnk2p45C1ExfyCLYA+zGlpw1jkGwP5ty8EFDC04o+6AK4z4BcPwJ1bPMwIrpUc0vQJis5iyh8PWQErAjhtExjSYsXi4t0/1BNYGLAo/Up5mim2azRNNvwdj+HBCaaPf/9ZQh+6O7YHsIAChlYcncmH1dh+AocDcCcl1EZsIVHLj0gTFMP1WCIesgLWBPAg2Wme6zZCluj/vWOR2G2T6LDXJvB7TBtJrGky5YY3uwyP5fg9lCzhPvRwLJolzRQwFmorXcev0VlxBeAadl8kDUdRstKyYvjUbR71d+iY9C2ZrIA1AdzlcJqzeb0k3p+vx+zbXSJPV0vW74iBRz3Dn9c3PPM+Y42ZT2we+hjIlxN2x5FQwFCLEhQzCe3QD/ugxXCx9gTgvYNLxTopwEjtocOK5XO1P6iLxXosxsSsgDUBnHKD2h9ibH+2na8vBGp9oTy0lx67Y6AegPtcht8frRKGr2VZ+lZwsUbMwu86EgoY2u4BNwhSzsSU59fvfmm/v1ifSi8OEcCnZ3f93kdBepoWXhudbPP2qe6v+7ufqb/YFyRl2wAcWAHz9E1enOZ8vjsUimcJti8UJgILkzBjVl5d73ycj1NRzaB9YDJ8eTX/KFr3Gx7CV7dufdAn/NGP2mpsDm+mgLEeNBgWad51dvenCnt2o8UaWxtZAL98Lu92BADqTr99ThSN/ickruZ/P1W/5jKkXUyTFbAqgI/4nKa8up//VboV/eH8/qJGQS5xGXTSXER5fvcXg1+eZl8M1NyBGXAa/i7B8BNBAL9mknrpoBjeo6vFD2ARBazZg06tq8uzy/u7+ctnsbi/vEgQkuIAfqn+X35s/+2uy0V6ZNE8izGkX5bg9PLnGryuwrr+MsxaBuDICrjD6jTV6dnlM4afP8Ph8z/3z15T12lEAPzAlYbm87v71xAYc62vqOHvCIY/EY7S8mw/g4vhok6tINFx01PAmDdiaoaHBWVZJv8NDQD/+K1nz8R6/Tw7P8sODzFVM4e0ls2zArYEMMPw/HufZ/8nxq7IXZQsDfbxeCzBAy+Gf1RI8OPL+3l/R6OwP7+/HCumSTMFjHWbsOsou1VMGPj53UBOKqYhbZ4VsCmAP8V0doumEGs2Ztt9NzE84DXPSvilnXB93f/+uX5tkVyeevQcGQUMKSTsTIkbMRYawNTdmWXQ350VsCGAvbi8yGXQRxZPMmuB4eFUU5anPz8l0wMIAFhGAWM9aGhDL/HVABnAUPvfy6//0jIAh1bAB05CVWQhTSJiFitHQgB+cJQmBaYHZBQwdlIUezw3CxQYwNuoZc+oZQAOrYC99E3QW/f8deJWwQyPGHbqKE+u+P1GSAFDb6XFWkPLmKvjCsCjqFbftAzAsRWwE58vJQBceE45hz4MD1U+Y0d5csbvN0IKWLEH/Y+X1QkMYLrhnfz8tgE4tgL20jeRALCJUpvEMjxS+RSO0qRE5SakgBV70EGPxHRjO5aTkN62DMCxFbCXvslMYmkeDB5k5PnH8Ri+4yhPSmQAKQVcqD1gf+xkeeICGNGRy/ghkRWwNoC7ESPVcUB8FnJ1RwCOnietFLBiD3paRQxrT46FJCQfv79sGYCDK2AnfZOJxNIMPBPBieFXsQH8KOA2UgoYq7keo5SejQIwtLXhJKR77QJwcAXsJFZPJJbGIqA3wQwPVD5HfvKkSOEmpoCh3v2TQh7NAObprPgI6ZYBOLgCduL1IpdBW2xWboMlSYBgAz95UmR2QEwBYz3oVRDPbxSAscKuGz4msgJWB7CPO0wlWokmLaEn17+OxfBLP3lS5PiamALWm4P2crghKoBRv5rGM3pWwMYA9iFoRC6DtogHQui6AFlsAItcYSqngPV60A8+1icqgNF05CKXTtoF4OgK+GDY2ExqggrhdOwg1Ty4yZMyjRM5BazXg3ayTRAVwCjDOpF/fFbANgB2kVC3DtZGfQdmGtPw0yp8ojRSwNgVVZ+BZwh5utANgPGdDQ+5dNQuAIdXwC6mWmVW0mLOibAAg5CG9/OuHaH7WwQVMNaDBnAQ8pCbGwDjG2Ld0L8+K2ATAHsIVpFpGpOOECHneLjTEQCwH/66KNtIrqvWg/axTxAUwPgYk4eR1pYBOL4CdjFVIwJgi9JiEsvw9MrH0U2UMqN7ggoYa3ogjzkISDIvAE55N5sDu2/bBeD4CthFShVpJlrogJNYGackGz78aU1LBazWg/axSjEBnDLa5yCXtgzADVDAHvpVMgA2kJijphveEYBlnEZSAav1oH1sAscE8CxYymEU8FkBmwD4MFqoOn4wUr/wKKDh3bxsVir8JRUw1qL8HBIEUQGcdiLD/iHKdgG4CQrYweiATDfR4IwzCcAOdAoZwH5uopTZApZVwGp3cbhYppAATkxF9l2trICjAdhBtIpcBm0BuG0ww5PTzbLy8pEp2mQVMHaKGugPuZiViwjg1AMZ9l2tWasA3AQF7ECJPcqsjn45SlvhjrnhR3EB3JPxGVEFjF0Og5SnUwcrFBHAqZnIvp3YLgA3QgHbZ9WNh9VhAXAvluEfIyZ2oNfgRQFDlInag44I4OTJvkEsq2cF7AHA5kpMCMD6MU3Mx+adwk1YAI+EIlpWAWPNplkE128EgNMTkXk7cdIqADdDAZsrMSE5Y8C3WSzDb6KlFz6pYqKAsQVH+qIOKqWAAF6lO5C1BP43K+B4ALZWYlJLOfXOBeuXUVErHzc3UUp1oIUVsF4PehmNZt2GeJV1jfrYKgA3RAFbh2vpYnksSmhjwz8Fq9TEO9DSCrhNPeh4AJ5wANhYAm9aBeCGKGDrxCrzNgaLqzhWsfJkGS+ty3agpRUwVnHFnIMOB+AnljRkPFHTLgA3RQFbKzGhfKrfMZ0EM3wvJoDFOtDSChg7KLqNF9ERAfyFx4UGUUMjK2A7ABuXbVKC5sH9Doxx74FoeC83UU7EIlpaAXe04sMeaNEAzNWHs90FfmoVgBujgA++BYpVx8UofQTCVqnMRP0x2paFggLGakJEm5n3oKMBmG2u4ChobGQFbAhgWwkspWjUo3oTzPCrSNUCxz6XtQLGakKkrxjsSghzAPNVdabXYbULwM1RwLbx+kVqgbTpBmRK097DJCSAZ3IRLa6AsR40kFXNJ9aDAZhxsL4bMziyArYEsGnZ9n/27mDHbRuNA7ghYNBbn8Fw1+i1qBXMLRisHfgWDNwac8szBMkYvvVhqwly6zOsvZkWu8UmO6bFj5T0+x2K3saiSP75kZKS7a2S6MR4GljD/1T5mXpv9WA1FXDa7U7ZIip9s4YVwP08Al1B008qgEdUAc9+HOOeYvSwTumUJY+MLlz5vP6jBu8zjujsFXDamvBT/kuZeAD3ugl3M8jRoQIuGsAll23ZAjj6icSUE5hmMA1fx5cosw787BVwWtIk9au3Ze/ToAK41wK46LnS3ZQCeEwVcMnHgfJtKgbvQSc9AlFw7rksgOv4ENY/c47o/BVw2iompa4p/BjWoAL4Q88L/7cDHB4q4LIBXHDZli+Ao8f1/ZgbvooA7rlWCa+A03aaUj7xW/jl/iEFcO8TULkDvZ+nFMCjqoALLtvy3cvoXdP3w2r4zwOaJCMK4IAKOO1sNmmEvCt6o4YUwPe9zzvFFtW/TymAx1UBlxsEGb+s8K7mWaf4evmycrL0Yz35C+CICjjsY1iFdywGFMCv+u9IN6UW1Z+mFMDjqoAL7oXmm1WDB/bdIJYJiQFS9BM/IQVwRAWctgedsrPYFC2BhxPAWdb/pRbVn6cUwCOrgGeLUsu2+3z36O0Q8uFmEA1f/ONKed8BDqqA4z6GVbasHE4A51nU/TK0EaICLh7AxZZt7/Pdo9jU+H1gDX9Rlyl7ppi7o4RVwGlZk1Sl/TaYW1UwgDMt6gpVM92UAnhsFXCxZVvGeTX2MaxPY2748gH8KfeIjqiA075nknS4UbKuHEoAd7m238pc0qQCeHQVcKkHcu8y3qR3g0iIQg1/0SxZsp7KO1eGVsBxH8MqumYaCeE4iwAACNBJREFUSgBn+w5uoWcm5hMK4PFVwIVeHvw5400KfRb088Aa/qd6j9PDDuvCK+CkiTntTxV8F3ggAfx5nq0zlfnG3f2EAnh8FXCh08icARxauKUHcPNr7QHclM7fjHNlaAV8ExBohY82BhPAWTdVimxrvZ9QAI+wAi4zZLOe7UWO7W5gDf/7gAI4/wZ0UAWctpWQtkgt9/3uYQRw3k2VEhsQUwrgMVbARTZO8j5cE3hB17xSWHvDF3tXKmwDOqgCvnRcX7W5UuzrKYMI4NvM/anAfuLdhAJ4lBVwiYk27+udkYP7ml3SAuvlixr+5mPJ/L2NGNExFXBah0wc3r8Vul9DCOCn7Jsq8QdLP08ogEdZAZcIgsw3M3AOuuoefPe66gAudE793EXmESM6pgJO2xe+G8poHkwAd+/z96hfBLAK+NL5IXzjpMs7u35X67RTfMfq0j75UOpIMeIAOKwCTlsRpp7T/EMAFzzUaKK3jT5NKIBHWgHHj9nMARz4OuSVa+pfa2/4ZaGD4A8xIzqmAr4055//2AA2gAYVwK9CulR0Ak8pgL8fawCHB0Hm+iZuG+5uWA1/eWHZFDkIfhM0ooMq4MgXkUptQlcfwAFvtX1p/tgF0OcJBfBoK+DwIMi9wRh2EnPtG83R/5Do5Q1f4iD4VdSIDqqAI19EmhV6t7/2AM7/ANZfIyZ01+hpQgE83go4OgiyPw3xdiABHN3wKX3mx+iK6nYeNaKDKuC0M5H0dwVKvGJ+V3cAd/dxORG6a5TcJ1XANQVwcA18l/tWRQ3wTwNr+KSVT/D7SHH5G1YBp72dm9wOBV4xb++rDuDuQ2RQLCIHzIQC+PsxB3DoVuNP2e9V0NV8HljD39X/EwPzN6wCjj0Ejv8oYnu4sGW+G3P+htbAW2fA4wjgyFIs4IW8oCKgj9PKZgANH7cNHZm/YRVw7ItIs+AHsS6O31Off3w94vw9eQw6AT7MJhTA3487gMNm2W3EeUzEB766w2QaPmobehuZv2EVcNrXKK+Z85avK47ff//AwG3a+PwNWlW/uWImVQFXF8Axb30+7WLu1o8DupKQ6fLpcE24NSEf5XgTmr9xFXDo1ygjF3Vteqd6WI+2/o25Ae0usO+rgAMCOKDO6d7Mo+bY3J8X6bFYm9+sAxr+2lVC/t94CB7RYRVw6Nco4xJ4e+Wa7u148zf7Hty1A1oFXGEAz5rMZxfbXeD9yroL9HSYXMM3v+ad05/Cp8qwCjj8EDhiC2i7uy4Cmtki/7ZKtyuWF1kfxbrdxfZ9FXBIAOf9/O91m6CXD4CM70O+6vtKmoc/6m/4rGcUt/FTZVgFPPshKTwq3gTt+llL517UtfclEyPbHWivX/6rgOsM4Fm23dAu+IAvYwK3H2b9X0u2Ld6uv3VPvvkyvneEVsDxh8DnP5ptvdQeelst3eQ8C97Oy0ZGnkfNehnQKuBKAzjTJNttC+wF5XkWsctUyGf6tf02fKanV5+KnNTFVcBph8DXfmgt0zHk7b7XAbDIFsElFnV/39jqfTLt3iwKLD5VwGEBnKUWuy1zFJMj07KtJJocW7y9/9osj0MXminjKuASh8CzLI8WtDn6/zLHe8HtroLQmN30ewtO6+mmRN9XAQcGcO9FcPuh2E3r+xgmbyHfd8Nn+bU3fc+W7YemTOeIq4ATD4GvX5f0vFzaHhZ5bsWy9zK49PbzX/brPuO30OJzeBXw5U9QvKsmgM9L0h6r30PJodDrq1X5C/k+G367r39Kybej/5K+sb9M4J/6ooeW6fHMYHXYZbxVzfJxNbby989No3Vt8Xtxh6yhOW8yj9ab8MEZMHC7djcv3P37qiq7213AS8xNXw1/m7Hh+9uH7ulEi2/cq14ONtpt/oHc7B/XfS3qmrruwfXX1R7udeZJ6eFgpsijV3mqyqe4S+nh92Zv+H6WNU9bk8oQ+tPTdh+0Tmr212dVHbNOvxFcdhuRMp3mypHbHXazOrrN/uPVy8/IMT3fP9b/a69fnz0ddgZZ9WvpbnXche5SzBcP12xG1xi/z7Np6k1YBew+UKXFQ+pQ6Nqa1mzN8mP6FFSi/6cfiGXde+6pc1TXP0Tw17r+ocjc3+yPabvRbc2LusXD5nXCLdgbKNMtgmdN0nJ0U9s4mM+Wx7QRfSzU/5t9ypy5id112KetE7pW8Rs/+3+89CYd9wUP6JvF8uHCEO6qz6rmdE2XjOq4vX8qHroXRkFbZtX8gus4Xjqgy17JpQ2/KfBzFxevE0q36pQz+HH1kpvVdatK7tH8NGY3q5cs8rrBVIqnEbN+yRWtNsYJf63cjusXDoND1Uu25UvnoNXmtP6f19Dwmxc1fFturXxa1m9WL0vhc6vOzSol+9N5c/frPWp1ukOHGjr+f9XC+/3xuPn6r15thramO60rHr8xrs83Qfjy907zcPzGRHsaBcf9EHrN/5mDztFb14W8pOEXxRv14ZsT+x+rdiDdYwopvPgSaZtTcfmsPXWi436/XNS7fF4sFsv94XhKrvV//urD6UfPB3sXTqNms1m37Wp9/s/my11YLIwTvjIKlsvnTvM8BNrNKa8Og+s0zflCTpPQ+VL+dDx3/l2lF3KefR7Ok+Z6/b8afl5Ho+7+nFK+/Mj1+rlZd7vzzG5aqaX3f+X/Kze2/jM3JGAgo3wgE2WjBwEAAAAAAAAAAAAAAAAAAAAAAAAAAAAAAAAAAAAAAAAAAAAAAAAAAAAAAAAAAAAAAAAAAAAAAAAAAAAAAAAAAAAAAAAAAAAAAAAAAAAAAAAAAAAAAAAAAAAAAAAAAAAAAAAAAAAAAAAAAAAAAAAAAAAAAAAAAAAAAAAAAAAAAAAAAAAAAAAAAAAAAAAAAAAAAAAAAAAAAAAAAAAAAAAAAAAAAAAAAAAAAAAAAAAAAAAAAAAAAAAAAAAAAAAAAAAAAAAAAAAAAAAAAAAAAAAAAAAAAAAAAADwr/bgQAAAAABAkL/1ACtUAAAAAAAAAAAAAAAAAAAAAAAAAAAAABMfY+7kC94OhgAAAABJRU5ErkJggg==;imageBackground=#716F75;" parent="1" vertex="1">
                    <mxGeometry x="170" y="260" width="101.12" height="56.88" as="geometry"/>
                </mxCell>
                <mxCell id="63" value="" style="shape=image;verticalLabelPosition=bottom;labelBackgroundColor=default;verticalAlign=top;aspect=fixed;imageAspect=0;image=data:image/png,iVBORw0KGgoAAAANSUhEUgAAAL8AAACVCAYAAAAJ3StWAAAXMUlEQVR4AezXBczkSHqH8XdBfbs+8JEHe+CYmfnOy+Q5JofZYinUQXFYGBJjIgp3mCwIjcOJxfcJAqINk6XzqVJ5wpbUXbLL1a+/7qmRfjMfP73lf+3uSPzl/+tvLlwo0KGEKCrRoYD4ieIh+Lp4oUAPC4MSoqCEgUWPAhJNFw/Bx6ULBXrYAYMSckAlDOxAjwISTRMPYaorFwv0sDsYlJADKGH2dHsUkPGiKV8cXb1YoId1MCghAZUwsA49Csg40dgvjK5dLNDDjmBQQgIoYUZ2exSQyAUY94WRe/g+F8Bj+LoXII4/unGxQA/rwaCEeChhPLs9Cki0n+uT0c1LBXrYGQxKyAQlzMxuj2J/I9r3iehFlwr0sAEYlJARSphA3R7F7k6064PRiy8V6GEDMighDiVM4G6PAoKBSCFyZF56qUAPewAGJWSHEuZA3R4FBr1o+E70skvvRQ97QAYPQwYehjlwt8d7IUA0fCd6+aU34l9hD6jDOyAD70B34O6/4o0QIFKIHJlXXM7RwR5Ahxyyg3I32vXB6JWXc3SwAXXIIQ6K3Sgewqsup/gOZJCBHB1sAB1yyECK70Sq3M3wHcPunWrR+OJefTlFA4sWGWQgRwc7Q4ccMjDsNkiVuhlaR/eOsmh8Ua+5nKKBHWiRQQZydLAeOuQQYG+3QXrgbobW3b2zLBpfzOuupGhgd2iRQQZydLATdMghA65ug/RA3Qzt+O6dQT+6vGc6Buh5AfyH73EB/Ifv7j4zjv+Uvf5Kghp2hBYZZCBHB+vQIYcMpGhGdhukgboZ2pHdGgnkTqEfXcobrySoYSdokUEGcnSwO3TIIQMpmondBunMboZ2YrdGArkT6EeX8KYrCWpYD7+PFDKQo4Md6JBDBlI0nt1mZvePPLs1EsipU43p8xi+3xDnD1+/e9IXII7/LVcT1LABNEghAzk+hxwykKI58m6NBHKqtEL63no1QQ0bUIMU4pCiOZFujQRyirRC+t529VdgD+A2xOF3DtT9HYjD7QN1fwVyivRi+n4S9gB+A+Lwswfq/izE4TcO1P3JOP5j8/arK2xhA6qRQBwO0d1iBXFIUOt3j5dmTN87rq6whQ2gRgJxC97dYjWym6DW7x4n7aC+d15dYQs7Q40EMl6Q7harid0EtX73+ChElLxrfT9kjxW2sB5qJJAdxnR/zbP761h5dhPUnt2tf/e4KEQUvHtd4guoIHussIWdoEYC2WFsN0EdtkuPLsrA3S1W/t3joh0M7z3rEgb2f1SQPVbYwo5QI4HsNqmboA7UrWD/h0EZqLvFyr97fDRj4b13XcLADqGC7LHCFtahRgLZwbeboJ7ZrWCHYFDO7G6x8u8eJ92gB48B+l8A/+H7XwD/4XtdAPfw/bta4vjfty5hYF1QQfZYYQs7UCOB7Bakm6Ce2K1GNA3Kid0tVuG7x0E7ON/71yUM7EgVZI8VtrCokUB2C9pNUI/sVhOaBuXI7har8N3joRmb7wPrEgZ2ogqyxwpfjQSyw6G6Cb7G1UXl0TQoXV18NVbK3XNHO+jvg9dKGFhPFcTDUt0K1pNBeWRddZoxfx+6VsLAzlRBxlm0WwVoGpRH0l2EXszfwzCwgXx6ZPfxwN2Pj+x+PGDT4PGR3U8H7j4cxz9Xfu2d6GADMLgFGeFD6AN1ezw4svtg4O6HRnZvwQTqdngn5DzTjPl74FqODnYGgxIyQYF+ZrdHcSTdEmZmt0MOOe/0o/5ydIrDDzHEHsWRdUuYczX8OH48eC1HBzuBQQmZoUA/sdujONJuCTOx2yGHHAv96FwPXcvRwY5gUEICKNCP7PYojrxbwozsdsghx0QlEt71HB2sg0EJCahAD+vQoziRbgkD69Ahhxwb5aDDw9dTfB/WkBFydLA7GJQQJwy6GWSEAv2ebo8CMkKGH1io+31IISOUMHu6HXLICGt3V59izOGR6ykaWJxhDRkhRwc7YFBCRhh2W2SQEQr0O7ofg4yQofXsGtiBHoVHt0EKGaHc0e2QQ0ZY48zd1acfdQ8Q/hfAf/jwvAAe3QztjG4JM3P48L8A/sP36p7o+B+9nqKB3eEMa8gIOf4BJWQEV7dFBhmhwD9O6GZoA3RL0KU/v9sgndD9B+SQEdY48+oqUA86Bui4AApd/yHCf4DaXcUhrnHm3z3V8T92PUUDO8IZ1pB5JndbZIG6Gdpz3m2QBuqucabT9accxOPXUzSwE5xhDfHn1W2RzexmaI+k2yCd2V3jTK/rTy/mP0DnBVDotsjUBrh8t0GqMHyP7jGP/4nrvw07wxkSyES3Z3ZbrCY278Wfzez+Ge6d2F2hndm9DZkowdnM7m9DtIhmDL8aYIT3eXR/c2a38RjhPfi9md3fwz0el66Z2f1NyET3Bbh0v3q643/yRoIa1kOLDOJhTrdB6tlN0RxZt0bi2c3Q6nb96YTmD7FFpt/1H6B7iIpd/QFmaP27Jz1+PHUjQQ07QosMMs/kboM0UDdFc867NZJA3QytTtefTsh/iC0y3a7/AP2HqNDVH2CG1r970uNHcSNBDbtDiwwSnLvbID1QN0Vzzro1kgN1M7QKXS8KEa8htsj0u/4D9B+icld/gBla/e4S47914/mQiRLUsGiRQSZ6wcxugxQynvc/b4pm4W6NROmcM7Qzu8+HhCT8FlIJg+/2HOK3eA6/wr9jM6ObKndTbDy7G9Cl79f9FiTK3WxG97thUJ7P8X/4RgkD+z++B6Kggh3YnHh3AztQnXj3ewZNgxISQpgXOBw+FC/Al8ACqkOsFupu9nSrhbpfqjj84Bcg+PAVLsDY7kZz+ArdDaxDtUDXoNQZvrurP/6P3ChhYF3wPZBgxnc3gbsV7AjfGLj7zSO7VeDuZkTToAzc/R6NrsYAnRdAobvRHP5AdeTd4fA1L8D3KHW9x/84DOxE3wCZofDsfu3M7qdhPXzRzO4XeXY/PbP7tR5Ng6dmdr/Bs/u43vg/eiNHDztRBZnhCRiP7pfM7N7y7H52ZvezHk2DWzO7X+LZfWJmt/Lo9sh9ejNe6M0CPexIG0gAJcyEbnXk3WpC06A88u5mQrdH4dua+0IL9FrD9xhidSLdSnmAS3c3/sNXGz8+drNAD7vHBnIAJYyjW51Yt3I0DcoT624c3R7F3EaoF1qgdw9fdYjViXYr5QEu3d34D19r/ECBXmv4jiFWJ96tlAe4dHfjP3yt8QMFPo8NRFGJL6C6M7r06KK8Q7obfN5/+Crjx8dv3g/RFbvTxa7wWxSdJo/xp/ghvBSiKMOPLtT9EayVu6/Dr+B1C3R/aYFzfgd+eaHuL2IN5/hTNLD4a8UXmqFduHuGteIA/wYWf4PXqXb1z/kd+Kfluruf7+7hQ/GFZmiX7w4PSGmAGF4Ala7+OQ8HqN91PF/H8FVeaIb2nHXPsNYZoMIFGHb1z3k4QP2u+/ky/k/cTNHAOvw1XgoJKEN7TrtnWAfuvg5/A+vwN3idQlfjnN+Bfzqn3TOshd9uw47w17gACeBe/NmE7vMDdVdoR3bP8OxA3efg6ZHdp/GcQN3n428mnPN9gbqX8E8ju3+JVaDutQndzwm//eaEw3khJIB7cHvCCJ8b8NI1E7rPCtitR3Zr3Buo+4wJ3S3uDtS9f8I5/xzuCtR9NtqR3R8TfktQL/CfpxTNAv/7keLP9LujzrlGssA5b7Favqv2v7U/jnvcD8Z7+P4H5DFA/wPS7yaoncPXP+ctVifWzdC6hg9xPxj/4fsfkN8A/Q9Iv5ugdgxf85xr3K/fHQ5f8fkOhg/Z9RezxjF8jQPyHaD/Ael3E9TD4eufs353OHz95zscPrDvwXw5LkGUDLsvUO4+Z6HuM/AEnqF/zot1H8e9Czzfx3A3xD3+KDptcfxRpB2Mojj+KIrjj6I4/iiK44+iOP4oiuOPojj+KIrjj6I4/iiK44+iOP4oiuOPojj+KIrjj6I4/ihyjD9N01fjwwOvhAT0Ynx44E2QHV6EB/HhiR7D63E3ZI/XDb7+g5ADuRuvwaP4sIf3QBxegHfjwyM8jJdAHF6EDw8UWEE8JLiFD/+PDLLHs/BOFB5n9G48HzKW65NfBjvwNP6jnXOKslyJwnBO47bG0xzbtueMbdu8tm3bOtNj27Zt2/b1nf3wP+y1V7KiyjAP3+o+VclO4a+qnUpVJSoSQ1rigLD/DIsPEN2JXYhzwyniVVSCJpjErrvkgeijiZeJEy7zsMnAfjliFvGvA5t7iN4GncMbOtcvJNI7KIOgsNPToCMcQdx0U04oh5lEWXfiF+IAUxWJ4jdhdwkRjrgoYhzCVbKZyHYbxZ9CrGf2VYt/MPGPAtuTiVgz8YONRJJi8Tcmrqisa5TLALfiTyBOCcMw6pjW3B4ynovFD0G4clB5sbdB/NHEOtj1QvztFJfLSCviB/uIvIrEX5a44WF9t3YsftBYGLxG5HfRG54T9rqz+DoI46QSbYigTZoQHxHXhb2Xb4P4nxHPvEl8SjQlgg4oKfxi2SGtJfoQdcxsQRAh4j9ho5Gp+AGeX8ql+APEGp2G9ShRz2b51IELt1bYO4nyciZ+8IMwupKIsCmIADFT2Bkrrpko4nspEGJZ0QBOEAGPxX+I2f2DqKTQtnwXG8dcRjt0FXamS/EzOhHnRdhlIuhC/BV1GnBaN2UDTY4Xdnu4FX8csUcYfc1mwgbz+yHCzOKayyx+uULBfCKeXcRD8ecVz/oK4aoYKnzbJBe25onRyUj8GTBbdUyE/0m0cSj+l0R4NUXlkyQmAIa4Ej+oIF6w/kGYZoGCOr5dQ9nARPz7CgXTTNhu4KH4q4lntVcs/nliBq6lCyaLtMYbiR/h2YmdOjMs/RyI/3uhJcw6uUekca5r8YPXdKbL4kzuidTxxb5GHCeDuOYNhYUhK6ClevGbPksVi2DXC3KZiF9DA1mFcM5rNsUf8nCmbROzvUiV+COIlSIzP5jc87a4ficR44v/3hQ/iBXvb7xTC78vxQ/yE9dEhpogTlJF+F9/E2UQ54v/HhU/eIgYpmNjDOLuP/GDATpTXwk6n6r3i+teNPm07ZXP39TA5x/Bwq7eCz6/EP8xlz7/eKfiBwHic34t87PT2vD5/4YtL3z+eUrFD6aKTE0S8b+I+OVmU3LiS99ShYXxkcFszwcivJgHsz1feCj+TS5tveFC/JzncR1nHZFgY7YH65dckygmZlKVix8POSMy0AdxzUX4VazfsLucAgXlitJynp/NLNTXWb8SreCZh8U8f4X7WfygF3dxwV7iUYM6rSTC14gPUk4IJ8ZZ1ZDqKcRrRG3irAjvbdFeXVzPCRGtiKBNGsF1ku8nr4gXeDl1txVuXR07zxNfvZ8VNm9g9Gns/gvv3Sl+0NxsuYL4wrtWZ/ZwMHQQtEEtaGy1dMfdfeE150eTzE6wZQ8vUR6xWU7NovD+dmlXun3Rqha1gU33gvhBNeKSmfhBebmSUzHtCM0z8aNl7TN4+Eki3v6iMCxzUMsWtqpT0h6VoET8ICux8UETPyhOHDMTP2hCXFVc1/9iBNE8FT+obLC8tpFDewH4kHsUFMQZVKbZx7giGKX+ViF+EAM36/SDJH6Qk9hjJn6QDytL/1Qg+jkYUbTbIn6AnUTKd0blx9RkS5s0Jko6+GyenuXFDqVMdnKVRJpa2kWse6nIwiu7LNucfLcWK6u8LLypi2nIzMyO1Z1cldnOLzvUkLbdi9/H517GF7+Pjy9+Hx9f/D4+ig36+Pji70wk68b5RBBR91B62xI5HjTx94WI+RTgTxY3Ll+SU523mTD5QcsF8USIKCrCv7MoinhxYsTvxFoVaUMdhcBXxCD+PcOEHBangQ9ZXJadgfgI66MmulnKjbqLuJPiD7EVieHYvDAMv+9q8aNiDymylQsfUObLPFrsCCYIIRRWuIIxREyF/b7EMmKlxXtvQrCqxD8HZdQE2xr3IK+aA46j3O8K8X+BRUPRrDerL0aFJkIY9YhuxAtYKixb9pPE48I9qo9n9Ma6jHgIJTPxGPGEToU1xFfUVujJMsH2GVRaGeZudMS1QYTx8JeIugbiP01shD1d8SOdzxOPsJPNahLbsMCuJUaAQvhQFY2waNFoa7Kv3M2R3kZmdQQKoKHGsQ0nbWGjPWxGEG1wXRcsCtNYel8murN0HUIZt4Sdcgau3P/iy2o4/laQoya0khHp64ayr4645miY/YXGarF8hDMdVoGGnoZuIrHX+DnYDncj/v6o6BQWF+Q9K0RwiQsD8d8TP4vjO8pAmJ9j29sRIjMr6PnEOCxvCCJ+E4b1ndh0rYEvIK5X0Ti/gLhmEdeQh74ogNkYkl8j9rDl16nEYlTAKqKsjviv4EvnASJKih+CWUO8jd53BcLfIi4QC4gQKusNLIUIwF4bcUTM5+yUhrWo8M3ECybiDyOeQhlpYBmOh3mXOIp0xrJlvyOQRg3nCh1HQ51LPIbwQ7A5Evf9aeBSriemQ3jy1I6VYr/DVSz9mIJ6eZlYh8YbYkeyfMKWW+xBPS8hQkyHh4mN0Mdp5HcDfl8innEq/lVI6A2iok3xt2W/hzCXaQFaqcbE9ygr6C/Ecy4SSez3ZeY+XGENJ564jkKV6etA7GB+ZBViO/7fg57fzO3RIIoXdMQfx5YAJOD6RPzexEcMJn4NjWUU6ynPoGetIQ5cyk2cN6ijK8Qh1NNfYiUj9/+7QRQ8TxnwuyjxN8SngTBWJ0+w8APsGZzcWHf0D7YylkB4OuI6s/08GraG/DaUtsQ6o+zoyLLidxrkOZ7pIwFxj6EBp2cHLkx3JH42NL6DnjVgQ/zctRiI+zX0HNOIENjEertD4j75nLxMiP2wbyDEuIlCk/d9Sexm141ijagnCnMEUd5E/EVR2MnECSb+CIwkE9kxhSXNxA9BXEODrYM0atjueYznDTbT69TR9xBxIp5zjrlOCRg55uPQ30NS/Kx+tlr0+RebbDIqS4zDaF8FYb+ioWvEKubGPYpGG2KNRYq/PfQUYlxB2ct6bklsEhtsFjkV/wjWgxxnmQ4SR22I/1nmCtxApoOM3BbEL4XYG0upg4JoeR8a1xxxXTWxK+119FDtjMQPvoV7spuJfzTcscKs8kqZiR+sQfy37PiP5+BGBAUBQ7cHoM4+Qo97FDaxndBQ/P2IHRbFv0iK34DxxHfM7z8Ad+ks/HINZIGrdRONQoq/LUbBoCDOgvh7uhE/L9ju2BmTDhX7JxtWH9cRf1M2nK8l3sPvacRXcnh1IP58SENhHVuViYtMLE2Q9kw61+ZkYZ8RP5uIPxNs8fMqrzC3MJsQ/yo0VCPxPwY34BjypMH1uSamUsMs1FEmdAgD0eteEEI4JE7KyMJcyH/Zy2wAtqyKPwdGmIfY/XOJT8WJCr+h49Bk2SPuY/z/D5skScYoUl6WxW0RvzhY9CO03IN40CwMc1L82/DysRb/Z2RD/RFiHoS2m8hrV/zgeVTw7+hpxjK/8DxeqN5E2kN47i+omLfgRhzFdOT3cBkaGImfC1YIfCpeSn9Cfs+zuA+Qh1TsY5biT8RouEo840P0eL/C/s8GdXQMFbwCLsQwIgoCP4t7x8A+L8sNxFImxjfhCg5DHj6xIf7cGKlOIG87sH83Ree4yhr4nYT8jUa5nWdu0jykYQiEPgj1nIrrZ3ot/kLoieQUZRXmT3Zh7gN3I6rBj20BouW6bYR3Fq2/kpjKzMAPeWUujVzv35VoLM6LyQ77lYU/2gPTagFmsxHRkW+yN3lmBMLSsCnF5kQzCK8ci4uA/bZobLnk1C/cgrwGO6K6Y9o4wqCOgqAs62B4w+qMOosUZZmZaCemE4sS3fDOEGB1Ei9c3GSDD4uVcH8jVhdcE0fFCBYHD6G9GOXSEa0xYoezBtYFZRxjoI94MRWbjPTe/rU9Pj4QexQ8hBcfpIVtPj5t8W42Ubzo3nFuAXqWYlBVg67GAAAAAElFTkSuQmCC;imageBackground=#525252;" parent="1" vertex="1">
                    <mxGeometry x="176.34" y="470" width="88.45" height="69" as="geometry"/>
                </mxCell>
                <mxCell id="65" value="launcher &lt;br&gt;microservice" style="shape=hexagon;perimeter=hexagonPerimeter2;whiteSpace=wrap;html=1;fixedSize=1;" parent="1" vertex="1">
                    <mxGeometry x="480" y="464.5" width="120" height="80" as="geometry"/>
                </mxCell>
                <mxCell id="66" value="" style="endArrow=classic;html=1;" parent="1" edge="1">
                    <mxGeometry width="50" height="50" relative="1" as="geometry">
                        <mxPoint x="220" y="450" as="sourcePoint"/>
                        <mxPoint x="220" y="350" as="targetPoint"/>
                    </mxGeometry>
                </mxCell>
                <mxCell id="67" value="Communicate&lt;br&gt;&amp;nbsp;with k8s api server &lt;br&gt;to schedule pod group for jobs" style="text;html=1;align=center;verticalAlign=middle;resizable=0;points=[];autosize=1;strokeColor=none;fillColor=none;labelBackgroundColor=none;" parent="1" vertex="1">
                    <mxGeometry x="30" y="370" width="180" height="60" as="geometry"/>
                </mxCell>
                <mxCell id="68" value="" style="shape=flexArrow;endArrow=classic;html=1;width=24;endSize=10.67;" parent="1" edge="1">
                    <mxGeometry width="50" height="50" relative="1" as="geometry">
                        <mxPoint x="440" y="504" as="sourcePoint"/>
                        <mxPoint x="290" y="504" as="targetPoint"/>
                    </mxGeometry>
                </mxCell>
                <mxCell id="69" value="submit DDP job to Volcano Scheduler" style="text;html=1;align=center;verticalAlign=middle;resizable=0;points=[];autosize=1;strokeColor=none;fillColor=none;" parent="1" vertex="1">
                    <mxGeometry x="260" y="535" width="220" height="30" as="geometry"/>
                </mxCell>
                <mxCell id="71" value="communicate with Volcano to do real time streaming of &lt;br&gt;training logs to web UI" style="text;html=1;align=center;verticalAlign=middle;resizable=0;points=[];autosize=1;strokeColor=none;fillColor=none;" parent="1" vertex="1">
                    <mxGeometry x="239.78999999999996" y="625" width="310" height="40" as="geometry"/>
                </mxCell>
                <mxCell id="73" value="rank 1&amp;nbsp;&lt;br&gt;node/pod" style="shape=hexagon;perimeter=hexagonPerimeter2;whiteSpace=wrap;html=1;fixedSize=1;" parent="1" vertex="1">
                    <mxGeometry x="470" y="300" width="90" height="80" as="geometry"/>
                </mxCell>
                <mxCell id="79" value="" style="endArrow=classic;html=1;" parent="1" edge="1">
                    <mxGeometry width="50" height="50" relative="1" as="geometry">
                        <mxPoint x="280" y="290" as="sourcePoint"/>
                        <mxPoint x="340" y="330" as="targetPoint"/>
                    </mxGeometry>
                </mxCell>
                <mxCell id="80" value="deploy k8s job resources to &lt;br&gt;execute the ddp program" style="text;html=1;align=center;verticalAlign=middle;resizable=0;points=[];autosize=1;strokeColor=none;fillColor=none;" parent="1" vertex="1">
                    <mxGeometry x="175" y="210" width="170" height="40" as="geometry"/>
                </mxCell>
                <mxCell id="81" value="rank 0&amp;nbsp;&lt;br&gt;node/pod" style="shape=hexagon;perimeter=hexagonPerimeter2;whiteSpace=wrap;html=1;fixedSize=1;" parent="1" vertex="1">
                    <mxGeometry x="360" y="300" width="90" height="80" as="geometry"/>
                </mxCell>
                <mxCell id="82" value="torch ddp process group" style="swimlane;whiteSpace=wrap;html=1;" parent="1" vertex="1">
                    <mxGeometry x="350" y="260" width="440" height="140" as="geometry"/>
                </mxCell>
                <mxCell id="74" value="rank 2&amp;nbsp;&lt;br&gt;node/pod" style="shape=hexagon;perimeter=hexagonPerimeter2;whiteSpace=wrap;html=1;fixedSize=1;" parent="82" vertex="1">
                    <mxGeometry x="224.78999999999996" y="40" width="90" height="80" as="geometry"/>
                </mxCell>
                <mxCell id="109" value="...." style="text;html=1;align=center;verticalAlign=middle;resizable=0;points=[];autosize=1;strokeColor=none;fillColor=none;" parent="82" vertex="1">
                    <mxGeometry x="305" y="65" width="40" height="30" as="geometry"/>
                </mxCell>
                <mxCell id="117" value="rank N&lt;br&gt;node/pod" style="shape=hexagon;perimeter=hexagonPerimeter2;whiteSpace=wrap;html=1;fixedSize=1;" parent="82" vertex="1">
                    <mxGeometry x="340" y="40" width="90" height="80" as="geometry"/>
                </mxCell>
                <mxCell id="83" value="Collective communication Backend" style="swimlane;whiteSpace=wrap;html=1;" parent="1" vertex="1">
                    <mxGeometry x="520" y="70" width="210" height="110" as="geometry">
                        <mxRectangle x="520" y="70" width="240" height="30" as="alternateBounds"/>
                    </mxGeometry>
                </mxCell>
                <mxCell id="85" value="nccl (GPU)" style="whiteSpace=wrap;html=1;" parent="83" vertex="1">
                    <mxGeometry x="20" y="50" width="80" height="40" as="geometry"/>
                </mxCell>
                <mxCell id="86" value="gloo (CPU)" style="whiteSpace=wrap;html=1;" parent="83" vertex="1">
                    <mxGeometry x="120" y="50" width="70" height="40" as="geometry"/>
                </mxCell>
                <mxCell id="92" value="" style="endArrow=classic;startArrow=classic;html=1;" parent="1" edge="1">
                    <mxGeometry width="50" height="50" relative="1" as="geometry">
                        <mxPoint x="730" y="300" as="sourcePoint"/>
                        <mxPoint x="630" y="200" as="targetPoint"/>
                    </mxGeometry>
                </mxCell>
                <mxCell id="93" value="" style="endArrow=classic;startArrow=classic;html=1;" parent="1" edge="1">
                    <mxGeometry width="50" height="50" relative="1" as="geometry">
                        <mxPoint x="620" y="300" as="sourcePoint"/>
                        <mxPoint x="620" y="210" as="targetPoint"/>
                    </mxGeometry>
                </mxCell>
                <mxCell id="94" value="" style="endArrow=classic;startArrow=classic;html=1;" parent="1" edge="1">
                    <mxGeometry width="50" height="50" relative="1" as="geometry">
                        <mxPoint x="510" y="300" as="sourcePoint"/>
                        <mxPoint x="600" y="210" as="targetPoint"/>
                    </mxGeometry>
                </mxCell>
                <mxCell id="95" value="" style="endArrow=classic;startArrow=classic;html=1;exitX=0.5;exitY=0;exitDx=0;exitDy=0;" parent="1" source="81" edge="1">
                    <mxGeometry width="50" height="50" relative="1" as="geometry">
                        <mxPoint x="510" y="260" as="sourcePoint"/>
                        <mxPoint x="580" y="200" as="targetPoint"/>
                    </mxGeometry>
                </mxCell>
                <mxCell id="96" value="Model init params and &lt;br style=&quot;font-size: 14px;&quot;&gt;gradient data are &lt;br style=&quot;font-size: 14px;&quot;&gt;synchronized &lt;br style=&quot;font-size: 14px;&quot;&gt;accross replicas" style="text;html=1;align=center;verticalAlign=middle;resizable=0;points=[];autosize=1;strokeColor=none;fillColor=none;fontSize=14;" parent="1" vertex="1">
                    <mxGeometry x="670" y="180" width="160" height="80" as="geometry"/>
                </mxCell>
                <mxCell id="97" value="proxy model artifact files for saving" style="text;html=1;align=center;verticalAlign=middle;resizable=0;points=[];autosize=1;strokeColor=none;fillColor=none;" parent="1" vertex="1">
                    <mxGeometry x="140" y="50" width="210" height="30" as="geometry"/>
                </mxCell>
                <mxCell id="98" value="" style="endArrow=classic;html=1;exitX=0.5;exitY=0;exitDx=0;exitDy=0;" parent="1" source="81" target="4" edge="1">
                    <mxGeometry width="50" height="50" relative="1" as="geometry">
                        <mxPoint x="400" y="290" as="sourcePoint"/>
                        <mxPoint x="400" y="140" as="targetPoint"/>
                    </mxGeometry>
                </mxCell>
                <mxCell id="100" value="ML model and&lt;br&gt;metadata logging" style="text;html=1;align=center;verticalAlign=middle;resizable=0;points=[];autosize=1;strokeColor=none;fillColor=none;" parent="1" vertex="1">
                    <mxGeometry x="290" y="135" width="120" height="40" as="geometry"/>
                </mxCell>
                <mxCell id="102" value="Actor" style="shape=umlActor;verticalLabelPosition=bottom;verticalAlign=top;html=1;outlineConnect=0;labelBackgroundColor=none;" parent="1" vertex="1">
                    <mxGeometry x="852" y="610" width="30" height="60" as="geometry"/>
                </mxCell>
                <mxCell id="103" value="" style="shape=flexArrow;endArrow=classic;html=1;width=18;endSize=6.27;endWidth=22;" parent="1" edge="1">
                    <mxGeometry width="50" height="50" relative="1" as="geometry">
                        <mxPoint x="832" y="645" as="sourcePoint"/>
                        <mxPoint x="772" y="698" as="targetPoint"/>
                        <Array as="points">
                            <mxPoint x="792" y="678"/>
                        </Array>
                    </mxGeometry>
                </mxCell>
                <mxCell id="104" value="Web UI" style="text;html=1;align=center;verticalAlign=middle;resizable=0;points=[];autosize=1;strokeColor=none;fillColor=none;" parent="1" vertex="1">
                    <mxGeometry x="802" y="685" width="60" height="30" as="geometry"/>
                </mxCell>
                <mxCell id="105" value="web backend&lt;br&gt;microservice" style="shape=hexagon;perimeter=hexagonPerimeter2;whiteSpace=wrap;html=1;fixedSize=1;" parent="1" vertex="1">
                    <mxGeometry x="650" y="685" width="120" height="80" as="geometry"/>
                </mxCell>
                <mxCell id="106" value="" style="endArrow=classic;html=1;" parent="1" edge="1">
                    <mxGeometry width="50" height="50" relative="1" as="geometry">
                        <mxPoint x="650" y="670" as="sourcePoint"/>
                        <mxPoint x="580" y="560" as="targetPoint"/>
                    </mxGeometry>
                </mxCell>
                <mxCell id="107" value="REST" style="text;html=1;align=center;verticalAlign=middle;resizable=0;points=[];autosize=1;strokeColor=none;fillColor=none;" parent="1" vertex="1">
                    <mxGeometry x="580" y="655" width="60" height="30" as="geometry"/>
                </mxCell>
                <mxCell id="110" value="jobs-monitor&lt;br&gt;microservice" style="shape=hexagon;perimeter=hexagonPerimeter2;whiteSpace=wrap;html=1;fixedSize=1;" parent="1" vertex="1">
                    <mxGeometry x="340" y="700" width="120" height="80" as="geometry"/>
                </mxCell>
                <mxCell id="111" value="" style="endArrow=classic;html=1;" parent="1" edge="1">
                    <mxGeometry width="50" height="50" relative="1" as="geometry">
                        <mxPoint x="630" y="730" as="sourcePoint"/>
                        <mxPoint x="480" y="730" as="targetPoint"/>
                    </mxGeometry>
                </mxCell>
                <mxCell id="112" value="REST" style="text;html=1;align=center;verticalAlign=middle;resizable=0;points=[];autosize=1;strokeColor=none;fillColor=none;" parent="1" vertex="1">
                    <mxGeometry x="540" y="735" width="60" height="30" as="geometry"/>
                </mxCell>
                <mxCell id="113" value="" style="endArrow=classic;html=1;" parent="1" edge="1">
                    <mxGeometry width="50" height="50" relative="1" as="geometry">
                        <mxPoint x="325" y="740" as="sourcePoint"/>
                        <mxPoint x="180" y="540" as="targetPoint"/>
                        <Array as="points">
                            <mxPoint x="180" y="740"/>
                        </Array>
                    </mxGeometry>
                </mxCell>
                <mxCell id="114" value="communicate with Volcano &lt;br&gt;to monitor/kill/clear &lt;br&gt;jobs" style="text;html=1;align=center;verticalAlign=middle;resizable=0;points=[];autosize=1;strokeColor=none;fillColor=none;" parent="1" vertex="1">
                    <mxGeometry x="180" y="685" width="170" height="60" as="geometry"/>
                </mxCell>
                <mxCell id="118" value="Public docker repository" style="ellipse;shape=cloud;whiteSpace=wrap;html=1;" parent="1" vertex="1">
                    <mxGeometry x="670" y="412" width="120" height="80" as="geometry"/>
                </mxCell>
                <mxCell id="120" value="" style="endArrow=classic;html=1;" parent="1" edge="1">
                    <mxGeometry width="50" height="50" relative="1" as="geometry">
                        <mxPoint x="610" y="480" as="sourcePoint"/>
                        <mxPoint x="660" y="460" as="targetPoint"/>
                    </mxGeometry>
                </mxCell>
                <mxCell id="121" value="" style="endArrow=classic;html=1;" parent="1" edge="1">
                    <mxGeometry width="50" height="50" relative="1" as="geometry">
                        <mxPoint x="670" y="480" as="sourcePoint"/>
                        <mxPoint x="620" y="500" as="targetPoint"/>
                    </mxGeometry>
                </mxCell>
                <mxCell id="122" value="Pull the ML &lt;br&gt;project image" style="text;html=1;align=center;verticalAlign=middle;resizable=0;points=[];autosize=1;strokeColor=none;fillColor=none;" parent="1" vertex="1">
                    <mxGeometry x="620" y="492" width="100" height="40" as="geometry"/>
                </mxCell>
                <mxCell id="126" value="" style="endArrow=classic;html=1;" parent="1" edge="1">
                    <mxGeometry relative="1" as="geometry">
                        <mxPoint x="610" y="560" as="sourcePoint"/>
                        <mxPoint x="680" y="660" as="targetPoint"/>
                    </mxGeometry>
                </mxCell>
                <mxCell id="127" value="log stream" style="edgeLabel;resizable=0;html=1;align=center;verticalAlign=middle;" parent="126" connectable="0" vertex="1">
                    <mxGeometry relative="1" as="geometry"/>
                </mxCell>
                <mxCell id="128" value="&lt;span style=&quot;color: rgb(240, 240, 240); font-family: Helvetica; font-size: 12px; font-style: normal; font-variant-ligatures: normal; font-variant-caps: normal; font-weight: 400; letter-spacing: normal; orphans: 2; text-align: center; text-indent: 0px; text-transform: none; widows: 2; word-spacing: 0px; -webkit-text-stroke-width: 0px; background-color: rgb(42, 37, 47); text-decoration-thickness: initial; text-decoration-style: initial; text-decoration-color: initial; float: none; display: inline !important;&quot;&gt;Do real time streaming&lt;br&gt;of torchDDP job logs&lt;br&gt;to web UI&lt;/span&gt;" style="text;html=1;align=center;verticalAlign=middle;resizable=0;points=[];autosize=1;strokeColor=none;fillColor=none;" parent="1" vertex="1">
                    <mxGeometry x="620" y="550" width="140" height="60" as="geometry"/>
                </mxCell>
                <mxCell id="129" value="" style="endArrow=classic;startArrow=classic;html=1;" edge="1" parent="1">
                    <mxGeometry width="50" height="50" relative="1" as="geometry">
                        <mxPoint x="220" y="550" as="sourcePoint"/>
                        <mxPoint x="540" y="560" as="targetPoint"/>
                        <Array as="points">
                            <mxPoint x="220" y="620"/>
                            <mxPoint x="540" y="620"/>
                        </Array>
                    </mxGeometry>
                </mxCell>
            </root>
        </mxGraphModel>
    </diagram>
</mxfile>